<svg aria-hidden="true" style="position: absolute; width: 0; height: 0; overflow: hidden;" version="1.1" xmlns="http://www.w3.org/2000/svg" xmlns:xlink="http://www.w3.org/1999/xlink">
<defs>
<symbol id="icon-dashboard" viewBox="0 0 32 32">
<path d="M29.824 13.739v16.864h-9.152v-11.659h-8.267v11.659h-9.141v-16.864l13.28-12.405 13.28 12.405z"></path>
<path d="M16.544 1.333l-13.28 12.405v16.864h9.141v-11.659h8.267v11.659h9.152v-16.864l-13.28-12.405z"></path>
</symbol>
<symbol id="icon-calender" viewBox="0 0 32 32">
<path d="M29.237 20.459v-12.896c-0.006-1.341-1.091-2.426-2.431-2.432h-1.59v1.269c0 0.672-0.544 1.216-1.216 1.216s-1.216-0.544-1.216-1.216v0-1.269h-5.536v1.269c0 0.672-0.544 1.216-1.216 1.216s-1.216-0.544-1.216-1.216v0-1.269h-5.472v1.269c0 0.672-0.544 1.216-1.216 1.216s-1.216-0.544-1.216-1.216v0-1.269h-1.525c-1.341 0.006-2.426 1.091-2.432 2.431v18.987c0 1.343 1.089 2.432 2.432 2.432v0h21.419c1.341-0.006 2.426-1.091 2.432-2.431v-0.001c0-0.672 0.544-1.216 1.216-1.216s1.216 0.544 1.216 1.216v0c-0.006 2.684-2.18 4.858-4.863 4.864h-21.419c-2.686 0-4.864-2.178-4.864-4.864v0-18.987c0-2.686 2.178-4.864 4.864-4.864v0h1.525v-1.216c0-0.672 0.544-1.216 1.216-1.216s1.216 0.544 1.216 1.216v0 1.216h5.472v-1.216c0-0.672 0.544-1.216 1.216-1.216s1.216 0.544 1.216 1.216v1.216h5.536v-1.216c0-0.672 0.544-1.216 1.216-1.216s1.216 0.544 1.216 1.216v0 1.216h1.589c2.684 0.006 4.858 2.18 4.864 4.863v12.897c0 0.672-0.544 1.216-1.216 1.216s-1.216-0.544-1.216-1.216v0zM9.344 13.045c0-0.672-0.544-1.216-1.216-1.216s-1.216 0.544-1.216 1.216v0c0 0.672 0.544 1.216 1.216 1.216s1.216-0.544 1.216-1.216v0zM19.925 13.045v0c0-0.672-0.544-1.216-1.216-1.216s-1.216 0.544-1.216 1.216v0c0 0.672 0.544 1.216 1.216 1.216s1.216-0.544 1.216-1.216v0zM25.259 13.045c0-0.672-0.544-1.216-1.216-1.216s-1.216 0.544-1.216 1.216v0c0 0.672 0.544 1.216 1.216 1.216s1.216-0.544 1.216-1.216v0zM9.387 18.379c0-0.672-0.544-1.216-1.216-1.216s-1.216 0.544-1.216 1.216v0c0 0.672 0.544 1.216 1.216 1.216s1.216-0.544 1.216-1.216v0zM8.128 22.4c-0.672 0-1.216 0.544-1.216 1.216v0c0 0.672 0.544 1.216 1.216 1.216s1.216-0.544 1.216-1.216v0c0-0.672-0.544-1.216-1.216-1.216v0zM14.635 13.035c0-0.672-0.544-1.216-1.216-1.216s-1.216 0.544-1.216 1.216v0c0 0.672 0.544 1.216 1.216 1.216s1.216-0.544 1.216-1.216v0zM14.635 18.368c0-0.672-0.544-1.216-1.216-1.216s-1.216 0.544-1.216 1.216v0c0 0.672 0.544 1.216 1.216 1.216s1.216-0.544 1.216-1.216v0zM13.419 22.4c-0.672 0-1.216 0.544-1.216 1.216v0 0c0 0.672 0.544 1.216 1.216 1.216s1.216-0.544 1.216-1.216v0c0-0.672-0.544-1.216-1.216-1.216v0zM17.493 19.541c0-1.343 1.089-2.432 2.432-2.432v0h2.859c1.343 0 2.432 1.089 2.432 2.432v0 2.859c0 1.343-1.089 2.432-2.432 2.432v0h-2.859c-1.343 0-2.432-1.089-2.432-2.432v0zM19.925 22.4h2.859v-2.848h-2.859z"></path>
</symbol>
<symbol id="icon-package" viewBox="0 0 32 32">
<path d="M28.917 5.013h-25.6c-1.483 0-2.645 0.821-2.645 1.845v13.408c0 3.68 4.203 6.677 9.397 6.677h12.053c5.184 0 9.397-2.997 9.397-6.677v-13.408c0-1.024-1.163-1.845-2.603-1.845zM7.68 23.936c-1.547 0-2.805-0.885-2.805-1.984s1.259-1.995 2.805-1.995 2.805 0.896 2.805 1.995-1.259 1.984-2.805 1.984zM10.485 12.48c0 0.277-0.32 0.501-0.704 0.501h-0.704c-0.384 0-0.693 0.224-0.693 0.501v3.979c0 0.277-0.32 0.501-0.704 0.501s-0.704-0.224-0.704-0.501v-3.979c0-0.277-0.309-0.501-0.693-0.501h-0.704c-0.384 0-0.704-0.224-0.704-0.501v-1.984c0-0.277 0.32-0.501 0.704-0.501h0.704c0.384 0 0.693-0.224 0.693-0.501v-0.96c0-0.277 0.32-0.501 0.704-0.501s0.704 0.224 0.704 0.501v0.96c0 0.277 0.309 0.501 0.693 0.501h0.704c0.384 0 0.704 0.224 0.704 0.501zM16.096 23.936c-1.547 0-2.805-0.885-2.805-1.984s1.259-1.995 2.805-1.995 2.805 0.896 2.805 1.995-1.259 1.984-2.805 1.984zM18.901 15.477c0 0.267-0.32 0.491-0.704 0.491h-0.704c-0.384 0-0.704 0.224-0.704 0.501v0.992c0 0.277-0.309 0.501-0.693 0.501s-0.704-0.224-0.704-0.501v-0.992c0-0.277-0.309-0.501-0.704-0.501h-0.693c-0.395 0-0.704-0.224-0.704-0.491v-1.995c0-0.277 0.309-0.501 0.704-0.501h0.693c0.395 0 0.704-0.224 0.704-0.501v-3.947c0-0.277 0.32-0.501 0.704-0.501s0.693 0.224 0.693 0.501v3.947c0 0.277 0.32 0.501 0.704 0.501h0.704c0.384 0 0.704 0.224 0.704 0.501zM24.533 23.936c-1.547 0-2.805-0.885-2.805-1.984s1.259-1.995 2.805-1.995 2.795 0.896 2.795 1.995-1.269 1.984-2.795 1.984zM27.328 14.475c0 0.277-0.309 0.501-0.693 0.501h-0.704c-0.384 0-0.704 0.224-0.704 0.501v1.984c0 0.277-0.309 0.501-0.693 0.501s-0.704-0.224-0.704-0.501v-1.984c0-0.277-0.32-0.501-0.704-0.501h-0.725c-0.384 0-0.693-0.224-0.693-0.501v-1.995c0-0.267 0.309-0.491 0.693-0.491h0.704c0.384 0 0.704-0.224 0.704-0.501v-2.955c0-0.277 0.309-0.501 0.704-0.501s0.693 0.224 0.693 0.501v2.987c0 0.277 0.32 0.501 0.704 0.501h0.757c0.384 0 0.693 0.224 0.693 0.491z"></path>
</symbol>
<symbol id="icon-members" viewBox="0 0 32 32">
<path d="M0.416 18.336h31.349v-14.613c-0.012-2.059-1.684-3.723-3.744-3.723-0.004 0-0.008 0-0.011 0h-22.495c-0 0-0 0-0 0-2.801 0-5.074 2.259-5.098 5.054v0.002zM15.179 2.72h12.917v5.515h-12.917zM15.179 10.069h12.917v5.504h-12.917zM4.149 12.8c0.018-2.525 2.069-4.565 4.597-4.565 0 0 0 0 0 0v0c-0.003 0-0.007 0-0.011 0-1.526 0-2.763-1.237-2.763-2.763s1.237-2.763 2.763-2.763c1.526 0 2.763 1.237 2.763 2.763v0c0 0 0 0 0 0 0 1.522-1.231 2.757-2.751 2.763h-0.001c2.523 0.006 4.569 2.044 4.587 4.564v2.775h-9.184z"></path>
<path d="M0.416 20.171h31.349v5.632h-31.349v-5.632z"></path>
<path d="M11.499 27.637v1.835h-3.669v1.845h16.533v-1.845h-3.68v-1.835z"></path>
</symbol>
<symbol id="icon-admission" viewBox="0 0 32 32">
<path d="M14.784 17.333c0.25 0.251 0.463 0.539 0.631 0.855l0.009 0.020-1.504 0.277c0.276-0.434 0.56-0.81 0.872-1.161l-0.008 0.009z"></path>
<path d="M18.261 14.677c0 0.736-0.597 1.333-1.333 1.333s-1.333-0.597-1.333-1.333c0-0.736 0.597-1.333 1.333-1.333v0c0.736 0 1.333 0.597 1.333 1.333v0z"></path>
<path d="M24.373 16v0c0.23 0.609 0.363 1.313 0.363 2.048 0 0.004 0 0.008 0 0.011v-0.001 8.608c-0 0.306-0.055 0.599-0.155 0.871l0.006-0.017h1.504c2.67-0.012 4.831-2.173 4.843-4.841v-0.14c-0.030-3.607-2.952-6.521-6.558-6.539h-0.002z"></path>
<path d="M7.467 26.667v-8.661c0-0.005-0-0.011-0-0.017 0-0.713 0.125-1.396 0.354-2.030l-0.013 0.042c-3.641 0-6.592 2.951-6.592 6.592v0 0.139c0 2.692 2.182 4.875 4.875 4.875v0h1.504c-0.083-0.24-0.132-0.516-0.132-0.803 0-0.048 0.001-0.095 0.004-0.142l-0 0.007z"></path>
<path d="M12.331 27.552h7.531c1.767 0 3.2-1.433 3.2-3.2v0-4.085c0-3.641-2.951-6.592-6.592-6.592v0h-0.661c-0.013-0-0.028-0-0.043-0-3.641 0-6.592 2.951-6.592 6.592 0 0 0 0 0 0v0 4.096c0.006 1.748 1.412 3.165 3.155 3.189l0.002 0z"></path>
<path d="M18.613 11.989c1.575-0.899 2.619-2.567 2.619-4.48 0-2.839-2.302-5.141-5.141-5.141s-5.141 2.302-5.141 5.141c0 2.839 2.302 5.141 5.141 5.141 0.002 0 0.004 0 0.005 0h-0c0.925-0.003 1.793-0.248 2.543-0.675l-0.026 0.013z"></path>
<path d="M10.432 12.8c0.286-0.523 0.455-1.145 0.455-1.807 0-0.278-0.030-0.549-0.086-0.81l0.005 0.025c-0.372-1.775-1.924-3.089-3.783-3.089-2.049 0-3.725 1.595-3.853 3.611l-0.001 0.011c-0.003 0.059-0.005 0.127-0.005 0.196 0 2.1 1.654 3.814 3.73 3.91l0.009 0c0.034 0.001 0.074 0.002 0.114 0.002 0.548 0 1.070-0.11 1.545-0.31l-0.026 0.010c0.819-0.362 1.475-0.97 1.888-1.729l0.010-0.021z"></path>
<path d="M23.637 14.549c0.456 0.196 0.986 0.311 1.543 0.311 0.035 0 0.070-0 0.105-0.001l-0.005 0c2.091-0.103 3.748-1.824 3.748-3.931 0-0.062-0.001-0.123-0.004-0.184l0 0.009c-0.137-2.021-1.81-3.608-3.853-3.608-2.133 0-3.861 1.729-3.861 3.861 0 1.578 0.947 2.935 2.303 3.534l0.025 0.010z"></path>
</symbol>
<symbol id="icon-Accounting" viewBox="0 0 28 32">
<path fill="#606060" style="fill: var(--color1, #606060)" d="M8.787 8.869c-0.192-0.065-0.413-0.103-0.643-0.103-1.137 0-2.058 0.921-2.058 2.058s0.921 2.058 2.058 2.058c0.23 0 0.451-0.038 0.657-0.107l-0.014 0.004h10.125c0.192 0.065 0.413 0.103 0.643 0.103 1.137 0 2.058-0.921 2.058-2.058s-0.921-2.058-2.058-2.058c-0.23 0-0.451 0.038-0.657 0.107l0.015-0.004zM8.787 16.689c-0.829 0.278-1.415 1.048-1.415 1.955s0.586 1.677 1.401 1.951l0.014 0.004h10.125c0.192 0.065 0.413 0.103 0.643 0.103 1.137 0 2.058-0.921 2.058-2.058s-0.921-2.058-2.058-2.058c-0.23 0-0.451 0.038-0.657 0.107l0.015-0.004zM21.814 32h-15.949c-3.234-0.012-5.853-2.631-5.865-5.864v-20.271c0.012-3.234 2.631-5.853 5.864-5.865h3.088c1.137 0 2.058 0.921 2.058 2.058v0h5.783c0-1.137 0.921-2.058 2.058-2.058v0h2.963c3.234 0.012 5.853 2.631 5.865 5.864v20.271c-0.012 3.234-2.631 5.853-5.864 5.865h-0.001z"></path>
</symbol>
<symbol id="icon-monthlyplan" viewBox="0 0 32 32">
<path d="M29.376 18.443v-13.013c0 0 0 0 0-0 0-1.398-1.131-2.533-2.527-2.539h-3.201c-0.349 0.006-0.629 0.29-0.629 0.64 0 0 0 0 0 0v0 3.2c-0.015 0.689-0.578 1.242-1.269 1.242-0.701 0-1.269-0.568-1.269-1.269 0-0.552 0.352-1.022 0.844-1.196l0.009-0.003c0.245-0.090 0.416-0.321 0.416-0.592 0-0.002 0-0.004-0-0.006v0-3.915c0.003-0.025 0.005-0.053 0.005-0.082 0-0.353-0.287-0.64-0.64-0.64s-0.64 0.287-0.64 0.64c0 0.029 0.002 0.058 0.006 0.086l-0-0.003v1.899h-9.483c-0.353 0-0.64 0.287-0.64 0.64v0 3.2c-0.015 0.689-0.578 1.242-1.269 1.242-0.701 0-1.269-0.568-1.269-1.269 0-0.552 0.352-1.022 0.844-1.196l0.009-0.003c0.245-0.090 0.416-0.321 0.416-0.592 0-0.002 0-0.004-0-0.006v0-3.915c0-0.003 0-0.007 0-0.011 0-0.348-0.282-0.629-0.629-0.629-0 0-0 0-0 0v0c-0.353 0-0.64 0.287-0.64 0.64v0 1.899h-3.797c-1.4 0.006-2.533 1.139-2.539 2.538v20.267c0.006 1.4 1.139 2.533 2.538 2.539h15.542c1.289 1.577 3.235 2.576 5.414 2.576 3.853 0 6.976-3.123 6.976-6.976 0-2.179-0.999-4.124-2.564-5.404l-0.012-0.010zM17.963 23.776c0.006 0.679 0.107 1.331 0.29 1.948l-0.013-0.050h-14.219v-15.179h22.827v6.571c-0.572-0.169-1.229-0.266-1.909-0.266-3.853 0-6.976 3.123-6.976 6.976v0zM28.555 22.4l-4.437 4.437c-0.109 0.118-0.266 0.192-0.439 0.192-0.003 0-0.006-0-0.010-0h0c-0.176-0.001-0.334-0.075-0.448-0.192l-0-0-1.888-1.941c-0.115-0.115-0.186-0.273-0.186-0.448 0-0.35 0.284-0.634 0.634-0.634 0.175 0 0.333 0.071 0.448 0.186v0l1.451 1.451 3.989-3.989c0.115-0.113 0.274-0.183 0.448-0.183s0.333 0.070 0.448 0.183l-0-0c0.129 0.114 0.21 0.28 0.21 0.465 0 0.19-0.085 0.36-0.22 0.473l-0.001 0.001z"></path>
</symbol>
<symbol id="icon-store" viewBox="0 0 32 32">
<path d="M29.035 2.891h-22.923c-0.030-0.005-0.066-0.008-0.101-0.008s-0.071 0.003-0.105 0.009l0.004-0.001-0.864-2.805h-3.829c-0.386 0.006-0.698 0.318-0.704 0.703v1.398c0.006 0.386 0.318 0.698 0.703 0.704h1.761l4.373 14.357-1.632 1.952c-0.465 0.514-0.75 1.199-0.75 1.95 0 0.282 0.040 0.554 0.115 0.812l-0.005-0.021c0.351 1.151 1.403 1.974 2.648 1.974 0.010 0 0.021-0 0.031-0h20.030c0.003 0 0.007 0 0.011 0 0.383 0 0.693-0.31 0.693-0.693 0-0 0-0 0-0v0-1.451c0-0.389-0.315-0.704-0.704-0.704v0h-20.032l2.219-2.581c0.049-0.062 0.095-0.132 0.135-0.206l0.004-0.008h15.328l5.632-11.979c0.134-0.281 0.212-0.611 0.213-0.96v-0.192c0-0.003 0-0.007 0-0.011 0-1.237-1.003-2.24-2.24-2.24-0.004 0-0.008 0-0.011 0h0.001z"></path>
<path d="M11.701 28.064c0 1.543-1.251 2.795-2.795 2.795s-2.795-1.251-2.795-2.795c0-1.543 1.251-2.795 2.795-2.795s2.795 1.251 2.795 2.795z"></path>
<path d="M28.491 28.064c0 1.543-1.251 2.795-2.795 2.795s-2.795-1.251-2.795-2.795c0-1.543 1.251-2.795 2.795-2.795s2.795 1.251 2.795 2.795z"></path>
</symbol>
<symbol id="icon-payments" viewBox="0 0 32 32">
<path d="M29.632 25.099h-4.832c-3.046 0-5.515-2.469-5.515-5.515s2.469-5.515 5.515-5.515v0h4.832c0.383 0 0.693-0.31 0.693-0.693v-2.069c0-0.005 0-0.010 0-0.016 0-1.466-1.141-2.665-2.584-2.757l-0.008-0-3.915-6.891c-0.363-0.627-0.953-1.089-1.656-1.276l-0.019-0.004c-0.213-0.061-0.457-0.097-0.71-0.097-0.502 0-0.971 0.139-1.371 0.381l0.012-0.007-13.579 7.893h-2.389c0 0 0 0-0 0-1.526 0-2.763 1.237-2.763 2.763 0 0.004 0 0.008 0 0.011v-0.001 16.555c0 1.526 1.237 2.763 2.763 2.763v0h23.467c1.526 0 2.763-1.237 2.763-2.763v0-2.069c0-0 0-0 0-0 0-0.383-0.31-0.693-0.693-0.693-0.004 0-0.008 0-0.011 0h0.001zM20.16 8.533l4.512-2.624 1.504 2.624zM20.768 1.824c0.196-0.122 0.434-0.194 0.689-0.194 0.135 0 0.265 0.020 0.387 0.058l-0.009-0.002c0.359 0.097 0.652 0.327 0.829 0.633l0.003 0.007-10.709 6.208h-2.72z"></path>
<path d="M29.632 15.445h-4.832c-2.286 0-4.139 1.853-4.139 4.139s1.853 4.139 4.139 4.139v0h4.832c1.143 0 2.069-0.926 2.069-2.069v-4.139c0-1.143-0.926-2.069-2.069-2.069v0zM24.8 20.96c-0.76 0-1.376-0.616-1.376-1.376s0.616-1.376 1.376-1.376c0.76 0 1.376 0.616 1.376 1.376v0c0 0.76-0.616 1.376-1.376 1.376v0z"></path>
</symbol>
<symbol id="icon-finalceflow" viewBox="0 0 32 32">
<path d="M5.525 14.784c0.002 0 0.005 0 0.007 0 0.72 0 1.373-0.289 1.849-0.758l-0 0 2.645 1.323c-0.003 0.049-0.004 0.107-0.004 0.165s0.002 0.116 0.005 0.173l-0-0.008c0.127 1.372 1.272 2.439 2.667 2.439s2.54-1.066 2.666-2.428l0.001-0.011c0-0.001 0-0.001 0-0.002 0-0.419-0.098-0.814-0.274-1.165l0.007 0.015 3.584-3.584c0.337 0.164 0.732 0.262 1.15 0.267l0.002 0c1.474-0.006 2.667-1.202 2.667-2.677 0 0 0-0 0-0v0c0.001-0.021 0.001-0.046 0.001-0.070 0-0.259-0.035-0.511-0.102-0.749l0.005 0.020 3.115-2.336c0.414 0.281 0.924 0.448 1.473 0.448 0.003 0 0.007 0 0.010-0h-0.001c1.465-0.018 2.645-1.21 2.645-2.677 0-1.479-1.199-2.677-2.677-2.677s-2.677 1.199-2.677 2.677c0 0.011 0 0.022 0 0.034l-0-0.002c0.004 0.283 0.050 0.554 0.133 0.809l-0.005-0.019-3.083 2.315c-0.415-0.286-0.929-0.457-1.482-0.459h-0c-0.010-0-0.021-0-0.032-0-1.479 0-2.677 1.199-2.677 2.677 0 0.004 0 0.008 0 0.011v-0.001c0.001 0.416 0.099 0.808 0.273 1.156l-0.007-0.015-3.541 3.595c-0.341-0.176-0.744-0.279-1.171-0.279-0.717 0-1.366 0.29-1.837 0.759l0-0-2.688-1.323c0-0.107 0-0.213 0-0.32 0-1.479-1.199-2.677-2.677-2.677s-2.677 1.199-2.677 2.677c0 1.479 1.199 2.677 2.677 2.677v0z"></path>
<path d="M30.603 29.195h-0.96v-18.88c0-0 0-0.001 0-0.002 0-0.476-0.371-0.865-0.84-0.894l-0.003-0h-3.627c-0.49 0.006-0.885 0.405-0.885 0.896 0 0 0 0 0 0v0 18.88h-1.792v-13.515c0-0.003 0-0.007 0-0.011 0-0.489-0.396-0.885-0.885-0.885-0.004 0-0.008 0-0.011 0h-3.562c-0.003-0-0.007-0-0.011-0-0.489 0-0.885 0.396-0.885 0.885 0 0.004 0 0.008 0 0.011v-0.001 13.515h-1.792v-6.4c0-0.003 0-0.007 0-0.011 0-0.489-0.396-0.885-0.885-0.885-0 0-0 0-0 0h-3.573c-0.003-0-0.007-0-0.011-0-0.489 0-0.885 0.396-0.885 0.885 0 0.004 0 0.008 0 0.011v-0.001 6.4h-1.792v-9.941c0-0.003 0-0.007 0-0.011 0-0.489-0.396-0.885-0.885-0.885-0 0-0 0-0 0h-3.573c-0.003-0-0.007-0-0.011-0-0.489 0-0.885 0.396-0.885 0.885 0 0.004 0 0.008 0 0.011v-0.001 9.941h-0.96c-0.451 0.051-0.798 0.43-0.798 0.891s0.347 0.84 0.794 0.89l0.004 0h28.715c0.451-0.051 0.798-0.43 0.798-0.891s-0.347-0.84-0.794-0.89l-0.004-0z"></path>
</symbol>
<symbol id="icon-announcement" viewBox="0 0 32 32">
<path d="M5.472 8.747c-0 0-0 0-0 0-0.501 0-0.907 0.406-0.907 0.907 0 0.004 0 0.008 0 0.011v-0.001 0.907h-2.741c-0.507 0-0.917 0.411-0.917 0.917v0 5.483c-0 0.003-0 0.007-0 0.011 0 0.501 0.406 0.907 0.907 0.907 0.004 0 0.008-0 0.011-0h2.741v0.917c0 0.501 0.406 0.907 0.907 0.907v0h0.555l3.68 9.803c0.225 0.582 0.723 1.012 1.332 1.139l0.012 0.002h0.363c0.004 0 0.010 0 0.015 0 0.499 0 0.95-0.204 1.275-0.533l0-0 2.229-2.155c0.333-0.329 0.539-0.785 0.539-1.29 0-0.308-0.077-0.599-0.213-0.853l0.005 0.010-3.061-6.144h2.421c0.32 0 0.629 0.064 0.939 0.096v-11.136l-0.939 0.096z"></path>
<path d="M30.016 1.877c-0.016-0.034-0.037-0.062-0.064-0.085l-0-0c-0.098-0.132-0.227-0.234-0.378-0.296l-0.006-0.002h-0.053c-0.038-0.005-0.083-0.008-0.128-0.008s-0.090 0.003-0.133 0.009l0.005-0.001c-0.027-0.005-0.059-0.007-0.091-0.007s-0.063 0.003-0.094 0.008l0.003-0h-0.096c-0.163 0.051-0.3 0.144-0.404 0.266l-0.001 0.001c-2.796 3.362-6.671 5.741-11.089 6.604l-0.121 0.020v11.733c4.519 0.87 8.381 3.222 11.155 6.52l0.024 0.029c0.064 0.071 0.138 0.131 0.22 0.179l0.004 0.002c0.030 0.012 0.055 0.030 0.074 0.053l0 0c0.11 0.045 0.238 0.072 0.372 0.075h0.001c0.111-0.003 0.217-0.022 0.317-0.056l-0.008 0.002c0.158-0.057 0.289-0.157 0.382-0.286l0.002-0.002 0.064-0.085c0.090-0.135 0.145-0.301 0.149-0.479l0-0.001v-23.723c0.001-0.014 0.001-0.031 0.001-0.048 0-0.154-0.040-0.3-0.11-0.425l0.002 0.004z"></path>
</symbol>
<symbol id="icon-assets" viewBox="0 0 32 32">
<path d="M31.499 7.68c-0.219-0.323-0.551-0.555-0.939-0.638l-0.010-0.002-4.075-1.067c-0.087-0.017-0.186-0.027-0.288-0.027-0.737 0-1.353 0.519-1.502 1.212l-0.002 0.010c-0.018 0.088-0.029 0.188-0.029 0.291 0 0.318 0.098 0.612 0.266 0.855l-0.003-0.005c0.213 0.324 0.543 0.557 0.929 0.638l0.010 0.002-1.067 4.107c-0.447 0.406-0.832 0.869-1.147 1.381l-0.016 0.027v-1.888c-0.004-1.664-0.543-3.201-1.455-4.448l0.015 0.021 2.453-2.453v-0.213c-0.006-1.676-1.363-3.034-3.039-3.040h-0.214l-2.805 2.827v-0.8c-0.121-2.425-2.116-4.345-4.56-4.345s-4.439 1.92-4.56 4.334l-0 0.011v0.8l-2.827-2.827h-0.235c-1.667 0.018-3.013 1.371-3.019 3.039v0.214l2.453 2.453c-0.9 1.219-1.44 2.75-1.44 4.408 0 0.007 0 0.013 0 0.020v-0.001 8.757c-2.337 0.481-4.070 2.522-4.070 4.968 0 2.798 2.268 5.067 5.067 5.067 1.655 0 3.125-0.794 4.050-2.021l0.009-0.013h15.712c0 0 0 0 0 0 1.958 0 3.546-1.584 3.552-3.541v-3.083c0-0.010 0-0.022 0-0.035 0-0.579-0.325-1.083-0.803-1.337l-0.008-0.004 0.896-3.52c0.148-0.518 0.234-1.113 0.234-1.727 0-0.682-0.105-1.339-0.3-1.956l0.013 0.046 1.237-4.16c0.040 0.005 0.086 0.008 0.133 0.008s0.093-0.003 0.139-0.008l-0.005 0.001c0.823-0.024 1.482-0.698 1.482-1.525 0-0.301-0.087-0.581-0.237-0.817l0.004 0.006zM21.813 3.467c0.976 0.107 1.74 0.886 1.823 1.859l0.001 0.008-2.080 2.133c-0.591-0.618-1.277-1.137-2.037-1.537l-0.043-0.021zM14.016 0.928c0 0 0 0 0 0 1.958 0 3.546 1.584 3.552 3.541v0.662c-0.289-0.059-0.637-0.104-0.99-0.127l-0.023-0.001v-0.533c-0.089-1.329-1.189-2.374-2.533-2.374s-2.444 1.045-2.533 2.366l-0 0.008v0.533c-0.377 0.024-0.724 0.069-1.064 0.136l0.051-0.008v-0.661c0-1.956 1.585-3.541 3.541-3.541v0zM15.541 4.981h-3.040v-0.512c0.068-0.786 0.722-1.398 1.52-1.398s1.452 0.612 1.52 1.392l0 0.006zM4.405 5.333c0.103-0.957 0.856-1.71 1.804-1.813l0.009-0.001 2.315 2.283c-0.791 0.421-1.466 0.941-2.044 1.553l-0.004 0.004zM5.408 12.629c0.006-3.632 2.949-6.575 6.581-6.581h4.011c0 0 0 0 0 0 3.637 0 6.586 2.945 6.592 6.581v4.651l-1.013 3.605v-7.797c0-3.358-2.722-6.080-6.080-6.080h-2.997c-0.006-0-0.014-0-0.021-0-3.358 0-6.080 2.722-6.080 6.080 0 0 0 0 0 0v0 8.245c-0.303-0.065-0.653-0.103-1.011-0.107l-0.003-0zM4.139 22.4c0.378-0.135 0.815-0.213 1.269-0.213s0.891 0.078 1.296 0.222l-0.027-0.008c-0.166 0.39-0.266 0.843-0.277 1.318l-0 0.004v2.528c0 0.56-0.454 1.013-1.013 1.013s-1.013-0.454-1.013-1.013v0-2.528c0-0.009 0-0.019 0-0.029 0-0.465-0.086-0.909-0.243-1.319l0.008 0.025zM7.467 21.611v-8.533c0-2.798 2.268-5.067 5.067-5.067v0h3.040c2.798 0 5.067 2.268 5.067 5.067v0 9.109h-12.203c-0.281-0.208-0.599-0.4-0.935-0.561l-0.035-0.015zM15.029 23.467l2.325 2.325-2.325 2.325-2.325-2.325zM11.989 25.077l-1.813-1.824h3.691zM16.256 23.253h3.637l-1.824 1.824zM20.608 23.979v3.627l-1.824-1.813zM11.275 25.792l-0.821 0.821c0-0.107 0-0.213 0-0.32 0-0.002 0-0.005 0-0.008 0-0.554-0.090-1.086-0.256-1.584l0.010 0.035zM11.989 26.507l1.877 1.771h-3.691zM18.069 26.507l1.824 1.813h-3.637zM5.408 30.304c-0.011 0-0.024 0-0.038 0-2.233 0-4.043-1.81-4.043-4.043 0-1.436 0.749-2.697 1.877-3.414l0.016-0.010c0.097 0.26 0.155 0.56 0.16 0.872l0 0.002v2.528c0 1.119 0.907 2.027 2.027 2.027s2.027-0.907 2.027-2.027v-2.517c0-0.002 0-0.003 0-0.005 0-0.313 0.059-0.611 0.166-0.886l-0.006 0.017c1.145 0.727 1.893 1.988 1.893 3.424 0 2.227-1.801 4.034-4.026 4.043h-0.001zM27.733 25.749c-0.006 1.397-1.14 2.528-2.539 2.528 0 0 0 0-0 0h-3.573v-6.080h5.568c0.28 0.006 0.506 0.232 0.512 0.511v0.001zM27.829 17.557l-0.885 3.627h-4.373l1.323-4.704c0.281-1.001 0.808-1.856 1.512-2.526l0.002-0.002 2.379 0.651c0.13 0.443 0.204 0.951 0.204 1.477s-0.075 1.035-0.214 1.516l0.010-0.038zM27.883 13.568l-1.973-0.533 1.003-3.787 2.133 0.523zM30.763 8.619c-0.047 0.238-0.253 0.415-0.501 0.416h-0.075l-4.075-1.067c-0.136-0.030-0.248-0.111-0.319-0.222l-0.001-0.002c-0.062-0.075-0.102-0.171-0.107-0.276l-0-0.001c0.046-0.232 0.248-0.405 0.491-0.405h0.075l4.075 1.013c0.139 0.029 0.255 0.111 0.329 0.222l0.001 0.002c0.052 0.079 0.083 0.176 0.083 0.28 0 0.033-0.003 0.065-0.009 0.097l0-0.003z"></path>
<path d="M10.475 14.101h4.917l-0.821 3.307c-0.007 0.051-0.011 0.11-0.011 0.171s0.004 0.119 0.012 0.177l-0.001-0.007c-0 0.013-0.001 0.028-0.001 0.043 0 0.763 0.607 1.384 1.364 1.407l0.002 0h1.237c0.775-0.006 1.402-0.633 1.408-1.407v-0.001c0.005-0.051 0.007-0.111 0.007-0.171s-0.003-0.12-0.008-0.178l0.001 0.008-0.875-3.371c0.482-0.090 0.847-0.495 0.875-0.989l0-0.003v-1.013c0-0.589-0.478-1.067-1.067-1.067v0h-7.040c-0.020-0.001-0.043-0.002-0.066-0.002-0.554 0-1.003 0.449-1.003 1.003 0 0.023 0.001 0.046 0.002 0.069l-0-0.003v1.013c0 0.589 0.478 1.067 1.067 1.067v0zM17.173 18.133h-1.237c-0.003 0-0.007 0-0.011 0-0.212 0-0.384-0.172-0.384-0.384 0-0.004 0-0.008 0-0.011v0.001c-0.002-0.014-0.004-0.031-0.004-0.048s0.001-0.034 0.004-0.050l-0 0.002 0.864-3.445c0.015-0.062 0.070-0.107 0.135-0.107 0.001 0 0.003 0 0.004 0h-0c0.065 0.002 0.12 0.046 0.138 0.106l0 0.001 0.864 3.445s0 0.064 0 0.096c0 0.218-0.177 0.395-0.395 0.395v0zM10.475 12.075h7.093v1.013h-7.093z"></path>
<path d="M8.448 16.117h1.013v1.013h-1.013v-1.013z"></path>
<path d="M8.448 20.171h1.013v1.013h-1.013v-1.013z"></path>
<path d="M8.448 18.144h1.013v1.013h-1.013v-1.013z"></path>
</symbol>
<symbol id="icon-reports" viewBox="0 0 32 32">
<path d="M30.773 27.552c0.374-0.629 0.595-1.387 0.595-2.197s-0.221-1.568-0.607-2.217l0.011 0.020-10.667-19.573c-0.781-1.304-2.186-2.163-3.792-2.163s-3.011 0.859-3.781 2.143l-0.011 0.020-10.603 19.541c-0.388 0.643-0.618 1.42-0.618 2.251 0 2.433 1.972 4.405 4.405 4.405h21.173c0.011 0 0.025 0 0.038 0 1.64 0 3.073-0.887 3.844-2.208l0.011-0.021zM14.56 10.389c-0.003-0.041-0.005-0.089-0.005-0.137 0-0.978 0.793-1.771 1.771-1.771s1.771 0.793 1.771 1.771c0 0.048-0.002 0.096-0.006 0.144l0-0.006v7.051c-0.073 0.917-0.836 1.633-1.765 1.633s-1.692-0.716-1.765-1.627l-0-0.006v-7.051zM16.331 26.261c-1.461 0-2.645-1.184-2.645-2.645s1.184-2.645 2.645-2.645c1.461 0 2.645 1.184 2.645 2.645v0c-0.006 1.459-1.187 2.639-2.645 2.645h-0.001z"></path>
</symbol>
<symbol id="icon-profile" viewBox="0 0 32 32">
<path d="M21.003 15.36c-1.239 0.698-2.721 1.109-4.299 1.109s-3.059-0.411-4.343-1.132l0.045 0.023c-4.408 1.755-7.467 5.985-7.467 10.93 0 0.012 0 0.025 0 0.037v-0.002 0.501c3.127 2.761 7.26 4.446 11.787 4.446s8.66-1.685 11.806-4.463l-0.019 0.017v-0.501c-0.008-4.963-3.082-9.207-7.43-10.937l-0.080-0.028zM16.736-0.171c-0.003 0-0.007 0-0.011 0-4.289 0-7.765 3.477-7.765 7.765s3.477 7.765 7.765 7.765c4.289 0 7.765-3.477 7.765-7.765v0c0 0 0-0 0-0 0-4.289-3.477-7.765-7.765-7.765-0.008 0-0.015 0-0.023 0h0.001z"></path>
</symbol>
<symbol id="icon-backup" viewBox="0 0 32 32">
<path d="M2.933 11.872h23.733c0 0 0 0 0 0 1.457 0 2.639-1.178 2.645-2.634v-3.905c0-0.016 0.001-0.035 0.001-0.053 0-1.461-1.184-2.645-2.645-2.645-0 0-0 0-0.001 0h-23.733c-1.457 0.006-2.635 1.188-2.635 2.645 0 0.019 0 0.037 0.001 0.056l-0-0.003v3.904c0.006 1.453 1.182 2.629 2.634 2.635h0.001zM24.043 5.941c0.73 0 1.323 0.592 1.323 1.323s-0.592 1.323-1.323 1.323c-0.73 0-1.323-0.592-1.323-1.323 0-0.004 0-0.008 0-0.011v0.001c0.006-0.726 0.596-1.312 1.323-1.312 0 0 0 0 0 0v0zM20.085 5.941c0.73 0 1.323 0.592 1.323 1.323s-0.592 1.323-1.323 1.323c-0.73 0-1.323-0.592-1.323-1.323 0-0.004 0-0.008 0-0.011v0.001c0.006-0.726 0.596-1.312 1.323-1.312 0 0 0 0 0 0v0zM9.525 5.941c0-0.365 0.296-0.661 0.661-0.661s0.661 0.296 0.661 0.661v0 2.592c0 0.365-0.296 0.661-0.661 0.661s-0.661-0.296-0.661-0.661v0zM6.891 5.941c0-0.365 0.296-0.661 0.661-0.661s0.661 0.296 0.661 0.661v0 2.592c0 0.365-0.296 0.661-0.661 0.661s-0.661-0.296-0.661-0.661v0zM4.267 5.941c-0.003-0.025-0.005-0.054-0.005-0.084 0-0.365 0.296-0.661 0.661-0.661s0.661 0.296 0.661 0.661c0 0.030-0.002 0.059-0.006 0.087l0-0.003v2.592c0.003 0.025 0.005 0.054 0.005 0.084 0 0.365-0.296 0.661-0.661 0.661s-0.661-0.296-0.661-0.661c0-0.030 0.002-0.059 0.006-0.087l-0 0.003z"></path>
<path d="M20.267 14.421c0.195-0.117 0.323-0.328 0.323-0.568 0-0.063-0.009-0.125-0.026-0.183l0.001 0.005c-0.078-0.279-0.329-0.48-0.628-0.48-0 0-0.001 0-0.002 0h-17.067c-1.425 0.041-2.565 1.204-2.571 2.634v3.958c0.018 1.444 1.189 2.607 2.634 2.613h12.534c0.365 0 0.661-0.296 0.661-0.661v0c0-0.001 0-0.002 0-0.003 0-3.090 1.642-5.796 4.101-7.293l0.038-0.021zM5.568 19.125c0.003 0.025 0.005 0.054 0.005 0.084 0 0.365-0.296 0.661-0.661 0.661s-0.661-0.296-0.661-0.661c0-0.030 0.002-0.059 0.006-0.087l-0 0.003v-2.635c-0.003-0.025-0.005-0.054-0.005-0.084 0-0.365 0.296-0.661 0.661-0.661s0.661 0.296 0.661 0.661c0 0.030-0.002 0.059-0.006 0.087l0-0.003zM8.213 19.125c0 0.365-0.296 0.661-0.661 0.661s-0.661-0.296-0.661-0.661v0-2.635c0-0.365 0.296-0.661 0.661-0.661s0.661 0.296 0.661 0.661v0zM10.848 19.125c0 0.365-0.296 0.661-0.661 0.661s-0.661-0.296-0.661-0.661v0-2.635c0-0.365 0.296-0.661 0.661-0.661s0.661 0.296 0.661 0.661v0z"></path>
<path d="M24.704 14.517c-4.006 0-7.253 3.247-7.253 7.253s3.247 7.253 7.253 7.253c4.006 0 7.253-3.247 7.253-7.253v0c-0.006-4.003-3.25-7.247-7.253-7.253h-0.001zM20.747 22.4v0c-0.365 0-0.661-0.296-0.661-0.661v0c0.025-2.532 2.083-4.575 4.618-4.575 1.587 0 2.988 0.801 3.819 2.021l0.010 0.016c0.033 0.076 0.053 0.166 0.053 0.259 0 0.365-0.296 0.661-0.661 0.661-0.178 0-0.34-0.070-0.458-0.185l0 0c-0.598-0.881-1.596-1.451-2.726-1.451-0.943 0-1.793 0.397-2.393 1.034l-0.002 0.002 0.704 0.352c0.207 0.101 0.35 0.304 0.363 0.542l0 0.002c0.001 0.010 0.001 0.022 0.001 0.034 0 0.231-0.113 0.436-0.287 0.562l-0.002 0.001-1.984 1.312c-0.089 0.064-0.2 0.104-0.319 0.107h-0.001zM24.704 26.357c-1.587-0.004-2.985-0.804-3.819-2.021l-0.010-0.016c-0.070-0.103-0.112-0.231-0.112-0.368 0-0.228 0.115-0.429 0.291-0.548l0.002-0.002c0.102-0.072 0.229-0.115 0.367-0.115 0.226 0 0.425 0.117 0.539 0.294l0.002 0.003c0.601 0.881 1.6 1.452 2.732 1.452 0.945 0 1.796-0.397 2.397-1.034l0.002-0.002-0.704-0.352c-0.208-0.104-0.351-0.312-0.363-0.553l-0-0.001c-0.001-0.015-0.002-0.033-0.002-0.051 0-0.223 0.114-0.42 0.288-0.534l0.002-0.001 1.984-1.323s0 0 0 0c0.092-0.065 0.207-0.105 0.33-0.107h0c0.365 0 0.661 0.296 0.661 0.661v0c0 0.010 0 0.021 0 0.032 0 2.54-2.050 4.6-4.585 4.619h-0.002z"></path>
</symbol>
<symbol id="icon-settings" viewBox="0 0 32 32">
<path d="M18.005 15.861c-0.066-1.24-0.406-2.388-0.959-3.402l0.021 0.042 0.971-0.544c-0.522-0.915-1.165-1.694-1.92-2.348l-0.011-0.009-0.736 0.832c-0.853-0.758-1.882-1.338-3.016-1.671l-0.056-0.014 0.299-1.067c-0.729-0.217-1.567-0.341-2.433-0.341-0.007 0-0.014 0-0.021 0h0.001l-0.544 0.021 0.064 1.067c-1.248 0.080-2.398 0.434-3.411 1.002l0.040-0.021-0.523-0.875c-0.912 0.492-1.69 1.1-2.352 1.818l-0.006 0.006 0.832 0.747c-0.762 0.851-1.343 1.88-1.672 3.017l-0.014 0.055-1.067-0.309c-0.217 0.731-0.341 1.571-0.341 2.441 0 0.004 0 0.009 0 0.013v-0.001c0 0.171 0 0.352 0 0.523l1.067-0.064c0.080 1.244 0.434 2.39 1.002 3.4l-0.021-0.040-0.981 0.544c0.511 0.91 1.14 1.685 1.879 2.339l0.009 0.008 0.736-0.832c0.853 0.761 1.881 1.345 3.016 1.682l0.056 0.014-0.309 1.067c0.731 0.217 1.571 0.341 2.441 0.341 0.004 0 0.009 0 0.013 0h0.543l-0.075-1.067c1.249-0.079 2.399-0.437 3.409-1.012l-0.039 0.020 0.544 0.981c0.906-0.518 1.68-1.146 2.339-1.879l0.008-0.009-0.843-0.747c0.766-0.85 1.35-1.88 1.682-3.017l0.014-0.055 1.067 0.309c0.217-0.729 0.341-1.567 0.341-2.433 0-0.007 0-0.014-0-0.021v0.001c0-0.181 0-0.352 0-0.533zM8.181 23.243v0l0.064-0.192zM14.731 17.632c-0.588 2.018-2.417 3.468-4.586 3.477h-0.001c-0.464-0.004-0.912-0.070-1.337-0.19l0.035 0.009c-2.035-0.57-3.504-2.406-3.509-4.586v-0.001c-0-0.006-0-0.013-0-0.020 0-0.457 0.066-0.898 0.19-1.314l-0.008 0.033c0.586-2.023 2.422-3.477 4.598-3.477 0.007 0 0.014 0 0.022 0h-0.001c0.466 0.008 0.913 0.077 1.337 0.201l-0.036-0.009c2.025 0.576 3.486 2.404 3.499 4.574v0.002c-0.011 0.468-0.085 0.914-0.212 1.337l0.009-0.036z"></path>
<path d="M31.701 12.469l-0.747 0.139c-0.123-0.615-0.33-1.161-0.612-1.66l0.014 0.028 0.661-0.363c-0.501-0.867-1.171-1.582-1.972-2.119l-0.023-0.014-0.416 0.629c-0.454-0.31-0.978-0.564-1.538-0.736l-0.041-0.011 0.203-0.715c-0.51-0.156-1.096-0.245-1.704-0.245-0.009 0-0.017 0-0.026 0h0.001c-0.084-0.004-0.182-0.006-0.281-0.006-0.334 0-0.661 0.026-0.981 0.075l0.036-0.005 0.149 0.736c-0.619 0.123-1.169 0.33-1.671 0.612l0.028-0.015-0.384-0.672c-0.867 0.497-1.582 1.164-2.119 1.962l-0.014 0.022 0.619 0.427c-0.314 0.453-0.569 0.977-0.737 1.54l-0.010 0.039-0.715-0.213v0.053c-0.156 0.508-0.245 1.091-0.245 1.696 0 0.011 0 0.022 0 0.034v-0.002c0.004 0.417 0.042 0.823 0.113 1.217l-0.006-0.044 0.747-0.149c0.117 0.618 0.321 1.168 0.601 1.671l-0.014-0.028-0.661 0.363c0.49 0.892 1.159 1.629 1.963 2.184l0.021 0.014 0.416-0.619c0.454 0.31 0.978 0.564 1.538 0.736l0.041 0.011-0.213 0.715h0.064c0.52 0.153 1.118 0.242 1.737 0.245h0.002c0.010 0 0.021 0 0.032 0 0.392 0 0.776-0.039 1.146-0.113l-0.037 0.006-0.117-0.693c0.619-0.125 1.169-0.336 1.67-0.622l-0.027 0.014 0.363 0.661c0.868-0.5 1.583-1.171 2.119-1.972l0.014-0.023-0.619-0.416c0.313-0.456 0.565-0.985 0.727-1.551l0.009-0.038 0.715 0.213c0.149-0.515 0.235-1.106 0.235-1.717 0-0.004 0-0.008 0-0.011v0.001c0.006-0.109 0.010-0.235 0.010-0.363 0-0.32-0.023-0.634-0.068-0.941l0.004 0.035zM25.472 17.451c-0.014 0-0.030 0-0.046 0-0.363 0-0.715-0.051-1.048-0.145l0.027 0.007c-1.595-0.461-2.741-1.909-2.741-3.623 0-0.001 0-0.002 0-0.003v0c-0-0.013-0-0.028-0-0.043 0-0.364 0.051-0.717 0.145-1.051l-0.007 0.027c0.461-1.595 1.909-2.741 3.623-2.741 0.001 0 0.002 0 0.003 0h-0c0.011-0 0.023-0 0.036-0 0.367 0 0.721 0.051 1.058 0.145l-0.027-0.007c1.594 0.465 2.739 1.912 2.741 3.626v0c0 0.015 0 0.033 0 0.051 0 0.362-0.055 0.712-0.156 1.041l0.007-0.025c-0.461 1.592-1.904 2.738-3.616 2.741h-0z"></path>
</symbol>
</defs>
</svg>
