<svg aria-hidden="true" style="position: absolute; width: 0; height: 0; overflow: hidden;" version="1.1" xmlns="http://www.w3.org/2000/svg" xmlns:xlink="http://www.w3.org/1999/xlink">

<symbol id="home" viewBox="0 0 32 32">
<path d="M29.824 13.739v16.864h-9.152v-11.659h-8.267v11.659h-9.141v-16.864l13.28-12.405 13.28 12.405z"></path>
<path d="M16.544 1.333l-13.28 12.405v16.864h9.141v-11.659h8.267v11.659h9.152v-16.864l-13.28-12.405z"></path>
</symbol>

<symbol id="admission" viewBox="0 0 32 32">
<path class="cls-1" d="M.39,17.6H29.78V3.9A3.52,3.52,0,0,0,26.26.38H5.17A4.78,4.78,0,0,0,.39,5.16ZM14.23,3H26.34V8.13H14.23Zm0,6.88H26.34V15H14.23ZM3.89,12.44A4.32,4.32,0,0,1,8.2,8.13a2.58,2.58,0,1,1,2.58-2.58A2.59,2.59,0,0,1,8.2,8.13a4.31,4.31,0,0,1,4.3,4.31V15H3.89Zm0,0"/><rect class="cls-1" x="0.39" y="19.33" width="29.39" height="5.28"/><path class="cls-1" d="M10.78,26.33v1.72H7.34v1.72h15.5V28.05H19.39V26.33Zm0,0"/>
</symbol>

<symbol id="package" viewBox="0 0 32 32">
<path class="cls-1" d="M27.11,5.12h-24C1.72,5.12.63,5.89.63,6.85V19.4c0,3.46,3.94,6.26,8.81,6.26h11.3c4.86,0,8.81-2.8,8.81-6.26V6.85C29.55,5.89,28.46,5.12,27.11,5.12ZM7.2,22.86C5.75,22.86,4.57,22,4.57,21s1.18-1.87,2.63-1.87S9.83,20,9.83,21,8.65,22.86,7.2,22.86ZM9.83,12.12c0,.26-.3.47-.66.47H8.51c-.36,0-.65.21-.65.46v3.74c0,.26-.3.47-.66.47s-.66-.21-.66-.47V13.05c0-.25-.29-.46-.65-.46H5.23c-.36,0-.66-.21-.66-.47V10.25c0-.26.3-.46.66-.46h.66c.36,0,.65-.21.65-.47V8.38c0-.25.3-.46.66-.46s.66.21.66.46v.94c0,.26.29.47.65.47h.66c.36,0,.66.2.66.46Zm5.26,10.74c-1.45,0-2.63-.84-2.63-1.87s1.18-1.87,2.63-1.87S17.72,20,17.72,21,16.54,22.86,15.09,22.86Zm2.63-7.94c0,.26-.3.47-.66.47H16.4c-.36,0-.66.21-.66.47v.93c0,.26-.29.47-.65.47s-.66-.21-.66-.47v-.93c0-.26-.29-.47-.66-.47h-.65c-.37,0-.66-.21-.66-.47V13.05c0-.25.29-.46.66-.46h.65c.37,0,.66-.21.66-.47V8.38c0-.25.3-.46.66-.46s.65.21.65.46v3.74c0,.26.3.47.66.47h.66c.36,0,.66.21.66.46ZM23,22.86c-1.45,0-2.63-.84-2.63-1.87s1.18-1.87,2.63-1.87S25.6,20,25.6,21,24.43,22.86,23,22.86ZM25.6,14c0,.26-.29.46-.65.46h-.66c-.36,0-.66.21-.66.47v1.87c0,.26-.29.47-.65.47s-.66-.21-.66-.47V14.92c0-.26-.3-.47-.66-.47H21c-.36,0-.65-.2-.65-.46V12.12c0-.26.29-.47.65-.47h.66c.36,0,.66-.21.66-.46V8.38c0-.25.29-.46.66-.46s.65.21.65.46v2.81c0,.25.3.46.66.46H25c.36,0,.65.21.65.47Z"/>
</symbol>

<symbol id="member" viewBox="0 0 32 32">
<path d="M13.86,16.67a3.2,3.2,0,0,1,.6.82l-1.41.26a8.45,8.45,0,0,1,.81-1.08Zm0,0"/><path d="M17.12,14.18a1.25,1.25,0,1,1-1.25-1.25,1.25,1.25,0,0,1,1.25,1.25Zm0,0"/><path d="M22.85,15.36h0a5.68,5.68,0,0,1,.34,1.93v8.16a2.36,2.36,0,0,1-.14.8h1.41A4.57,4.57,0,0,0,29,21.68v-.13A6.18,6.18,0,0,0,22.85,15.36Z"/><path d="M7,25.45V17.29a5.68,5.68,0,0,1,.34-1.93h0a6.19,6.19,0,0,0-6.18,6.19v.13a4.58,4.58,0,0,0,4.57,4.57H7.12A2.36,2.36,0,0,1,7,25.45Z"/><path d="M11.56,26.25h7.06a3,3,0,0,0,3-3V19.45a6.18,6.18,0,0,0-6.18-6.18h-.62A6.17,6.17,0,0,0,8.6,19.45v3.84A3,3,0,0,0,11.56,26.25Z"/><path d="M17.45,11.65a4.84,4.84,0,1,0-4.73,0,4.82,4.82,0,0,0,4.73,0Z"/><path d="M9.78,12.43A3.62,3.62,0,1,0,3,10.49a3.67,3.67,0,0,0,3.5,3.85A3.59,3.59,0,0,0,8,14.05,3.62,3.62,0,0,0,9.78,12.43Z"/><path d="M22.16,14.05a3.59,3.59,0,0,0,1.54.29,3.69,3.69,0,0,0,3.51-3.85,3.62,3.62,0,1,0-5.05,3.56Z"/>
</symbol>

<symbol id="time-attendance" viewBox="0 0 32 32">
<path class="cls-1" d="M29.65,26.75a6.94,6.94,0,0,1-.22.78,3.17,3.17,0,0,1-2.62,2.11,9.08,9.08,0,0,1-1.28.05H5.75a3.28,3.28,0,0,1-3.22-2.83,10,10,0,0,1,0-1.22c0-2.81,0-5.61,0-8.42V16.15c.33.25.64.49,1,.7a8.63,8.63,0,0,0,1.06.62.36.36,0,0,1,.22.37c0,1.36,0,2.72,0,4.08v4.42a1.14,1.14,0,0,0,.42,1,1.33,1.33,0,0,0,.84.24H25.56c.22,0,.45,0,.67,0a1.1,1.1,0,0,0,1.19-1.19c0-1.3,0-2.61,0-3.91q0-3.71,0-7.41c0-1.05,0-2.11,0-3.17,0-.17,0-.22-.22-.22H17.92a9.38,9.38,0,0,0-.46-6.75h3.12a1.48,1.48,0,0,0,0,.21c0,.76,0,1.51,0,2.27a2.26,2.26,0,0,0,1.94,2A2.29,2.29,0,0,0,25.1,7.58a8.3,8.3,0,0,0,0-1.22c0-.48,0-1,0-1.44l.1,0c.53,0,1.06,0,1.58,0a3.27,3.27,0,0,1,2.78,2.77s0,.08,0,.12Z"/><path class="cls-1" d="M9.33.37c.32,0,.64.09,1,.15A8.3,8.3,0,0,1,13.5,1.87a8.49,8.49,0,0,1,2.59,2.84,8.34,8.34,0,0,1,1.08,3.57,8.13,8.13,0,0,1-1,4.54A8.41,8.41,0,0,1,12,16.64a8,8,0,0,1-2.74.67,8.2,8.2,0,0,1-5.76-1.78,8.29,8.29,0,0,1-3.2-5.41A8,8,0,0,1,.83,5.7c.19-.43.39-.85.57-1.28a.21.21,0,0,0,0-.2c-.29-.28-.59-.55-.9-.8A.32.32,0,0,1,.35,3a.34.34,0,0,1,.24-.18c.62-.09,1.24-.18,1.86-.21s1.25,0,1.87,0a.36.36,0,0,1,.4.38,16,16,0,0,1-.15,3.32c0,.11,0,.21-.07.32-.06.28-.28.36-.51.17s-.56-.47-.83-.71L3,6a2.72,2.72,0,0,0-.65,1.14,5.36,5.36,0,0,0-.26,1.49A2,2,0,0,1,2,8.86.57.57,0,0,0,2,9,6.76,6.76,0,0,0,2.78,12a6.54,6.54,0,0,0,2,2.26,6.31,6.31,0,0,0,3,1.23,6.53,6.53,0,0,0,4.71-1,6.59,6.59,0,0,0,2.77-3.83A6.7,6.7,0,0,0,9.23,2.18a6.12,6.12,0,0,0-3.16.56l-.19.08A1.7,1.7,0,0,0,4.49,1.43l1-.45A8.61,8.61,0,0,1,7.9.4L8,.37Z"/><path class="cls-1" d="M7.36,8.89A1.15,1.15,0,0,1,8.67,7.64a.36.36,0,0,0,.26-.09L11.62,5a.46.46,0,0,1,.45-.15.46.46,0,0,1,.23.8L11,7.22c-.36.41-.72.81-1.07,1.23a.41.41,0,0,0-.09.26,1.45,1.45,0,0,1-.33,1,.31.31,0,0,0-.05.17l-.15,2.52a.65.65,0,0,1-.34.64.58.58,0,0,1-.62,0,.48.48,0,0,1-.17-.29L7.91,10a.24.24,0,0,0-.06-.17A1.22,1.22,0,0,1,7.36,8.89Z"/><path class="cls-1" d="M21.74,5.44V3.74a1,1,0,0,1,.63-1,1.16,1.16,0,0,1,1.27.17,1.06,1.06,0,0,1,.35.83C24,4.88,24,6,24,7.17a1.05,1.05,0,0,1-.71,1,1.12,1.12,0,0,1-1.54-1.08V5.44Z"/><path class="cls-1" d="M19.45,16.19H17.22V14h2.23Z"/><path class="cls-1" d="M24,16.19H21.75V14H24Z"/><path class="cls-1" d="M8.16,18.51h2.23v2.21H8.16Z"/><path class="cls-1" d="M14.92,18.51v2.21H12.69V18.51Z"/><path class="cls-1" d="M17.22,20.71v-2.2h2.23v2.2Z"/><path class="cls-1" d="M21.75,20.71v-2.2H24v2.2Z"/><path class="cls-1" d="M8.15,25.24V23.05h2.23a.59.59,0,0,1,0,.13v1.93c0,.09,0,.16-.13.16H8.2Z"/><path class="cls-1" d="M12.68,25.25v-2.2h2.24v2.2Z"/><path class="cls-1" d="M19.45,25.26H17.22V23.05h2.23Z"/><path class="cls-1" d="M21.76,23H24v2.21H21.76Z"/>
</symbol>

<symbol id="fitness-plan" viewBox="0 0 32 32">
<path class="cls-1" d="M27.54,17.7V5.51a2.37,2.37,0,0,0-2.37-2.38h-3a.59.59,0,0,0-.59.59v3A1.19,1.19,0,1,1,20,5.58.6.6,0,0,0,20.41,5V1.34a.6.6,0,0,0-1.19,0V3.13H10.31a.59.59,0,0,0-.6.59v3A1.19,1.19,0,1,1,8.13,5.58.6.6,0,0,0,8.52,5V1.34A.59.59,0,0,0,7.93.75a.6.6,0,0,0-.6.59V3.13H3.77A2.38,2.38,0,0,0,1.39,5.51v19A2.38,2.38,0,0,0,3.77,26.9H18.34a6.54,6.54,0,1,0,9.2-9.2Zm-10.7,5a6.62,6.62,0,0,0,.26,1.79H3.77V10.26h21.4v6.2a6.51,6.51,0,0,0-8.33,6.28Zm9.93-1.36-4.16,4.16a.55.55,0,0,1-.42.17.58.58,0,0,1-.42-.17L20,23.76a.6.6,0,0,1,0-.84.58.58,0,0,1,.84,0l1.36,1.36,3.74-3.74a.6.6,0,0,1,.84,0A.58.58,0,0,1,26.77,21.38Z"/>
</symbol>

<symbol id="payment" viewBox="0 0 32 32">
<path class="cls-1" d="M27.78,24H23.25a5.18,5.18,0,0,1,0-10.35h4.53a.65.65,0,0,0,.65-.64V11A2.59,2.59,0,0,0,26,8.45L22.33,2A2.55,2.55,0,0,0,18.82,1L6.09,8.43H3.85A2.59,2.59,0,0,0,1.26,11V26.54a2.59,2.59,0,0,0,2.59,2.58h22a2.59,2.59,0,0,0,2.59-2.58V24.6A.65.65,0,0,0,27.78,24ZM18.9,8.43,23.13,6l1.41,2.46Zm.57-6.3a1.28,1.28,0,0,1,1-.13,1.31,1.31,0,0,1,.78.6h0l-10,5.82H8.66Z"/><path class="cls-1" d="M27.78,14.9H23.25a3.88,3.88,0,0,0,0,7.76h4.53a1.94,1.94,0,0,0,1.94-1.94V16.84A1.94,1.94,0,0,0,27.78,14.9Zm-4.53,5.17a1.3,1.3,0,1,1,1.29-1.29A1.29,1.29,0,0,1,23.25,20.07Z"/>
</symbol>

<symbol id="accounting" viewBox="0 0 32 32">
<path class="cls-1" d="M12.72,27.66H2.47A1.93,1.93,0,0,1,.54,25.72V3.33a1.93,1.93,0,0,1,2-1.94H9.55A6.38,6.38,0,0,1,10.17.6a1.9,1.9,0,0,1,3,.61.26.26,0,0,0,.29.18h6.93a1.93,1.93,0,0,1,1.94,1.94V9.72H16a3.21,3.21,0,0,0-2.54,1.14,3,3,0,0,0-.76,1.92c0,.73,0,1.46,0,2.19V27.66Zm-5.79-3.2A3.85,3.85,0,1,0,3.1,20.65,3.86,3.86,0,0,0,6.93,24.46ZM6.31,2.68V4.54A1.29,1.29,0,0,0,7.65,5.88h7.61a1.29,1.29,0,0,0,1.3-1.31V2.87a1.21,1.21,0,0,0,0-.19H13.26a2,2,0,0,1-3.65,0Zm0,10.23H5V11H3.74v1.92H2.47V14.2h9V12.91H10.15V10.37H8.86v2.54H7.59V9.09H6.3ZM12.08,2a.65.65,0,0,0-1.29,0,.65.65,0,0,0,1.29,0Z"/><path class="cls-1" d="M29.38,20.29v7.33a1.93,1.93,0,0,1-2,2H15.93A1.92,1.92,0,0,1,14,27.64V12.94A1.92,1.92,0,0,1,16,11H27.42a1.93,1.93,0,0,1,2,2Zm-7.7-2.88H26.1a.65.65,0,0,0,.71-.71c0-.8,0-1.61,0-2.42a.65.65,0,0,0-.71-.72H17.27a.66.66,0,0,0-.71.71v2.4a.67.67,0,0,0,.74.74Zm-3.86,3.2c.22,0,.44,0,.66,0a.58.58,0,0,0,.6-.46,4.36,4.36,0,0,0,0-.81.63.63,0,0,0-.64-.65c-.42,0-.85,0-1.28,0a.64.64,0,0,0-.64.65V20a.64.64,0,0,0,.64.65C17.41,20.62,17.62,20.61,17.82,20.61Zm3.86,0c.21,0,.43,0,.64,0a.57.57,0,0,0,.61-.47,4.36,4.36,0,0,0,0-.81.63.63,0,0,0-.63-.64c-.44,0-.87,0-1.3,0a.57.57,0,0,0-.59.47,4.36,4.36,0,0,0,0,.81.63.63,0,0,0,.63.64C21.25,20.62,21.47,20.61,21.68,20.61Zm3.85,4.49c-.21,0-.43,0-.64,0a.64.64,0,0,0-.64.63c0,.22,0,.43,0,.64a.63.63,0,0,0,.64.65c.42,0,.84,0,1.26,0a.64.64,0,0,0,.66-.65c0-.21,0-.42,0-.62a.63.63,0,0,0-.64-.65C26,25.09,25.74,25.1,25.53,25.1Zm-7.7-1.28h.66a.64.64,0,0,0,.63-.64c0-.21,0-.43,0-.64a.63.63,0,0,0-.64-.64H17.2a.64.64,0,0,0-.64.63v.64a.64.64,0,0,0,.65.65Zm3.85,0h.66a.58.58,0,0,0,.59-.47,4.4,4.4,0,0,0,0-.81.63.63,0,0,0-.63-.64H21a.62.62,0,0,0-.63.64c0,.2,0,.41,0,.62a.64.64,0,0,0,.67.66Zm3.84,0h.66a.64.64,0,0,0,.63-.64q0-.33,0-.66a.62.62,0,0,0-.62-.62h-1.3a.63.63,0,0,0-.64.63c0,.21,0,.43,0,.64a.65.65,0,0,0,.65.65Zm0-3.21c.21,0,.42,0,.64,0a.64.64,0,0,0,.64-.64c0-.21,0-.42,0-.62a.64.64,0,0,0-.65-.66H24.9a.65.65,0,0,0-.65.65V20a.64.64,0,0,0,.66.65C25.12,20.62,25.32,20.61,25.53,20.61ZM17.84,27c.21,0,.43,0,.64,0a.63.63,0,0,0,.64-.65c0-.2,0-.41,0-.62a.63.63,0,0,0-.64-.65c-.42,0-.85,0-1.28,0a.64.64,0,0,0-.64.65v.62a.65.65,0,0,0,.66.65Zm3.84,0h.64a.65.65,0,0,0,.65-.64v-.62a.65.65,0,0,0-.66-.66q-.63,0-1.26,0a.63.63,0,0,0-.64.64c0,.22,0,.43,0,.64A.64.64,0,0,0,21,27C21.25,27,21.47,27,21.68,27Z"/><path class="cls-1" d="M7,18.06v2.55H9.49a2.51,2.51,0,0,1-2.3,2.55A2.56,2.56,0,1,1,7,18.06Z"/>
</symbol>

<symbol id="finance-flow" viewBox="0 0 32 32">
<path class="cls-1" d="M5.18,14.27a2.51,2.51,0,0,0,1.74-.7L9.4,14.81c0,.1,0,.2,0,.3a2.51,2.51,0,0,0,5,0A2.41,2.41,0,0,0,14.14,14l3.36-3.37a2.45,2.45,0,0,0,1.08.25,2.51,2.51,0,0,0,2.51-2.51A2.55,2.55,0,0,0,21,7.67l2.92-2.19a2.56,2.56,0,0,0,1.39.42,2.51,2.51,0,1,0-2.51-2.51,2.6,2.6,0,0,0,.12.74L20,6.32a2.56,2.56,0,0,0-1.39-.42,2.51,2.51,0,0,0-2.51,2.51,2.45,2.45,0,0,0,.25,1.08L13,12.85a2.48,2.48,0,0,0-2.82.46L7.66,12.07a3,3,0,0,0,0-.31,2.51,2.51,0,1,0-2.51,2.51Zm0,0"/><path class="cls-1" d="M28.69,27.79h-.9V10.09A.83.83,0,0,0,27,9.25H23.6a.83.83,0,0,0-.83.84v17.7H21.09V15.11a.84.84,0,0,0-.84-.84H16.91a.84.84,0,0,0-.84.84V27.79H14.39v-6a.84.84,0,0,0-.83-.84H10.21a.84.84,0,0,0-.84.84v6H7.69V18.46a.84.84,0,0,0-.83-.84H3.51a.84.84,0,0,0-.84.84v9.33h-.9a.84.84,0,0,0,0,1.67H28.69a.84.84,0,0,0,0-1.67Zm0,0"/>
</symbol>

<symbol id="store" viewBox="0 0 32 32">
<path class="cls-1" d="M27.22,3.12H5.73a.59.59,0,0,0-.19,0L4.73.5H1.14a.66.66,0,0,0-.66.66V2.47a.66.66,0,0,0,.66.65H2.79l4.1,13.46L5.36,18.37a2.71,2.71,0,0,0-.6,2.56,2.59,2.59,0,0,0,2.51,1.86H26.05a.65.65,0,0,0,.66-.65V20.82a.65.65,0,0,0-.66-.65H7.27l2.08-2.43a2.14,2.14,0,0,0,.13-.19H23.85L29.13,6.32a2.15,2.15,0,0,0,.2-.9V5.23A2.11,2.11,0,0,0,27.22,3.12Z"/><circle class="cls-1" cx="8.35" cy="26.73" r="2.62"/><circle class="cls-1" cx="24.09" cy="26.73" r="2.62"/>
</symbol>

<symbol id="profile" viewBox="0 0 32 32">
<path class="cls-1" d="M19.69,14.81a8.26,8.26,0,0,1-8.06,0,11.06,11.06,0,0,0-7,10.29v.47a16.71,16.71,0,0,0,22.1,0V25.1A11.08,11.08,0,0,0,19.69,14.81ZM15.66.26a7.28,7.28,0,1,0,7.27,7.27A7.28,7.28,0,0,0,15.66.26Z"/>
</symbol>

<symbol id="calendar" viewBox="0 0 32 32">
<path class="cls-1" d="M27.41,19.6V7.51a2.29,2.29,0,0,0-2.28-2.28H23.64V6.37a1.14,1.14,0,0,1-2.28,0V5.23H16.17V6.37a1.14,1.14,0,0,1-2.28,0V5.23H8.76V6.37a1.14,1.14,0,0,1-2.28,0V5.23H5.05A2.28,2.28,0,0,0,2.77,7.51V25.3a2.29,2.29,0,0,0,2.28,2.29H25.13a2.29,2.29,0,0,0,2.28-2.29,1.14,1.14,0,0,1,2.28,0,4.57,4.57,0,0,1-4.56,4.57H5.05A4.57,4.57,0,0,1,.49,25.3V7.51A4.56,4.56,0,0,1,5.05,3H6.48V1.81a1.14,1.14,0,1,1,2.28,0V3h5.13V1.81a1.14,1.14,0,1,1,2.28,0V3h5.19V1.81a1.14,1.14,0,1,1,2.28,0V3h1.49a4.56,4.56,0,0,1,4.56,4.56V19.6a1.14,1.14,0,1,1-2.28,0Zm-18.65-7a1.14,1.14,0,1,0-2.28,0h0a1.14,1.14,0,1,0,2.28,0Zm9.92,0h0a1.14,1.14,0,0,0-2.28,0h0a1.14,1.14,0,1,0,2.28,0Zm5,0a1.14,1.14,0,0,0-2.28,0h0a1.14,1.14,0,1,0,2.28,0Zm-14.88,5a1.14,1.14,0,1,0-2.28,0h0a1.14,1.14,0,1,0,2.28,0ZM7.62,21.43a1.14,1.14,0,0,0-1.14,1.14h0a1.14,1.14,0,1,0,2.28,0h0A1.14,1.14,0,0,0,7.62,21.43Zm6.1-8.79a1.14,1.14,0,0,0-2.28,0h0a1.14,1.14,0,1,0,2.28,0Zm0,5a1.14,1.14,0,0,0-2.28,0h0a1.14,1.14,0,1,0,2.28,0Zm-1.14,3.83a1.14,1.14,0,0,0-1.14,1.14h0a1.14,1.14,0,0,0,2.28,0h0A1.14,1.14,0,0,0,12.58,21.43Zm3.82-2.68a2.29,2.29,0,0,1,2.28-2.29h2.68a2.29,2.29,0,0,1,2.28,2.29v2.68a2.29,2.29,0,0,1-2.28,2.28H18.68a2.29,2.29,0,0,1-2.28-2.28Zm2.28,2.68h2.68V18.75H18.68Z"/>
</symbol>

<symbol id="announcement" viewBox="0 0 32 32">
<path class="cls-1" d="M5.13,8.62a.85.85,0,0,0-.85.85v.86H1.71a.85.85,0,0,0-.86.86v5.14a.86.86,0,0,0,.86.86H4.28V18a.85.85,0,0,0,.85.86h.52L9.1,28.09a1.68,1.68,0,0,0,1.26,1.06,1.37,1.37,0,0,0,.34,0,1.65,1.65,0,0,0,1.21-.51l2.06-2a1.71,1.71,0,0,0,.31-2L11.41,18.9h2.27c.3,0,.59.06.88.09V8.53l-.88.09Z"/><path class="cls-1" d="M28.14,2.17l-.06-.08a.75.75,0,0,0-.36-.27,0,0,0,0,0,0,0s0,0-.05,0a.64.64,0,0,0-.24-.05,1,1,0,0,0-.17,0l-.09,0a.88.88,0,0,0-.38.24s0,0,0,0A18,18,0,0,1,16.28,8.28v11a18,18,0,0,1,10.48,6.21l0,0a.65.65,0,0,0,.21.16l.07.05a.85.85,0,0,0,.35.08,1,1,0,0,0,.29-.05,0,0,0,0,0,0,0,.77.77,0,0,0,.36-.28l.06-.08a.82.82,0,0,0,.14-.44V2.62A.85.85,0,0,0,28.14,2.17Z"/>
</symbol>

<symbol id="settings" viewBox="0 0 32 32">
<path class="cls-1" d="M16.88,14.62A7.47,7.47,0,0,0,16,11.47l.91-.51a8.32,8.32,0,0,0-1.77-2.2l-.69.78A7.43,7.43,0,0,0,11.53,8l.28-1h0a8.29,8.29,0,0,0-2.3-.32L9,6.65l.06,1a7.51,7.51,0,0,0-3.16.92l-.5-.91A8.33,8.33,0,0,0,3.2,9.46l.78.7A7.29,7.29,0,0,0,2.4,13l-1-.29v0a8.34,8.34,0,0,0-.32,2.3c0,.16,0,.33,0,.49l1-.06a7.47,7.47,0,0,0,.92,3.15l-.92.51a8.32,8.32,0,0,0,1.77,2.2l.69-.78a7.45,7.45,0,0,0,2.88,1.59l-.29,1h0a8.34,8.34,0,0,0,2.3.32l.51,0-.07-1a7.38,7.38,0,0,0,3.16-.93l.51.92a8.7,8.7,0,0,0,2.2-1.77L15,20a7.31,7.31,0,0,0,1.59-2.88l1,.29h0a8.29,8.29,0,0,0,.32-2.3c0-.17,0-.33,0-.5ZM7.67,21.54h0l.06-.18Zm6.14-5.26a4.49,4.49,0,0,1-4.3,3.26,4.72,4.72,0,0,1-1.22-.17A4.47,4.47,0,0,1,5,15.07a4.33,4.33,0,0,1,.17-1.22A4.48,4.48,0,0,1,9.5,10.59a4.74,4.74,0,0,1,1.22.18A4.48,4.48,0,0,1,14,15.06,4.72,4.72,0,0,1,13.81,16.28Z"/><path class="cls-1" d="M29.72,11.44l-.7.13A5.21,5.21,0,0,0,28.46,10l.62-.34a5.92,5.92,0,0,0-1.87-2l-.39.59a5.44,5.44,0,0,0-1.48-.7l.19-.67h0a5.66,5.66,0,0,0-1.62-.23,6,6,0,0,0-1.12.11l.14.69A5.27,5.27,0,0,0,21.36,8L21,7.37A5.89,5.89,0,0,0,19,9.23l.58.4a5.18,5.18,0,0,0-.7,1.48l-.67-.2V11a5.61,5.61,0,0,0-.23,1.62,6.72,6.72,0,0,0,.1,1.1l.7-.14a5.15,5.15,0,0,0,.55,1.54l-.62.34h0a5.91,5.91,0,0,0,1.86,2.06l.39-.58a5.44,5.44,0,0,0,1.48.7l-.2.67h0l.06,0a6.11,6.11,0,0,0,1.63.23A5.45,5.45,0,0,0,25,18.4l-.14-.69a5.19,5.19,0,0,0,1.54-.57l.34.62a5.89,5.89,0,0,0,2-1.87l-.58-.39A5.08,5.08,0,0,0,28.92,14l.67.2v0a6,6,0,0,0,.22-1.62A6.09,6.09,0,0,0,29.72,11.44Zm-5.84,4.67a3.58,3.58,0,0,1-1-.13,3.53,3.53,0,0,1-2.57-3.4,3.6,3.6,0,0,1,.13-1A3.53,3.53,0,0,1,23.88,9a3.65,3.65,0,0,1,1,.13,3.54,3.54,0,0,1,2.57,3.4,3.3,3.3,0,0,1-.14,1A3.53,3.53,0,0,1,23.88,16.11Z"/>
</symbol>

</svg>