<svg aria-hidden="true" style="position: absolute; width: 0; height: 0; overflow: hidden;" version="1.1" xmlns="http://www.w3.org/2000/svg" xmlns:xlink="http://www.w3.org/1999/xlink">
<defs>
<symbol id="icon-cart" viewBox="0 0 33 32">
<path fill="#fff" style="fill: var(--color1, #fff)" d="M0.377 26.512c0.155 0.114 0.349 0.182 0.56 0.182 0.318 0 0.6-0.156 0.773-0.396l0.002-0.003c0.319-0.411 0.622-0.839 0.913-1.272 0.559-0.849 1.508-1.402 2.586-1.402 0.056 0 0.111 0.001 0.166 0.004l-0.008-0c6.407 0 12.819 0 19.226 0 0.046 0.003 0.1 0.004 0.154 0.004 0.993 0 1.868-0.507 2.378-1.277l0.007-0.011c0.309-0.432 0.494-0.972 0.494-1.554 0-0.476-0.124-0.924-0.341-1.312l0.007 0.014c-0.479-0.941-1.441-1.575-2.55-1.575-0.010 0-0.020 0-0.030 0h0.002c-0.205 0-0.416 0-0.69 0 0.354-1.141 0.679-2.282 1.015-3.343 1.227-3.994 2.465-8.021 3.674-12.038 0.041-0.362 0.345-0.64 0.715-0.64 0.048 0 0.095 0.005 0.14 0.014l-0.005-0.001c0.93 0.040 1.86 0 2.79 0 0.029 0.003 0.063 0.005 0.098 0.005 0.499 0 0.907-0.394 0.929-0.887l0-0.002c0.004-0.031 0.006-0.067 0.006-0.103 0-0.507-0.411-0.919-0.919-0.919-0.002 0-0.004 0-0.006 0h0c-1.415-0.040-2.853-0.034-4.256 0-0.542 0-0.822 0.382-0.97 0.884-0.456 1.529-0.947 3.047-1.381 4.564-0.042 0.389-0.369 0.69-0.766 0.69-0.046 0-0.091-0.004-0.134-0.012l0.005 0.001q-11.695-0.029-23.391 0c-1.107 0-1.489 0.502-1.141 1.558q1.712 5.597 3.423 11.193c0.223 0.725 0.468 0.907 1.238 0.907h19.163c0.029-0.001 0.063-0.002 0.097-0.002 0.257 0 0.507 0.032 0.745 0.092l-0.021-0.004c0.38 0.121 0.65 0.47 0.65 0.883 0 0.035-0.002 0.069-0.006 0.103l0-0.004c-0.051 0.456-0.423 0.81-0.882 0.833l-0.002 0c-0.274 0-0.57 0-0.833 0q-9.248 0-18.496 0c-0.080-0.005-0.173-0.007-0.267-0.007-1.781 0-3.346 0.922-4.245 2.315l-0.012 0.020c-0.262 0.394-0.571 0.765-0.81 1.141-0.127 0.159-0.205 0.362-0.205 0.584 0 0.32 0.161 0.603 0.407 0.772l0.003 0.002zM21.485 17.908h-6.304v-3.959h8.067q-0.525 1.712-1.050 3.463c-0.032 0.287-0.274 0.509-0.567 0.509-0.042 0-0.082-0.004-0.121-0.013l0.004 0.001zM4.319 13.949h9.071v3.948h-7.291c-0.032 0.006-0.069 0.009-0.106 0.009-0.333 0-0.607-0.253-0.641-0.576l-0-0.003q-0.513-1.672-1.033-3.377zM13.39 8.084v4.045h-9.625l-1.055-3.423c-0.057-0.183-0.091-0.371-0.143-0.57zM25 8.084c-0.046 0.194-0.080 0.354-0.125 0.502l-1.078 3.543h-8.586v-4.045z"></path>
<path fill="#fff" style="fill: var(--color1, #fff)" d="M16.545 28.257c0.035 2.043 1.7 3.686 3.748 3.686 2.070 0 3.748-1.678 3.748-3.748s-1.678-3.748-3.748-3.748h-0c-2.072 0.006-3.749 1.687-3.749 3.76 0 0.018 0 0.036 0 0.054l-0-0.003zM18.45 28.257c0.007-1.013 0.829-1.831 1.843-1.831 1.018 0 1.843 0.825 1.843 1.843 0 1.012-0.815 1.833-1.825 1.843h-0.001c-0.003 0-0.008 0-0.012 0-1.021 0-1.848-0.828-1.848-1.848 0-0.012 0-0.024 0-0.036l-0 0.002z"></path>
<path fill="#fff" style="fill: var(--color1, #fff)" d="M3.161 28.223c0 2.086 1.691 3.777 3.777 3.777s3.777-1.691 3.777-3.777c0-2.086-1.691-3.777-3.777-3.777-0.004 0-0.008 0-0.012 0h0.001c-2.072 0.029-3.743 1.704-3.765 3.775l-0 0.002zM5.078 28.223c0.016-1.025 0.841-1.852 1.864-1.871l0.002-0c0.985 0.056 1.762 0.869 1.762 1.863s-0.777 1.806-1.758 1.863l-0.005 0c-1.016-0.015-1.837-0.829-1.865-1.84l-0-0.003z"></path>
</symbol>
<symbol id="icon-delete" viewBox="0 0 21 32">
<path fill="#a7a9ac" style="fill: var(--color2, #a7a9ac)" d="M0 5.926l21.429-1.762v-1.89l-6.406 0.545v-0.833c-0.061-1.136-0.997-2.034-2.143-2.034-0.16 0-0.316 0.018-0.466 0.051l0.014-0.003-4.068 0.352c-1.103 0.099-1.961 1.018-1.961 2.138 0 0.059 0.002 0.118 0.007 0.176l-0-0.008v0.833l-6.406 0.545zM7.816 2.531c-0.002-0.020-0.003-0.043-0.003-0.067 0-0.368 0.282-0.67 0.641-0.702l0.003-0 4.1-0.32c0.020-0.002 0.043-0.003 0.067-0.003 0.368 0 0.67 0.282 0.702 0.641l0 0.003v0.833l-5.51 0.448z"></path>
<path fill="#a7a9ac" style="fill: var(--color2, #a7a9ac)" d="M0 6.054v1.922h1.089v22.615c0 0.796 0.645 1.441 1.441 1.441v0h16.4c0.796 0 1.441-0.645 1.441-1.441v0-22.615h1.057v-1.922z"></path>
</symbol>
<symbol id="icon-edit" viewBox="0 0 32 32">
<path fill="#1a1a1a" style="fill: var(--color3, #1a1a1a)" d="M29.542 20.136c-0.444 0-0.804 0.36-0.804 0.804v0 7.090c0 1.331-1.079 2.411-2.411 2.411v0h-22.357c-1.331 0-2.411-1.079-2.411-2.411v0-20.75c-0.003-0.042-0.004-0.092-0.004-0.142 0-1.331 1.079-2.411 2.411-2.411 0.001 0 0.003 0 0.004 0h7.090c0.444 0 0.804-0.36 0.804-0.804s-0.36-0.804-0.804-0.804h-7.090c-0.001 0-0.003 0-0.005 0-2.193 0-3.97 1.778-3.97 3.97 0 0.066 0.002 0.133 0.005 0.198l-0-0.009v20.75c0 2.193 1.778 3.97 3.97 3.97h22.357c2.193 0 3.97-1.778 3.97-3.97v0-7.090c0-0.444-0.36-0.804-0.804-0.804v0z"></path>
<path fill="#00bc00" style="fill: var(--color4, #00bc00); stroke: var(--color3, #1a1a1a)" stroke="#1a1a1a" stroke-linejoin="miter" stroke-linecap="butt" stroke-miterlimit="10" stroke-width="3.5451" d="M12.479 15.976l11.628-11.628 3.734 3.734-11.628 11.628zM12.479 15.976"></path>
<path fill="#00bcd4" style="fill: var(--color5, #00bcd4); stroke: var(--color3, #1a1a1a)" stroke="#1a1a1a" stroke-linejoin="miter" stroke-linecap="butt" stroke-miterlimit="10" stroke-width="3.5451" d="M10.541 21.601l4.16-1.134-2.978-2.978zM10.541 21.601"></path>
<path fill="#00bcd4" style="fill: var(--color5, #00bcd4); stroke: var(--color3, #1a1a1a)" stroke="#1a1a1a" stroke-linejoin="miter" stroke-linecap="butt" stroke-miterlimit="10" stroke-width="3.5451" d="M28.88 2.363c-0.361-0.368-0.863-0.596-1.418-0.596s-1.057 0.228-1.418 0.596l-0 0-0.804 0.851 3.734 3.734 0.851-0.851c0.368-0.361 0.596-0.863 0.596-1.418s-0.228-1.057-0.596-1.418l-0-0zM28.88 2.363"></path>
</symbol>
<symbol id="icon-like" viewBox="0 0 31 32">
<path fill="#a7a9ac" style="fill: var(--color2, #a7a9ac)" d="M30.995 30.099l-8.782-0.070 0.134-16.661 8.782 0.070-0.134 16.661z"></path>
<path fill="#a7a9ac" style="fill: var(--color2, #a7a9ac)" d="M1.051 18.595v0-2.879c0.012-1.511 1.24-2.732 2.752-2.732 0.007 0 0.015 0 0.022 0h7.731s-3.005-4.349-2.984-7.165 0.168-5.82 3.866-5.82c0 0 1.345 0.84 1.303 4.622s7.144 8.72 7.144 8.72l-0.147 17.208c-1.079 0.89-2.475 1.429-3.997 1.429-0.021 0-0.041-0-0.062-0l0.003 0h-11.199c-1.572-0.024-2.837-1.303-2.837-2.878 0-0.008 0-0.015 0-0.022v0.001-1.765c-0 0-0 0-0 0-0.928 0-1.681-0.753-1.681-1.681 0-0.007 0-0.015 0-0.022v0.001-2.101c-0.532-0.023-0.956-0.454-0.967-0.986l-0-0.001v-2.942c0.011-0.548 0.458-0.988 1.008-0.988 0.015 0 0.030 0 0.044 0.001l-0.002-0z"></path>
</symbol>
<symbol id="icon-rating" viewBox="0 0 34 32">
<path fill="#f7941d" style="fill: var(--color6, #f7941d)" d="M16.834 0l5.184 10.547 11.625 1.668-8.417 8.212 2.002 11.573-10.393-5.466-10.419 5.466 2.002-11.573-8.417-8.212 11.625-1.668 5.209-10.547z"></path>
</symbol>
<symbol id="icon-select-aerow" viewBox="0 0 32 32">
<path fill="#fff" style="fill: var(--color1, #fff)" opacity="0.2" d="M32 16c0 8.837-7.163 16-16 16s-16-7.163-16-16c0-8.837 7.163-16 16-16s16 7.163 16 16z"></path>
<path fill="#fff" style="fill: var(--color1, #fff)" d="M16 27.018l9.564-16.509h-19.091l9.527 16.509z"></path>
</symbol>
<symbol id="icon-smily" viewBox="0 0 53 32">
<path fill="#fff" style="fill: var(--color1, #fff)" d="M16.585 8.292c0 4.58-3.713 8.292-8.292 8.292s-8.292-3.713-8.292-8.292c0-4.58 3.713-8.292 8.292-8.292s8.292 3.713 8.292 8.292z"></path>
<path fill="#fff" style="fill: var(--color1, #fff)" d="M53.41 8.292c0 4.58-3.713 8.292-8.292 8.292s-8.292-3.713-8.292-8.292c0-4.58 3.713-8.292 8.292-8.292s8.292 3.713 8.292 8.292z"></path>
<path fill="#fff" style="fill: var(--color1, #fff)" d="M46.413 11.050c-0.313 0-0.564 0-0.877 0v0.125c0 10.204-8.272 18.475-18.475 18.475s-18.475-8.272-18.475-18.475v0 0c-0.884-0.099-1.672-0.246-2.439-0.444l0.12 0.026v0.334c0 11.536 9.352 20.888 20.888 20.888s20.888-9.352 20.888-20.888v0-0.188c-0.606 0.042-1.086 0.146-1.629 0.146z"></path>
</symbol>
<symbol id="icon-support" viewBox="0 0 33 32">
<path fill="#39b54a" style="fill: var(--color7, #39b54a)" d="M28.182 5.598c-2.186-2.195-5.029-3.733-8.21-4.295l-0.093-0.014c-0.371-0.78-1.153-1.31-2.058-1.31-1.255 0-2.272 1.017-2.272 2.272s1.017 2.272 2.272 2.272c0.719 0 1.36-0.334 1.776-0.855l0.003-0.005c6.128 1.154 10.702 6.465 10.702 12.844 0 7.212-5.846 13.058-13.058 13.058-6.606 0-12.067-4.906-12.937-11.274l-0.008-0.068h1.663l-2.982-5.166-2.982 5.166h1.869c0.881 7.784 7.429 13.778 15.376 13.778 4.271 0 8.138-1.731 10.938-4.53v0c2.798-2.799 4.529-6.666 4.529-10.937s-1.731-8.137-4.529-10.937l0 0z"></path>
<path fill="#d7df23" style="fill: var(--color8, #d7df23)" opacity="0.5" d="M17.249 31.143c-8.066 0-14.604-6.538-14.604-14.604s6.538-14.604 14.604-14.604c8.066 0 14.604 6.538 14.604 14.604v0c-0.029 8.054-6.55 14.575-14.601 14.604h-0.003zM17.249 2.616c-7.689 0-13.923 6.233-13.923 13.923s6.233 13.923 13.923 13.923c7.689 0 13.923-6.233 13.923-13.923v0c0-7.689-6.233-13.923-13.923-13.923v0z"></path>
</symbol>
<symbol id="icon-trash" viewBox="0 0 32 32">
<path fill="#f43122" style="fill: var(--color9, #f43122)" d="M24.013 2.68v24.528c0 1.167-0.946 2.113-2.113 2.113v0l-19.221-1.031c-0.016 0-0.034 0.001-0.052 0.001-1.167 0-2.113-0.946-2.113-2.113 0-0.018 0-0.037 0.001-0.055l-0 0.003v-18.654h4.638c0.065 0.007 0.141 0.011 0.217 0.011 1.167 0 2.113-0.946 2.113-2.113 0-0.077-0.004-0.152-0.012-0.227l0.001 0.009v-4.638h14.428c1.167 0 2.113 0.946 2.113 2.113v0z"></path>
<path fill="#f43122" style="fill: var(--color9, #f43122)" d="M21.9 0.515h-1.597c1.167 0 2.113 0.946 2.113 2.113v24.58c0 1.167-0.946 2.113-2.113 2.113v0h1.597c1.167 0 2.113-0.946 2.113-2.113v0-24.528c0-0.015 0.001-0.033 0.001-0.052 0-1.167-0.946-2.113-2.113-2.113-0 0-0 0-0.001 0h0z"></path>
<path fill="#3f51b5" style="fill: var(--color10, #3f51b5)" d="M26.126 4.792v23.498c0 1.167-0.946 2.113-2.113 2.113v0h-19.221c-1.167 0-2.113-0.946-2.113-2.113v0h19.221c1.167 0 2.113-0.946 2.113-2.113v0-23.498c1.167 0 2.113 0.946 2.113 2.113v0z"></path>
<path fill="#9e9e9e" style="fill: var(--color11, #9e9e9e)" d="M27.311 31.485h-10.873c-0.505-0.045-0.907-0.43-0.978-0.922l-0.001-0.006-2.113-17.211h17.056l-2.010 17.211c-0.078 0.527-0.528 0.928-1.071 0.928-0.004 0-0.008-0-0.012-0h0.001z"></path>
<path fill="#707070" style="fill: var(--color12, #707070)" d="M28.805 13.346l-2.010 17.211c-0.076 0.514-0.504 0.907-1.029 0.927l-0.002 0h1.546c0.003 0 0.007 0 0.011 0 0.543 0 0.993-0.4 1.070-0.922l0.001-0.006 2.010-17.211z"></path>
<path fill="#607d8b" style="fill: var(--color13, #607d8b)" d="M13.346 10.667h17.056c0.598 0 1.082 0.484 1.082 1.082v0 0.515c0 0.598-0.484 1.082-1.082 1.082v0h-17.056c-0.598 0-1.082-0.484-1.082-1.082v0-0.515c0-0.598 0.484-1.082 1.082-1.082v0z"></path>
<path fill="#37474f" style="fill: var(--color14, #37474f)" d="M30.403 10.667h-1.597c0.598 0 1.082 0.484 1.082 1.082v0 0.515c0 0.598-0.484 1.082-1.082 1.082v0h1.597c0.598 0 1.082-0.484 1.082-1.082v0-0.515c0-0.598-0.484-1.082-1.082-1.082v0z"></path>
<path fill="#607d8b" style="fill: var(--color13, #607d8b)" d="M17.623 7.987h8.502c0.598 0 1.082 0.484 1.082 1.082v0 1.597h-10.667v-1.597c0-0.598 0.484-1.082 1.082-1.082v0z"></path>
<path fill="#37474f" style="fill: var(--color14, #37474f)" d="M26.126 7.987h-1.597c0.046-0.007 0.1-0.011 0.155-0.011 0.598 0 1.082 0.484 1.082 1.082 0 0.004-0 0.008-0 0.012v-0.001 1.597h1.597v-1.597c0-0.598-0.484-1.082-1.082-1.082v0z"></path>
<path fill="#f43122" style="fill: var(--color9, #f43122)" d="M7.472 0.515v4.638c0.007 0.065 0.011 0.141 0.011 0.217 0 1.167-0.946 2.113-2.113 2.113-0.077 0-0.152-0.004-0.227-0.012l0.009 0.001h-4.638z"></path>
<path fill="#f5f5f5" style="fill: var(--color15, #f5f5f5)" d="M18.654 3.195h-3.195c-0.299 0-0.541-0.242-0.541-0.541s0.242-0.541 0.541-0.541v0h3.195c0.299 0 0.541 0.242 0.541 0.541s-0.242 0.541-0.541 0.541v0z"></path>
<path fill="#f5f5f5" style="fill: var(--color15, #f5f5f5)" d="M21.9 3.195h-1.288c-0.299 0-0.541-0.242-0.541-0.541s0.242-0.541 0.541-0.541v0h1.082c0.299 0 0.541 0.242 0.541 0.541s-0.242 0.541-0.541 0.541v0z"></path>
<path fill="#1a1a1a" style="fill: var(--color3, #1a1a1a)" d="M30.403 10.306h-2.628v-1.237c-0.008-0.691-0.453-1.275-1.071-1.491l-0.011-0.003v-2.783c-0.006-1.311-0.952-2.4-2.199-2.626l-0.016-0.002c-0.246-1.225-1.301-2.138-2.574-2.164l-0.003-0h-14.428c-0.054-0.021-0.116-0.033-0.18-0.033s-0.127 0.012-0.184 0.034l0.004-0.001-7.111 7.111c-0.021 0.054-0.033 0.116-0.033 0.18s0.012 0.127 0.034 0.184l-0.001-0.004v18.654c0.001 1.297 0.923 2.378 2.147 2.625l0.017 0.003c0.25 1.241 1.331 2.163 2.628 2.164h10.306c0.219 0.629 0.804 1.074 1.493 1.082h10.719c0.002 0 0.005 0 0.008 0 0.828 0 1.509-0.63 1.589-1.436l0.001-0.007 2.010-16.747c0.651-0.202 1.118-0.791 1.134-1.493l0-0.002v-0.515c-0.055-0.837-0.748-1.495-1.594-1.495-0.019 0-0.038 0-0.058 0.001l0.003-0zM26.126 8.709c0.285 0 0.515 0.231 0.515 0.515v0 1.082h-9.585v-1.237c0-0.285 0.231-0.515 0.515-0.515v0zM25.765 4.792v2.68h-1.237v-4.174c0.694 0.164 1.207 0.766 1.237 1.491l0 0.003zM6.957 1.804v3.349c0.010 0.067 0.015 0.143 0.015 0.222 0 0.882-0.715 1.597-1.597 1.597-0.078 0-0.155-0.006-0.23-0.016l0.009 0.001h-3.349zM1.082 26.126v-18.139h4.071c0.048 0.003 0.103 0.005 0.159 0.005 1.48 0 2.68-1.2 2.68-2.68 0-0.056-0.002-0.112-0.005-0.167l0 0.008v-4.071h13.913c0.882 0 1.597 0.715 1.597 1.597v0 4.792h-5.874c-0.882 0-1.597 0.715-1.597 1.597v0 1.237h-2.68c-0.882 0-1.597 0.715-1.597 1.597v0 0.515c0.016 0.703 0.483 1.293 1.122 1.491l0.011 0.003 1.649 13.965h-11.852c-0.882 0-1.597-0.715-1.597-1.597v0zM3.298 28.805h11.337v1.082h-9.842c-0.691-0.008-1.275-0.453-1.491-1.071l-0.003-0.011zM27.878 30.454c-0.026 0.263-0.246 0.467-0.513 0.467-0.019 0-0.038-0.001-0.056-0.003l0.002 0h-10.873c-0.001 0-0.002 0-0.003 0-0.266 0-0.486-0.202-0.513-0.462l-0-0.002-1.958-16.593h15.871zM30.918 12.264c0 0.285-0.231 0.515-0.515 0.515v0h-17.056c-0.285 0-0.515-0.231-0.515-0.515v0-0.515c0-0.285 0.231-0.515 0.515-0.515v0h17.056c0.285 0 0.515 0.231 0.515 0.515v0z"></path>
<path fill="#1a1a1a" style="fill: var(--color3, #1a1a1a)" d="M21.9 29.887c0.285 0 0.515-0.231 0.515-0.515v0-13.913c0-0.299-0.242-0.541-0.541-0.541s-0.541 0.242-0.541 0.541v13.913c0 0.285 0.231 0.515 0.515 0.515v0z"></path>
<path fill="#1a1a1a" style="fill: var(--color3, #1a1a1a)" d="M18.654 29.887v0c0.263-0.026 0.467-0.246 0.467-0.513 0-0.019-0.001-0.038-0.003-0.056l0 0.002-1.494-13.861c0-0.299-0.242-0.541-0.541-0.541s-0.541 0.242-0.541 0.541v0l1.597 13.861c0.027 0.262 0.246 0.464 0.513 0.464 0.001 0 0.002 0 0.003 0h-0z"></path>
<path fill="#1a1a1a" style="fill: var(--color3, #1a1a1a)" d="M25.043 29.887v0c0.061 0.027 0.132 0.043 0.206 0.043 0.282 0 0.51-0.226 0.515-0.506v-0l1.443-13.965c0-0.299-0.242-0.541-0.541-0.541s-0.541 0.242-0.541 0.541v0l-1.597 13.81c-0.002 0.016-0.003 0.035-0.003 0.054 0 0.267 0.204 0.487 0.464 0.513l0.002 0z"></path>
</symbol>
<symbol id="icon-unlike" viewBox="0 0 31 32">
<path fill="#a7a9ac" style="fill: var(--color2, #a7a9ac)" d="M0.131 1.912l8.782 0.071-0.134 16.661-8.782-0.070 0.134-16.661z"></path>
<path fill="#a7a9ac" style="fill: var(--color2, #a7a9ac)" d="M30.088 13.405v0 2.858c-0.056 1.476-1.266 2.651-2.751 2.651-0.052 0-0.104-0.001-0.156-0.004l0.007 0h-7.732s3.11 4.412 3.089 7.228-0.168 5.841-3.866 5.82c0 0-1.345-0.84-1.303-4.622s-7.144-8.699-7.144-8.699l0.147-17.208c1.079-0.89 2.475-1.429 3.997-1.429 0.021 0 0.041 0 0.062 0l-0.003-0h11.199c1.572 0.024 2.837 1.303 2.837 2.878 0 0.007-0 0.015-0 0.022v-0.001 1.744c0 0 0 0 0 0 0.928 0 1.681 0.753 1.681 1.681 0 0.007-0 0.015-0 0.022v-0.001 2.059c0 0 0 0 0 0 0.557 0 1.009 0.452 1.009 1.009 0 0.007-0 0.015-0 0.022l0-0.001v2.963c0 0.001 0 0.001 0 0.002 0 0.557-0.452 1.009-1.009 1.009-0.022 0-0.044-0.001-0.066-0.002l0.003 0z"></path>
</symbol>

<symbol id="delete" viewBox="0 0 31 32">
<path fill="#ff4439" style="fill: var(--color1, #ff4439)" d="M24.036 28.242c-0.037 0.326-0.311 0.576-0.644 0.576-0 0-0 0-0 0h-16.249c-0.335-0.001-0.609-0.255-0.643-0.581l-0-0.003-0.876-20.166h19.29z"></path>
<path fill="#ff4439" style="fill: var(--color1, #ff4439)" d="M25.637 5.328h-4.532v-1.087c0-0.359-0.291-0.649-0.649-0.649v0h-10.375c0 0 0 0 0 0-0.358 0-0.647 0.29-0.647 0.647 0 0.001 0 0.001 0 0.002v-0 1.087h-4.54c-0.358 0.001-0.647 0.291-0.647 0.649 0 0 0 0 0 0v0 0.647c0 0.001 0 0.001 0 0.002 0 0.358 0.29 0.647 0.647 0.647 0 0 0 0 0 0h20.744c0.359 0 0.649-0.291 0.649-0.649v0-0.647c0-0.359-0.291-0.649-0.649-0.649v0z"></path>
</symbol>
<symbol id="view-all" viewBox="0 0 32 32">
<path fill="#00bcd4" style="fill: var(--color2, #00bcd4)" stroke-linejoin="miter" stroke-linecap="butt" stroke-miterlimit="10" stroke-width="0.5" stroke="#000" d="M14.313 26.271c0 0.486-0.394 0.881-0.881 0.881v0h-3.875c-1.946-0.001-3.524-1.578-3.526-3.524v-15.503c0.002-1.945 1.579-3.522 3.524-3.524h10.832c1.945 0.002 3.522 1.579 3.524 3.524v8.411c-0.013 0.477-0.402 0.858-0.881 0.858s-0.868-0.381-0.881-0.857l-0-0.001v-8.411c-0.001-0.972-0.789-1.76-1.762-1.762h-10.832c-0.972 0.001-1.76 0.789-1.762 1.762v15.503c0.001 0.972 0.789 1.76 1.762 1.762h3.875c0.001 0 0.001 0 0.002 0 0.486 0 0.881 0.394 0.881 0.881 0 0 0 0 0 0.001v-0zM19.506 9.884h-9.074c-0.476 0.013-0.858 0.402-0.858 0.881s0.381 0.868 0.857 0.881l0.001 0h9.074c0.007 0 0.015 0 0.023 0 0.487 0 0.881-0.395 0.881-0.881s-0.395-0.881-0.881-0.881c-0.008 0-0.016 0-0.025 0l0.001-0zM20.387 14.289c-0-0.486-0.395-0.881-0.881-0.881h-9.074c-0.476 0.013-0.858 0.402-0.858 0.881s0.381 0.868 0.857 0.881l0.001 0h9.074c0.487 0 0.881-0.395 0.881-0.881v0zM10.431 16.933c-0.476 0.013-0.858 0.402-0.858 0.881s0.381 0.868 0.857 0.881l0.001 0h4.631c0.007 0 0.015 0 0.023 0 0.487 0 0.881-0.395 0.881-0.881s-0.395-0.881-0.881-0.881c-0.008 0-0.016 0-0.025 0l0.001-0zM26.090 23.386c-0.031 0.044-0.137 0.194-0.203 0.277-0.295 0.371-0.986 1.24-1.947 2.007-1.232 0.983-2.5 1.482-3.769 1.482s-2.537-0.5-3.769-1.482c-0.961-0.767-1.652-1.636-1.947-2.007-0.063-0.083-0.172-0.234-0.203-0.277-0.101-0.141-0.161-0.317-0.161-0.507 0-0.188 0.059-0.363 0.16-0.506l-0.002 0.003c0.031-0.044 0.137-0.194 0.203-0.277 0.295-0.371 0.986-1.24 1.947-2.007 1.232-0.983 2.5-1.482 3.769-1.482s2.537 0.5 3.769 1.482c0.961 0.767 1.652 1.636 1.947 2.007 0.066 0.083 0.172 0.234 0.203 0.277 0.1 0.141 0.16 0.317 0.16 0.507s-0.060 0.366-0.162 0.509l0.002-0.003zM24.253 22.879c-1.401-1.667-2.773-2.511-4.081-2.511s-2.68 0.844-4.081 2.511c1.401 1.666 2.773 2.511 4.081 2.511s2.68-0.844 4.081-2.511zM20.216 21.205c-0 0-0 0-0.001 0-0.925 0-1.674 0.75-1.674 1.674s0.75 1.674 1.674 1.674c0.925 0 1.674-0.75 1.674-1.674v0c0-0 0-0 0-0.001 0-0.924-0.749-1.674-1.674-1.674v0zM20.216 21.205"></path>
</symbol>
<symbol id="view" viewBox="0 0 32 32">
<path fill="#727272" style="fill: var(--color3, #727272)" d="M5.883 10.581c0.479 0 0.867-0.388 0.867-0.867v-2.993h2.994c0.479 0 0.867-0.388 0.867-0.867s-0.388-0.867-0.867-0.867h-3.861c-0.479 0-0.867 0.388-0.867 0.867v0 3.861c0 0.479 0.389 0.867 0.867 0.867h0z"></path>
<path fill="#727272" style="fill: var(--color3, #727272)" d="M22.313 6.721h3v2.993c0 0.479 0.388 0.867 0.867 0.867s0.867-0.388 0.867-0.867v-3.861c0-0.479-0.388-0.867-0.867-0.867v0h-3.867c-0.479 0-0.867 0.388-0.867 0.867s0.388 0.867 0.867 0.867v0z"></path>
<path fill="#727272" style="fill: var(--color3, #727272)" d="M9.744 25.28h-2.994v-2.996c0-0.479-0.388-0.867-0.867-0.867s-0.867 0.388-0.867 0.867v0 3.863c0 0.479 0.389 0.867 0.867 0.867h3.861c0.479 0 0.867-0.388 0.867-0.867s-0.388-0.867-0.867-0.867v0z"></path>
<path fill="#727272" style="fill: var(--color3, #727272)" d="M26.177 21.417c-0.478 0.001-0.864 0.389-0.864 0.867 0 0 0 0 0 0.001v-0 2.996h-3c-0.479 0-0.867 0.388-0.867 0.867s0.388 0.867 0.867 0.867h3.863c0.479-0 0.867-0.389 0.867-0.867v-3.863c0-0.479-0.388-0.867-0.867-0.867v0z"></path>
<path fill="#1cbcd4" style="fill: var(--color4, #1cbcd4)" d="M12.943 16c0 0.001 0 0.001 0 0.002 0 1.705 1.382 3.087 3.087 3.087s3.087-1.382 3.087-3.087c0-1.705-1.382-3.087-3.087-3.087-0.001 0-0.001 0-0.002 0h0c-1.703 0.003-3.082 1.383-3.085 3.085v0zM17.381 16c0 0.001 0 0.001 0 0.002 0 0.747-0.605 1.352-1.352 1.352s-1.352-0.605-1.352-1.352c0-0.746 0.604-1.351 1.35-1.352h0c0 0 0 0 0.001 0 0.746 0 1.352 0.604 1.354 1.35v0z"></path>
<path fill="#1cbcd4" style="fill: var(--color4, #1cbcd4)" d="M8.361 11.854c-1.543 1.063-3.346 2.789-3.346 4.144s1.803 3.081 3.346 4.146c1.357 0.938 4.158 2.506 7.667 2.506s6.313-1.57 7.669-2.506c1.544-1.063 3.348-2.789 3.348-4.146s-1.803-3.079-3.348-4.144c-1.358-0.938-4.159-2.507-7.669-2.507s-6.309 1.571-7.667 2.507zM6.75 16c0.043-0.268 0.671-1.313 2.297-2.504-0.276 0.746-0.436 1.607-0.436 2.505s0.16 1.76 0.453 2.557l-0.017-0.051c-1.625-1.188-2.256-2.239-2.298-2.506zM23.009 13.494c1.625 1.188 2.257 2.237 2.299 2.505-0.043 0.268-0.672 1.317-2.301 2.507 0.276-0.746 0.436-1.607 0.436-2.506s-0.16-1.76-0.453-2.557l0.017 0.051zM21.709 16c-0.001 1.664-0.716 3.161-1.856 4.201l-0.005 0.004c-1.133 0.45-2.445 0.711-3.818 0.711s-2.686-0.261-3.89-0.736l0.072 0.025c-1.147-1.042-1.864-2.54-1.864-4.205 0-1.667 0.719-3.166 1.863-4.204l0.005-0.004c1.132-0.449 2.443-0.71 3.815-0.71s2.683 0.261 3.887 0.735l-0.072-0.025c1.147 1.043 1.864 2.541 1.864 4.207 0 0 0 0.001 0 0.001v-0z"></path>
</symbol>
</defs>
</svg>
