<svg id="Objects" xmlns="http://www.w3.org/2000/svg" viewBox="0 0 100 100"><defs><style>.cls-1{fill:#45bbea;}.cls-2{fill:#45bbea;}</style></defs><title>78</title><path class="cls-1" d="M82.81,19.83A46.28,46.28,0,0,0,19.27,18.2C2.62,33.28-.8,58.69,11.45,77.38A46,46,0,0,0,69.24,94.32,45.19,45.19,0,0,0,91.86,72,44.46,44.46,0,0,0,96.2,52.46H86A35.23,35.23,0,0,1,75.48,77.68a34.7,34.7,0,0,1-25.3,10.51A35.78,35.78,0,1,1,75.66,27.42L60.83,42h35.3V6.35ZM45.16,32a4,4,0,0,0-.08.55c0,8.07,0,16.15,0,24.22A1.81,1.81,0,0,0,45.94,58c4.82,2.91,9.66,5.76,14.5,8.63l6.37,3.77,3.9-6.53-1.2-.74C64.26,60,59,56.89,53.75,53.81a1.77,1.77,0,0,1-1-1.78c0-6.16,0-12.31,0-18.47V32Z"/><path class="cls-2" d="M82.81,19.83,96.13,6.35V42H60.83L75.66,27.42A35.75,35.75,0,1,0,50.18,88.19a34.7,34.7,0,0,0,25.3-10.51A35.23,35.23,0,0,0,86,52.46H96.2A44.46,44.46,0,0,1,91.86,72,45.19,45.19,0,0,1,69.24,94.32,46,46,0,0,1,11.45,77.38C-.8,58.69,2.62,33.28,19.27,18.2A46.28,46.28,0,0,1,82.81,19.83Z"/><path class="cls-1" d="M45.16,32h7.59v1.55c0,6.16,0,12.31,0,18.47a1.77,1.77,0,0,0,1,1.78C59,56.89,64.26,60,69.51,63.14l1.2.74-3.9,6.53-6.37-3.77c-4.84-2.87-9.68-5.72-14.5-8.63a1.81,1.81,0,0,1-.83-1.23c0-8.07,0-16.15,0-24.22A4,4,0,0,1,45.16,32Z"/></svg>