<svg id="Layer_1" data-name="Layer 1" xmlns="http://www.w3.org/2000/svg" viewBox="0 0 80 80"><defs><style>.cls-1{fill:#737374;}.cls-2{fill:#22bcd4;}</style></defs><title>icon</title><path class="cls-1" d="M3.63,20.45a3.13,3.13,0,0,0,3.12-3.13V6.53H17.54a3.13,3.13,0,0,0,0-6.25H3.63A3.13,3.13,0,0,0,.5,3.41V17.32a3.13,3.13,0,0,0,3.13,3.13Zm0,0"/><path class="cls-1" d="M62.83,6.53H73.62V17.32a3.13,3.13,0,0,0,6.26,0V3.41A3.13,3.13,0,0,0,76.75.28H62.83a3.13,3.13,0,1,0,0,6.25Zm0,0"/><path class="cls-1" d="M17.54,73.41H6.75V62.61a3.13,3.13,0,0,0-6.25,0V76.53a3.13,3.13,0,0,0,3.13,3.13H17.54a3.13,3.13,0,0,0,0-6.25Zm0,0"/><path class="cls-1" d="M76.75,59.49a3.13,3.13,0,0,0-3.13,3.12v10.8H62.83a3.13,3.13,0,1,0,0,6.25H76.75a3.13,3.13,0,0,0,3.13-3.13V62.61a3.13,3.13,0,0,0-3.13-3.12Zm0,0"/><path class="cls-2" d="M29.06,40A11.13,11.13,0,1,0,40.18,28.85,11.13,11.13,0,0,0,29.06,40Zm16,0a4.87,4.87,0,1,1-4.88-4.87A4.88,4.88,0,0,1,45.06,40Zm0,0"/><path class="cls-2" d="M12.56,25C7,28.87.5,35.08.5,40S7,51.07,12.56,54.9c4.89,3.38,15,9,27.62,9s22.74-5.65,27.63-9c5.57-3.83,12.07-10,12.07-14.93S73.38,28.87,67.81,25c-4.89-3.37-15-9-27.63-9s-22.73,5.66-27.62,9ZM6.75,40c.16-1,2.42-4.75,8.28-9A26.75,26.75,0,0,0,15,49c-5.86-4.29-8.12-8.07-8.28-9Zm58.58-9c5.87,4.28,8.14,8.06,8.29,9-.15,1-2.42,4.74-8.29,9a26.75,26.75,0,0,0,0-18.06Zm-4.68,9A20.52,20.52,0,0,1,54,55.12a39.78,39.78,0,0,1-13.77,2.56,39.71,39.71,0,0,1-13.75-2.56,20.44,20.44,0,0,1,0-30.31,39.65,39.65,0,0,1,13.74-2.56,39.62,39.62,0,0,1,13.75,2.56A20.44,20.44,0,0,1,60.65,40Zm0,0"/></svg>