<svg id="Layer_1" data-name="Layer 1" xmlns="http://www.w3.org/2000/svg" viewBox="0 0 80 80"><defs><style>.cls-1{fill:#cacaca;}</style></defs><title>user</title><path class="cls-1" d="M57.46,47.13a14.66,14.66,0,0,0-14.14-4.92,16.92,16.92,0,0,1-6.55,0,14.65,14.65,0,0,0-14.14,4.91,22.34,22.34,0,0,0-5,13.57A30,30,0,0,0,40,70.78h.07a30,30,0,0,0,22.4-10.09A22.36,22.36,0,0,0,57.46,47.13Z"/><path class="cls-1" d="M26.09,30.68a14.15,14.15,0,0,0,9,8.91C49,44.14,61.45,28.65,50.9,14.78,37,4.12,21.41,16.72,26.09,30.68Z"/><path class="cls-1" d="M43.3.72A39.72,39.72,0,1,0,79.67,37.09,39.72,39.72,0,0,0,43.3.72ZM40.08,75.06A34.75,34.75,0,1,1,74.83,40.31,34.75,34.75,0,0,1,40.08,75.06Z"/></svg>