<svg xmlns="http://www.w3.org/2000/svg" xmlns:xlink="http://www.w3.org/1999/xlink" viewBox="0 0 26.65 43.14"><defs><style>.cls-1{fill:none;}.cls-2{clip-path:url(#clip-path);}.cls-3{fill:#3f567a;}.cls-4{fill:#fbbd7a;}.cls-12,.cls-5{fill:#f09f78;}.cls-5{opacity:0.5;}.cls-6{fill:#d01f3e;}.cls-7{fill:#f1bb75;}.cls-8{fill:#ffcb7c;}.cls-9{fill:#ddceca;}.cls-10{fill:#f6f4be;}.cls-11{fill:#fccb82;}.cls-12{opacity:0.4;}.cls-13{fill:#662b14;opacity:0.9;}.cls-14{fill:#f3ac7b;opacity:0.6;}.cls-15{fill:#dd7b3e;}.cls-16{fill:#864d36;stroke:#864d36;stroke-miterlimit:10;stroke-width:0.33px;}.cls-17{fill:#ef5448;}.cls-18{fill:#dddccc;}</style><clipPath id="clip-path" transform="translate(-10.61 -4.34)"><path class="cls-1" d="M24,47.8a23.9,23.9,0,1,1,23.85-24A23.9,23.9,0,0,1,24,47.8Z"/></clipPath></defs><title>mita</title><g id="Layer_2" data-name="Layer 2"><g id="Layer_1-2" data-name="Layer 1"><g class="cls-2"><path id="_Path_" data-name="&lt;Path&gt;" class="cls-3" d="M35.7,17.27C33.83.45,23.94,4.86,23.94,4.86S14,.49,12.23,17.32,24,33.28,24,24.09C24,33.28,37.58,34.09,35.7,17.27Z" transform="translate(-10.61 -4.34)"/><g id="_Group_" data-name="&lt;Group&gt;"><path id="_Path_2" data-name="&lt;Path&gt;" class="cls-4" d="M31.59,17.19a2.12,2.12,0,0,1,.88-.44,1,1,0,0,1,1.17,1.08v1.91a.73.73,0,0,1-.7.76H31.6Z" transform="translate(-10.61 -4.34)"/><path id="_Path_3" data-name="&lt;Path&gt;" class="cls-5" d="M33.41,19.73V17.83a1.07,1.07,0,0,0-.88-1.08,1,1,0,0,1,1.13,1.08v1.91a.73.73,0,0,1-.7.76h-.24A.73.73,0,0,0,33.41,19.73Z" transform="translate(-10.61 -4.34)"/><path id="_Path_4" data-name="&lt;Path&gt;" class="cls-4" d="M32.47,16.75h0a1.07,1.07,0,0,1,.88,1.08v1.91a.73.73,0,0,1-.7.76H31.6V17.19A2.12,2.12,0,0,1,32.47,16.75Z" transform="translate(-10.61 -4.34)"/><polygon id="_Path_5" data-name="&lt;Path&gt;" class="cls-6" points="22.32 15.89 21.97 15.69 21.62 15.9 21.62 16.3 21.97 16.51 22.32 16.3 22.32 15.89"/></g><rect id="_Rectangle_" data-name="&lt;Rectangle&gt;" class="cls-7" x="20.73" y="26.87" width="6.34" height="10.14" rx="3.17" ry="3.17" transform="translate(-10.68 -4.28) rotate(-0.12)"/><path id="_Path_6" data-name="&lt;Path&gt;" class="cls-8" d="M23.91,37a3.18,3.18,0,0,1-3.18-3.16v1.76a3.17,3.17,0,0,0,6.34,0V33.84A3.18,3.18,0,0,1,23.91,37Z" transform="translate(-10.61 -4.34)"/><path id="_Path_7" data-name="&lt;Path&gt;" class="cls-9" d="M23.9,34a12.65,12.65,0,0,0-3.17.41l0,13.06H27.1l0-13.06A12.65,12.65,0,0,0,23.9,34Z" transform="translate(-10.61 -4.34)"/><path id="_Path_8" data-name="&lt;Path&gt;" class="cls-10" d="M10.61,47.48l13.33,0L20.73,34.4A14,14,0,0,0,10.61,47.48Z" transform="translate(-10.61 -4.34)"/><path id="_Path_9" data-name="&lt;Path&gt;" class="cls-10" d="M27.07,34.39,23.93,47.45l13.33,0A14,14,0,0,0,27.07,34.39Z" transform="translate(-10.61 -4.34)"/><path id="_Path_10" data-name="&lt;Path&gt;" class="cls-11" d="M31.58,14.94l0,7.11a9.46,9.46,0,0,1-1,4.18c-1.42,2.89-3,4.85-6.59,5.05h-.32c-2.7.4-5.64-1.9-7.19-6a6.27,6.27,0,0,1-.39-2.22l0-8.12a7.37,7.37,0,0,1,7.55-7.15H24A7.38,7.38,0,0,1,31.58,14.94Z" transform="translate(-10.61 -4.34)"/><path id="_Path_11" data-name="&lt;Path&gt;" class="cls-11" d="M23.74,33a7.88,7.88,0,0,1-3-.59v1.4a3.17,3.17,0,0,0,6.34,0v-1.4a7.87,7.87,0,0,1-3,.6Z" transform="translate(-10.61 -4.34)"/><path id="_Path_12" data-name="&lt;Path&gt;" class="cls-11" d="M24,7.82h-.32A7.37,7.37,0,0,0,16.14,15v1.76a7.37,7.37,0,0,1,7.55-7.15H24a7.38,7.38,0,0,1,7.58,7.12V14.94A7.38,7.38,0,0,0,24,7.82Z" transform="translate(-10.61 -4.34)"/><path id="_Path_13" data-name="&lt;Path&gt;" class="cls-12" d="M24.06,31.28h-.32a7.88,7.88,0,0,1-3-.59v1.76a7.88,7.88,0,0,0,3,.59h.32a7.87,7.87,0,0,0,3-.6V30.68A7.87,7.87,0,0,1,24.06,31.28Z" transform="translate(-10.61 -4.34)"/><path id="_Path_14" data-name="&lt;Path&gt;" class="cls-11" d="M23.79,9.45h-.32a7.37,7.37,0,0,0-7.55,7.15v6.12a5.74,5.74,0,0,0,.6,2.53,14.49,14.49,0,0,0,3.93,5.28,0,0,0,0,0,0,0v-.45a3.27,3.27,0,0,1,2.76-3.29,3.18,3.18,0,0,1,3.58,3.14v.65A15.87,15.87,0,0,0,29.91,27a11.18,11.18,0,0,0,1.46-5.63V16.57A7.38,7.38,0,0,0,23.79,9.45Z" transform="translate(-10.61 -4.34)"/><path id="_Path_15" data-name="&lt;Path&gt;" class="cls-13" d="M26.6,18.39a2.68,2.68,0,0,1,.31-.2l.18-.09.17-.07.14,0,.25,0h.26l.16,0,.21.06.23.1a1.69,1.69,0,0,1,.42.33l.11.13a.24.24,0,0,0,.17.1h0c.29,0,.41-.41.21-.59a1.86,1.86,0,0,0-1.59-.47,2.71,2.71,0,0,0-1.2.58c-.12.09-.23.29-.17.29h0l.08,0Z" transform="translate(-10.61 -4.34)"/><path id="_Path_16" data-name="&lt;Path&gt;" class="cls-14" d="M16.18,17.21a10.82,10.82,0,0,1,3.17-1.89.76.76,0,0,1,.91.54,2.39,2.39,0,0,1,.08.54l.83-1.15-.26-1.49s-1.47-.24-1.54-.19-2,.29-2.16.59-.67.86-.67,1.23a3.73,3.73,0,0,1-.39,1.13Z" transform="translate(-10.61 -4.34)"/><path id="_Path_17" data-name="&lt;Path&gt;" class="cls-15" d="M24.76,23.26H23.2s-.08.84.53.84h.51C24.85,24.1,24.76,23.26,24.76,23.26Z" transform="translate(-10.61 -4.34)"/><g id="_Group_2" data-name="&lt;Group&gt;"><path id="_Path_18" data-name="&lt;Path&gt;" class="cls-4" d="M16.14,17.08a2.12,2.12,0,0,0-.89-.44,1,1,0,0,0-1.17,1.08v1.91a.73.73,0,0,0,.7.75h1.36Z" transform="translate(-10.61 -4.34)"/><path id="_Path_19" data-name="&lt;Path&gt;" class="cls-5" d="M14.34,19.63V17.72a1.07,1.07,0,0,1,.88-1.08,1,1,0,0,0-1.12,1.08v1.91a.73.73,0,0,0,.7.75H15A.73.73,0,0,1,14.34,19.63Z" transform="translate(-10.61 -4.34)"/><path id="_Path_20" data-name="&lt;Path&gt;" class="cls-4" d="M15.26,16.64h0a1.07,1.07,0,0,0-.88,1.08v1.91a.73.73,0,0,0,.7.75h1.11V17.08A2.12,2.12,0,0,0,15.26,16.64Z" transform="translate(-10.61 -4.34)"/><polygon id="_Path_21" data-name="&lt;Path&gt;" class="cls-6" points="4.21 15.79 4.57 15.59 4.92 15.79 4.92 16.2 4.57 16.4 4.21 16.2 4.21 15.79"/></g><path id="_Path_22" data-name="&lt;Path&gt;" class="cls-16" d="M26.79,19.72a1.18,1.18,0,0,1,.27-.16l.17-.06.17,0,.14,0h.25l.24,0,.14,0,.16.07.16.09a1.18,1.18,0,0,1,.24.2l0,.06a.1.1,0,0,0,.07,0h0c.11,0,.17-.16.09-.26a1.68,1.68,0,0,0-2.34-.21c-.09.08-.06.27,0,.27h0a.1.1,0,0,0,.08,0Z" transform="translate(-10.61 -4.34)"/><path id="_Path_23" data-name="&lt;Path&gt;" class="cls-13" d="M20.88,18.41a2.68,2.68,0,0,0-.31-.2l-.18-.09L20.21,18l-.14,0-.25,0h-.26l-.16,0L19.2,18l-.23.1a1.69,1.69,0,0,0-.42.34l-.11.13a.24.24,0,0,1-.17.1h0c-.29,0-.41-.41-.21-.59a1.86,1.86,0,0,1,1.58-.47,2.71,2.71,0,0,1,1.2.57c.12.09.23.29.17.29h0l-.08,0Z" transform="translate(-10.61 -4.34)"/><path id="_Path_24" data-name="&lt;Path&gt;" class="cls-16" d="M20.69,19.73a1.18,1.18,0,0,0-.27-.16l-.18-.06-.17,0-.14,0h-.25l-.24,0-.14,0-.16.07-.16.09a1.18,1.18,0,0,0-.24.2l0,.06a.1.1,0,0,1-.07,0h0c-.11,0-.17-.16-.1-.26a1.68,1.68,0,0,1,2.34-.22c.09.08.06.26,0,.27h0a.1.1,0,0,1-.08,0Z" transform="translate(-10.61 -4.34)"/><path id="_Path_25" data-name="&lt;Path&gt;" class="cls-17" d="M23.3,27.44l-.09.39a.67.67,0,0,0,.4.85l.15,0a.67.67,0,0,0,.74-.58l.1-.42a3.51,3.51,0,0,1-.73-.09A3.57,3.57,0,0,1,23.3,27.44Z" transform="translate(-10.61 -4.34)"/><path id="_Path_26" data-name="&lt;Path&gt;" class="cls-17" d="M26,27.07l-.16.11a1.69,1.69,0,0,1-.81.32,4.14,4.14,0,0,1-.71.06,4.26,4.26,0,0,1-.58,0,1.82,1.82,0,0,1-1-.34h0l-.15-.1c-.17-.1-.09.1-.09.1.14.28.63.46,1.18.54a4.45,4.45,0,0,0,.59,0,4.37,4.37,0,0,0,.73-.06,1.44,1.44,0,0,0,1-.52h0S26.21,27,26,27.07Z" transform="translate(-10.61 -4.34)"/><path id="_Path_27" data-name="&lt;Path&gt;" class="cls-10" d="M28,40.08v1.57a.88.88,0,0,0,.83.91h.87a.88.88,0,0,0,.83-.92V40.08Z" transform="translate(-10.61 -4.34)"/><rect id="_Rectangle_2" data-name="&lt;Rectangle&gt;" class="cls-18" x="28.01" y="39.67" width="2.53" height="0.62" transform="translate(-10.69 -4.27) rotate(-0.12)"/><path id="_Path_28" data-name="&lt;Path&gt;" class="cls-14" d="M20.43,16.49s2.7-1.07,3.43-.94S26.76,15.07,27,14a6.22,6.22,0,0,0,4.58,4.13V15.36l-1.26-3.2-1.67-.84a23.52,23.52,0,0,0-3.91.7c-.31.28-3,2-3,2l-1.14,2.17Z" transform="translate(-10.61 -4.34)"/><path id="_Path_29" data-name="&lt;Path&gt;" class="cls-3" d="M16.18,17.21a4.08,4.08,0,0,1,4.28-2.42,5.94,5.94,0,0,1-.12,1.61C20.16,17,22,14.81,24,14.57a4.17,4.17,0,0,0,3.34-2.22s.4,4.84,4.27,4.83l.62-4.5L30.51,9.34l-8-3.25s-8.2.46-6.71,4.26a41.4,41.4,0,0,1-1,4.5v1.37Z" transform="translate(-10.61 -4.34)"/></g></g></g></svg>