<svg xmlns="http://www.w3.org/2000/svg" xmlns:xlink="http://www.w3.org/1999/xlink" viewBox="0 0 27.13 44.81"><defs><style>.cls-1{fill:none;}.cls-2{clip-path:url(#clip-path);}.cls-3{fill:#3f4b4f;}.cls-4{fill:#e1b4a9;}.cls-5{fill:#fbbd7a;}.cls-6{fill:#ffe2bb;}.cls-7{fill:#ffcb7c;}.cls-8{fill:#95b6cf;}.cls-9{fill:#b1b6b7;}.cls-10{fill:#e5a259;}.cls-11{fill:#e8caa3;}.cls-12{fill:#ec6b69;}.cls-13{fill:#0e1a1e;}.cls-14,.cls-15{fill:#263034;}.cls-14{stroke:#263034;stroke-miterlimit:10;stroke-width:0.33px;}.cls-16{fill:#e73a47;}.cls-17{fill:#c87029;}.cls-18{fill:#f38694;}.cls-19{fill:#364159;}.cls-20{fill:#e8ebee;}.cls-21{fill:#f3ac7b;opacity:0.3;}</style><clipPath id="clip-path" transform="translate(-11.26 -3.19)"><path class="cls-1" d="M24.05,48A24,24,0,1,1,48,23.95,24,24,0,0,1,24.05,48Z"/></clipPath></defs><title>rita</title><g id="Layer_2" data-name="Layer 2"><g id="Layer_1-2" data-name="Layer 1"><g class="cls-2"><path id="_Path_" data-name="&lt;Path&gt;" class="cls-3" d="M38.38,19.85C37.07,2.43,25,3.2,25,3.2S12.85,2.48,11.6,19.91c0,4.56,4.42,11.78,3.95,20.25L25,37.11l9.46,3.29C34,31.93,38.45,24.42,38.38,19.85Z" transform="translate(-11.26 -3.19)"/><path id="_Path_2" data-name="&lt;Path&gt;" class="cls-4" d="M22,34.91a12.16,12.16,0,0,0-6,3.93L16,48h6Z" transform="translate(-11.26 -3.19)"/><path id="_Path_3" data-name="&lt;Path&gt;" class="cls-5" d="M33,17.69a2.05,2.05,0,0,1,.86-.44A1,1,0,0,1,35,18.33v1.91a.72.72,0,0,1-.68.76H33Z" transform="translate(-11.26 -3.19)"/><path id="_Path_4" data-name="&lt;Path&gt;" class="cls-6" d="M25,37.54h0a3,3,0,0,1-3-3v-3.6a3,3,0,0,1,3-3h0a3,3,0,0,1,3,3v3.6A3,3,0,0,1,25,37.54Z" transform="translate(-11.26 -3.19)"/><path id="_Path_5" data-name="&lt;Path&gt;" class="cls-7" d="M25,37.78a3,3,0,0,1-3-3v1.48a3.13,3.13,0,0,0,2.45,3.12,3,3,0,0,0,3.55-3V34.77A3,3,0,0,1,25,37.78Z" transform="translate(-11.26 -3.19)"/><path id="_Path_6" data-name="&lt;Path&gt;" class="cls-8" d="M25,34.51a11.25,11.25,0,0,0-3,.41L22,48h6l0-13.08A11.25,11.25,0,0,0,25,34.51Z" transform="translate(-11.26 -3.19)"/><polygon id="_Path_7" data-name="&lt;Path&gt;" class="cls-9" points="19.09 31.02 16.84 29.85 16.73 32.24 16.44 33.41 19.09 31.02"/><path id="_Path_8" data-name="&lt;Path&gt;" class="cls-6" d="M24.85,34A7.09,7.09,0,0,1,22,33.41v1.37a3.16,3.16,0,0,0,2,3,3,3,0,0,0,4-3V33.4a7.09,7.09,0,0,1-2.85.6Z" transform="translate(-11.26 -3.19)"/><path id="_Path_9" data-name="&lt;Path&gt;" class="cls-8" d="M11.83,48,22,48,22,34.9A14,14,0,0,0,11.83,48Z" transform="translate(-11.26 -3.19)"/><path id="_Path_10" data-name="&lt;Path&gt;" class="cls-8" d="M28,35.08,28,48,38.2,48a14,14,0,0,0-10-13A.12.12,0,0,0,28,35.08Z" transform="translate(-11.26 -3.19)"/><path id="_Path_11" data-name="&lt;Path&gt;" class="cls-6" d="M32,16v6.95a9.47,9.47,0,0,1-.95,4.17C29.7,29.9,28.17,31.8,24.68,32h-.31c-2.59.39-5.41-1.81-6.93-5.69A6.5,6.5,0,0,1,17,24L17,16a7.2,7.2,0,0,1,7.34-7h.31A7.2,7.2,0,0,1,32,16Z" transform="translate(-11.26 -3.19)"/><path id="_Path_12" data-name="&lt;Path&gt;" class="cls-6" d="M25,8h-.32c-4.17.59-7.57,3.81-7.71,7.74V17.5c.14-3.93,3.54-7.15,7.71-7.5H25c4.16.33,7.58,3.53,7,7.46V15.71C32.61,11.77,29.19,8.57,25,8Z" transform="translate(-11.26 -3.19)"/><path id="_Path_13" data-name="&lt;Path&gt;" class="cls-6" d="M25,10h.2C20.69,10,17,13.23,17,17.16v6a5.7,5.7,0,0,0,.68,2.69A14.61,14.61,0,0,0,22,31.11a0,0,0,0,0,0,0v-.16a3.13,3.13,0,0,1,2.44-3.14A3,3,0,0,1,28,30.74v.74a27.83,27.83,0,0,0,3.17-3.52A17.42,17.42,0,0,0,33,22.31V17.46C32.61,13.53,25,10,25,10Z" transform="translate(-11.26 -3.19)"/><path id="_Path_14" data-name="&lt;Path&gt;" class="cls-10" d="M26,24l-1,1H24c0-1-.11-.11.67,0h.66C26.11,24.88,26,24,26,24Z" transform="translate(-11.26 -3.19)"/><path id="_Path_15" data-name="&lt;Path&gt;" class="cls-5" d="M17,17.69a2,2,0,0,0-.86-.44A1,1,0,0,0,15,18.33v1.91a.72.72,0,0,0,.68.76H17Z" transform="translate(-11.26 -3.19)"/><path id="_Path_16" data-name="&lt;Path&gt;" class="cls-8" d="M11.26,48H15l0-9.16A14.53,14.53,0,0,0,11.26,48Z" transform="translate(-11.26 -3.19)"/><path id="_Path_17" data-name="&lt;Path&gt;" class="cls-3" d="M14.33,22a116.68,116.68,0,0,0,6.4-10.31s10,7.77,17,7.3l-2.16-6L32.6,8l-5.28-1.2L20.19,7.84l-3.27,2.51-1.83,4Z" transform="translate(-11.26 -3.19)"/><path id="_Path_18" data-name="&lt;Path&gt;" class="cls-11" d="M15,20.58V18.67c.34-.56.73-1,1.22-1.09-.59-.08-1.13.43-.22,1.09v1.91c-.9.42-.59.76-.2.42H16C15.66,21.34,15.34,21,15,20.58Z" transform="translate(-11.26 -3.19)"/><path id="_Path_19" data-name="&lt;Path&gt;" class="cls-6" d="M16,17.25H16a1.1,1.1,0,0,0-1,1.09v1.91a.76.76,0,0,0,.77.76H17V17.69A2.42,2.42,0,0,0,16,17.25Z" transform="translate(-11.26 -3.19)"/><path id="_Path_20" data-name="&lt;Path&gt;" class="cls-11" d="M35,20.68V18.77c-.56-.56-1-1-1.44-1.08.59-.08,1.13.43,1.44,1.08v1.91c-.31.42-.62.76-1,.32h-.24C34.13,21.43,34.44,21.1,35,20.68Z" transform="translate(-11.26 -3.19)"/><path id="_Path_21" data-name="&lt;Path&gt;" class="cls-6" d="M33.51,17.69h0c.49.06.88.52,1.44,1.08v1.91c-.56.42-.87.76-1.26.32H33V18.13C32.62,18.13,33,17.78,33.51,17.69Z" transform="translate(-11.26 -3.19)"/><g id="_Group_" data-name="&lt;Group&gt;"><path id="_Path_22" data-name="&lt;Path&gt;" class="cls-3" d="M15.56,37.84s0,4.21,0,5,1.64,1,1.63-.17V35.76Z" transform="translate(-11.26 -3.19)"/><path id="_Path_23" data-name="&lt;Path&gt;" class="cls-3" d="M15.63,42.66s-.24,1.56.27,2.15,1,1.13.86,1.77a1.71,1.71,0,0,0,1.15-2.13c-.49-1.59-1.35-1.29-1.46-2.26S15.63,42.66,15.63,42.66Z" transform="translate(-11.26 -3.19)"/><path id="_Path_24" data-name="&lt;Path&gt;" class="cls-12" d="M17,43H15.86c-.39.42-.7.11-.7-.28h0a.73.73,0,0,1,.7-.72H17a.73.73,0,0,1,.7.72h0C17.72,43.1,17.4,43.42,17,43Z" transform="translate(-11.26 -3.19)"/></g><g id="_Group_2" data-name="&lt;Group&gt;"><path id="_Path_25" data-name="&lt;Path&gt;" class="cls-3" d="M34.49,37.8s0,4.21,0,5-1.63,1-1.63-.16V35.73Z" transform="translate(-11.26 -3.19)"/><path id="_Path_26" data-name="&lt;Path&gt;" class="cls-3" d="M34.45,42.62s.25,1.56-.26,2.16-1,1.13-.86,1.78a1.71,1.71,0,0,1-1.16-2.12c.48-1.59,1.34-1.29,1.45-2.26S34.45,42.62,34.45,42.62Z" transform="translate(-11.26 -3.19)"/><path id="_Path_27" data-name="&lt;Path&gt;" class="cls-12" d="M33.06,43h1.16c.39.38.7.07.7-.32h0a.67.67,0,0,0-.7-.68H33.06a.68.68,0,0,0-.7.68h0C32.36,43.07,32.68,43.39,33.06,43Z" transform="translate(-11.26 -3.19)"/></g><g id="_Group_3" data-name="&lt;Group&gt;"><path id="_Path_28" data-name="&lt;Path&gt;" class="cls-13" d="M22.49,18.71c.41-.23.11-.4-1.7-.34s-1.55.51-1.55.51" transform="translate(-11.26 -3.19)"/><path id="_Path_29" data-name="&lt;Path&gt;" class="cls-13" d="M22.49,18.71a.63.63,0,0,0,.12-.12s0-.07-.07-.09l-.24,0c-.35,0-.84,0-1.32,0a9.28,9.28,0,0,0-1.31.08.79.79,0,0,0-.39.15.15.15,0,0,0,0,.15.16.16,0,0,1,0-.19.77.77,0,0,1,.39-.26,4.4,4.4,0,0,1,1.33-.2,5.9,5.9,0,0,1,1.34.09,1,1,0,0,1,.25.08.26.26,0,0,1,.1.08.11.11,0,0,1,0,.12.32.32,0,0,1-.11.07Z" transform="translate(-11.26 -3.19)"/></g><g id="_Group_4" data-name="&lt;Group&gt;"><path id="_Path_30" data-name="&lt;Path&gt;" class="cls-13" d="M30.3,18.74c.41-.19.11-.33-1.7-.29s-1.55.41-1.55.41" transform="translate(-11.26 -3.19)"/><path id="_Path_31" data-name="&lt;Path&gt;" class="cls-13" d="M30.3,18.74a.58.58,0,0,0,.12-.1s0-.05-.07-.07l-.24,0c-.35,0-.84,0-1.32,0a11.29,11.29,0,0,0-1.31.06.88.88,0,0,0-.39.12.1.1,0,0,0,0,.13.11.11,0,0,1,0-.15.79.79,0,0,1,.39-.21,5.29,5.29,0,0,1,1.33-.16,7.2,7.2,0,0,1,1.34.08,1.12,1.12,0,0,1,.25.07.26.26,0,0,1,.1.07.08.08,0,0,1,0,.1.33.33,0,0,1-.11.06Z" transform="translate(-11.26 -3.19)"/></g><path id="_Path_32" data-name="&lt;Path&gt;" class="cls-14" d="M21.94,20.46a1.19,1.19,0,0,0-.27-.16l-.18-.06-.17,0-.14,0h-.25l-.24,0-.14,0-.16.07-.16.09a1.19,1.19,0,0,0-.24.2l0,.06a.1.1,0,0,1-.07,0h0c-.11,0-.17-.16-.1-.26a1.68,1.68,0,0,1,2.34-.22c.09.08.06.27,0,.28h0a.1.1,0,0,1-.08,0Z" transform="translate(-11.26 -3.19)"/><path id="_Path_33" data-name="&lt;Path&gt;" class="cls-15" d="M28.5,20.86h0a.5.5,0,0,1-.5-.5v-.13a.5.5,0,0,1,.5-.5h0a.5.5,0,0,1,.5.5v.13A.5.5,0,0,1,28.5,20.86Z" transform="translate(-11.26 -3.19)"/><path id="_Path_34" data-name="&lt;Path&gt;" class="cls-16" d="M23.58,28.55a3.27,3.27,0,0,0,3.2-.35c.39-.3,0-.72-.53-.71l-3.43.06c-.06,0-.12.12-.1.22C22.78,28.17,23.07,28.36,23.58,28.55Z" transform="translate(-11.26 -3.19)"/><circle id="_Path_35" data-name="&lt;Path&gt;" class="cls-17" cx="16.13" cy="21.47" r="0.68" transform="translate(-11.3 -3.16) rotate(-0.12)"/><circle id="_Path_36" data-name="&lt;Path&gt;" class="cls-17" cx="33.64" cy="21.44" r="0.68" transform="translate(-11.3 -3.12) rotate(-0.12)"/><path id="_Path_37" data-name="&lt;Path&gt;" class="cls-18" d="M29,20h-.34c-.35,1.06-.63.92-.65,1h1.59C29.61,20.92,29.35,21.05,29,20Z" transform="translate(-11.26 -3.19)"/><path id="_Path_38" data-name="&lt;Path&gt;" class="cls-19" d="M24.63,38h1.73a.64.64,0,0,1,.64.64v3.45a.64.64,0,0,1-.21.47l-.73.66a.64.64,0,0,1-.85,0l-1-.87a.64.64,0,0,1-.22-.48V38.64A.64.64,0,0,1,24.63,38Z" transform="translate(-11.26 -3.19)"/><polygon id="_Path_39" data-name="&lt;Path&gt;" class="cls-20" points="18.74 31.02 14.29 33.08 13.44 35.81 18.74 34.03 18.74 31.02"/><polygon id="_Path_40" data-name="&lt;Path&gt;" class="cls-9" points="8.7 31.05 10.74 30.06 10.75 32.01 10.72 32.93 8.7 31.05"/><polygon id="_Path_41" data-name="&lt;Path&gt;" class="cls-20" points="8.74 31.05 13.2 33.08 14.05 35.81 8.74 34.05 8.74 31.05"/><path id="_Path_42" data-name="&lt;Path&gt;" class="cls-21" d="M25.08,32h-.32A5.05,5.05,0,0,1,22,31.49v1.76a8.64,8.64,0,0,0,2.76.75h.32A11.19,11.19,0,0,0,28,33.23V31.47A6,6,0,0,1,25.08,32Z" transform="translate(-11.26 -3.19)"/></g></g></g></svg>