<svg id="Layer_1" data-name="Layer 1" xmlns="http://www.w3.org/2000/svg" viewBox="0 0 150 30"><defs><style>.cls-1{font-size:13.16px;font-family:Questrial-Regular, Questrial;}.cls-2{fill:#39b54a;}</style></defs><title>main</title><text class="cls-1" transform="translate(38.22 19.37)">Cash On Hand</text><path class="cls-2" d="M31.16,3.33h-2.4a.4.4,0,0,0-.4.4v.16l-.85-.43A1.26,1.26,0,0,0,27,3.33H21.11a1.21,1.21,0,0,0-.75.27L18.69,4.93H12a.4.4,0,0,0-.4.4v6.4a.4.4,0,0,0,.4.4H24a.4.4,0,0,0,.4-.4v-3a3.6,3.6,0,0,0,3.18-.26l.53-.32h.29v.4a.4.4,0,0,0,.4.4h2.4a.4.4,0,0,0,.4-.4V3.73a.4.4,0,0,0-.4-.4Zm-18.8,8V5.73h9.57l-.44.45a1.2,1.2,0,0,0,1.69,1.7l.38-.38v3.83Zm15.6-4a.36.36,0,0,0-.2.06l-.63.38a2.83,2.83,0,0,1-2.5.19l-.27-.11V6.7l.51-.51.21.07a2.82,2.82,0,0,0,1.77,0l.44-.15a.39.39,0,0,0,.25-.5.4.4,0,0,0-.5-.26l-.45.15a1.94,1.94,0,0,1-1.26,0l-.44-.15a.42.42,0,0,0-.41.1l-.8.8L22.62,7.31a.4.4,0,0,1-.57,0,.39.39,0,0,1,0-.56l1.56-1.56A.4.4,0,0,0,23,4.63l-.31.3H20l.89-.71a.38.38,0,0,1,.25-.09H27a.35.35,0,0,1,.18,0l1.21.6V7.33Zm2.8.8h-1.6v-4h1.6Zm0,0"/><path class="cls-2" d="M18,7.33a.4.4,0,0,1,.4.4h.8a1.19,1.19,0,0,0-.8-1.12V6.13h-.8v.48a1.19,1.19,0,0,0-.78,1.33,1.2,1.2,0,0,0,1.18,1,.4.4,0,1,1-.4.4h-.8a1.2,1.2,0,0,0,.8,1.13v.47h.8v-.47A1.2,1.2,0,0,0,18,8.13a.4.4,0,0,1,0-.8Zm0,0"/><path class="cls-2" d="M15.56,8.13h-.8a.4.4,0,1,0,0,.8h.8a.4.4,0,1,0,0-.8Zm0,0"/><path class="cls-2" d="M21.16,8.13h-.8a.4.4,0,1,0,0,.8h.8a.4.4,0,0,0,0-.8Zm0,0"/><path class="cls-2" d="M24.15,22.44A1.2,1.2,0,0,0,22.51,22l-2.58,1.48a1.19,1.19,0,0,0-1.17-.95H15.68l-.08-.05a4.39,4.39,0,0,0-4.84,0v-.32a.4.4,0,0,0-.4-.4H8a.4.4,0,0,0-.4.4v4.8a.4.4,0,0,0,.4.4h2.4a.4.4,0,0,0,.4-.4v-.05l.38.25a1.2,1.2,0,0,0,.67.2h5.94a1.08,1.08,0,0,0,.6-.16l5.36-3.09a1.2,1.2,0,0,0,.6-1,1.25,1.25,0,0,0-.16-.6ZM10,26.53H8.36v-4H10Zm13.35-3.14-5.37,3.09a.34.34,0,0,1-.19.05H11.81a.39.39,0,0,1-.23-.07l-.82-.54V23.33a.4.4,0,0,0,.22-.06l.19-.12a3.58,3.58,0,0,1,4,0l.18.12a.43.43,0,0,0,.22.06h3.2a.4.4,0,0,1,0,.8h-2.4a.4.4,0,0,0,0,.8h2.4a1.19,1.19,0,0,0,.79-.3l3.36-1.94a.45.45,0,0,1,.3,0,.41.41,0,0,1,.24.19.36.36,0,0,1,.06.2.43.43,0,0,1-.2.35Zm0,0"/><path class="cls-2" d="M23.16,13.73H12.76a.4.4,0,0,0-.4.4v7.2a.4.4,0,0,0,.4.4h10.4a.4.4,0,0,0,.4-.4v-7.2a.4.4,0,0,0-.4-.4Zm-4.8.8v1.6h-.8v-1.6Zm4.4,6.4h-9.6v-6.4h3.6v2a.4.4,0,0,0,.4.4h1.6a.4.4,0,0,0,.4-.4v-2h3.6Zm0,0"/><path class="cls-2" d="M15.56,18.53H14a.4.4,0,0,0,0,.8h1.6a.4.4,0,0,0,0-.8Zm0,0"/><path class="cls-2" d="M17.16,18.53h-.4a.4.4,0,0,0,0,.8h.4a.4.4,0,1,0,0-.8Zm0,0"/><path class="cls-2" d="M15.56,19.73H14a.4.4,0,0,0,0,.8h1.6a.4.4,0,0,0,0-.8Zm0,0"/><path class="cls-2" d="M17.16,19.73h-.4a.4.4,0,0,0,0,.8h.4a.4.4,0,0,0,0-.8Zm0,0"/></svg>