<svg id="Layer_1" data-name="Layer 1" xmlns="http://www.w3.org/2000/svg" viewBox="0 0 150 30"><defs><style>.cls-1{font-size:13.16px;font-family:Questrial-Regular, Questrial;}.cls-2{fill:#363231;}.cls-3{fill:#373737;}.cls-4{fill:#f03735;}.cls-5{fill:#f7f6f6;}.cls-6{fill:#fcc609;}</style></defs><title>main</title><text class="cls-1" transform="translate(38.22 20.56)">Credit/Debit Card</text><path class="cls-2" d="M9.8,20.45c-1.09-1.63-2.18-3.25-3.25-4.88a2.9,2.9,0,0,1,1-4.2L16.45,6l3.43-2.09A3,3,0,0,1,24.26,5c1.34,2.22,2.74,4.41,4,6.68a.44.44,0,0,0,.46.27c.5,0,1,0,1.51,0a2.85,2.85,0,0,1,2.67,2.77q0,4.39,0,8.77a2.84,2.84,0,0,1-2.76,2.82c-1.44,0-2.88,0-4.32,0-3.44,0-6.88,0-10.32,0a3.1,3.1,0,0,1-3-1.81c-.3-.58-.7-1.11-1.05-1.66,0-.22.22-.14.34-.16s.16.13.17.24v.21c0,.19.11.22.27.22s.27-.11.22-.26c-.13-.39.07-.77,0-1.15a20.88,20.88,0,0,1-.08-2.5c0-.23.07-.47-.06-.69v-.1c.05-.17.25-.33,0-.49V18a3.93,3.93,0,0,0,.06-1.28,4.72,4.72,0,0,0-.06-1.4v-.26a3.54,3.54,0,0,0,.31-1.43A2.73,2.73,0,0,1,15.27,12c.8,0,1.59,0,2.39,0H26c.11,0,.27.07.34-.08s-.06-.2-.12-.29c-.32-.51-.62-1-.93-1.56-.08-.13-.21-.28,0-.38s.3,0,.38.16.34.57.52.85a12.45,12.45,0,0,0,.75,1.14.56.56,0,0,0,.79.08c.25-.17-.06-.31-.14-.46-.43-.8-.88-1.58-1.36-2.35-.88-1.41-1.7-2.85-2.59-4.25A2.41,2.41,0,0,0,21,3.88a6,6,0,0,0-1.5.75L13.24,8.45,8.49,11.31a3.91,3.91,0,0,0-1.72,1.5,2.3,2.3,0,0,0-.1,2,26.56,26.56,0,0,0,1.94,3.12c.47.77,1.06,1.45,1.47,2.26C10.07,20.35,9.92,20.38,9.8,20.45Zm2.87-6v.31c0,.27.2.22.36.22H32.15c.27,0,.33-.07.32-.33A2.47,2.47,0,0,0,30,12.38H15.2a2.14,2.14,0,0,0-.62.06A2.66,2.66,0,0,0,12.67,14.49Zm10,3.77c-3.18,0-6.35,0-9.53,0-.18,0-.42-.1-.41.27,0,1.59,0,3.19,0,4.78a2.47,2.47,0,0,0,2.69,2.57q7.26,0,14.51,0a2.46,2.46,0,0,0,2.58-2.58c0-1.54,0-3.08,0-4.61,0-.35-.07-.45-.43-.44Zm-.07-.51h9.32c.51,0,.6-.09.61-.61s0-.87,0-1.3,0-.52-.43-.38a1.4,1.4,0,0,1-.46,0H13.09c-.25,0-.35.08-.34.34s0,.81,0,1.21c0,.72,0,.72.7.72Z"/><path class="cls-3" d="M9.8,20.45c.12-.07.27-.1.28-.28,0,0,.11,0,.13.09.5.82,1.12,1.57,1.54,2.44-.12,0-.3-.06-.34.16a3.72,3.72,0,0,1-.49-.75c.09,0,.18-.05.13-.15s-.16,0-.24,0Zm1.08,1.14-.07,0s0,.05,0,.07l.07,0S10.87,21.61,10.88,21.59Z"/><path class="cls-2" d="M10.81,22c.08,0,.18-.15.24,0s0,.14-.13.15A.18.18,0,0,1,10.81,22Z"/><path class="cls-4" d="M11.75,22.7c-.42-.87-1-1.62-1.54-2.44,0,0-.09-.06-.13-.09-.41-.81-1-1.49-1.47-2.26a26.56,26.56,0,0,1-1.94-3.12,2.3,2.3,0,0,1,.1-2,3.91,3.91,0,0,1,1.72-1.5l4.75-2.86L19.5,4.63A6,6,0,0,1,21,3.88a2.41,2.41,0,0,1,2.63.93c.89,1.4,1.71,2.84,2.59,4.25.48.77.93,1.55,1.36,2.35.08.15.39.29.14.46a.56.56,0,0,1-.79-.08,12.45,12.45,0,0,1-.75-1.14c-.18-.28-.34-.56-.52-.85s-.22-.25-.38-.16-.06.25,0,.38c.31.52.61,1.05.93,1.56.06.09.17.17.12.29S26.12,12,26,12H17.66c-.8,0-1.59,0-2.39,0a2.73,2.73,0,0,0-2.69,1.68,2.37,2.37,0,0,0-.31,1.43V23.2c-.22-.05-.24-.21-.35-.26S11.9,22.72,11.75,22.7ZM7.29,13.8a2.63,2.63,0,0,0,.46,1.63c.12.18.18.41.39.52a.3.3,0,0,0,.35,0,.15.15,0,0,0,0-.23c-.39-.23-.41-.69-.6-1a1.36,1.36,0,0,1,.54-1.89c.28-.18.57-.34.86-.52l2.43-1.49,1.6-1c.12-.08.23-.21.17-.35s-.21-.09-.35-.07c-.32.05-.46.31-.69.45l-1.35.82c-1,.61-2,1.17-2.95,1.83A1.51,1.51,0,0,0,7.29,13.8Zm8-5.33c0-.16-.1-.25-.23-.22a1.42,1.42,0,0,0-.71.46.22.22,0,0,0,.15.35A1.34,1.34,0,0,0,15.25,8.47Z"/><path class="cls-5" d="M22.62,18.26h9.43c.36,0,.44.09.43.44,0,1.53,0,3.07,0,4.61a2.46,2.46,0,0,1-2.58,2.58q-7.26,0-14.51,0a2.47,2.47,0,0,1-2.69-2.57c0-1.59,0-3.19,0-4.78,0-.37.23-.27.41-.27C16.27,18.25,19.44,18.26,22.62,18.26Zm-3.83,4.56a2,2,0,0,1,.18.23,2.36,2.36,0,0,0,4.18-2.18,2.34,2.34,0,0,0-3.07-1.24,4,4,0,0,0-1.34,1.18,2.05,2.05,0,0,0-.72-.9,2.37,2.37,0,0,0-3.52,3,2.4,2.4,0,0,0,2.72,1.22A2.63,2.63,0,0,0,18.79,22.82Zm10.87,1.11h1.08c.16,0,.3,0,.3-.21s-.13-.2-.27-.2H28.56c-.14,0-.27,0-.28.19s.13.22.29.22Zm0-1.05h1.13c.14,0,.27,0,.28-.19a.23.23,0,0,0-.25-.23c-.75,0-1.5,0-2.26,0a.23.23,0,0,0-.25.22c0,.17.13.2.27.2Zm0-1h1.09c.14,0,.27,0,.29-.17s-.12-.25-.26-.25H28.55c-.14,0-.29.06-.27.25s.15.17.29.17Z"/><path class="cls-5" d="M12.67,14.49a2.66,2.66,0,0,1,1.91-2.05,2.14,2.14,0,0,1,.62-.06H30a2.47,2.47,0,0,1,2.43,2.31c0,.26,0,.33-.32.33H13c-.16,0-.36.05-.36-.22C12.7,14.7,12.75,14.59,12.67,14.49Z"/><path class="cls-3" d="M22.55,17.75h-9.1c-.7,0-.7,0-.7-.72,0-.4,0-.81,0-1.21s.09-.36.34-.34h18.5a1.4,1.4,0,0,0,.46,0c.39-.14.43.08.43.38s0,.86,0,1.3-.1.61-.61.61Z"/><path class="cls-3" d="M11.92,22.94c.11,0,.13.21.35.26V18.77c.13.22.05.46.06.69a20.88,20.88,0,0,0,.08,2.5c.07.38-.13.76,0,1.15.05.15,0,.27-.22.26s-.28,0-.27-.22Z"/><path class="cls-3" d="M12.27,18V15.32a4.72,4.72,0,0,1,.06,1.4A3.93,3.93,0,0,1,12.27,18Z"/><path class="cls-3" d="M12.27,15.06a2.37,2.37,0,0,1,.31-1.43A3.54,3.54,0,0,1,12.27,15.06Z"/><path class="cls-3" d="M12.27,18.67v-.49C12.52,18.34,12.32,18.5,12.27,18.67Z"/><path class="cls-3" d="M12.67,14.49c.08.1,0,.21,0,.31Z"/><path class="cls-2" d="M10.88,21.59s0,.06,0,.07l-.07,0s0-.06,0-.07Z"/><path class="cls-2" d="M7.29,13.8a1.51,1.51,0,0,1,.85-1.35c1-.66,2-1.22,2.95-1.83l1.35-.82c.23-.14.37-.4.69-.45.14,0,.29-.08.35.07s-.05.27-.17.35l-1.6,1L9.28,12.25c-.29.18-.58.34-.86.52a1.36,1.36,0,0,0-.54,1.89c.19.35.21.81.6,1a.15.15,0,0,1,0,.23.3.3,0,0,1-.35,0c-.21-.11-.27-.34-.39-.52A2.63,2.63,0,0,1,7.29,13.8Z"/><path class="cls-2" d="M15.25,8.47a1.34,1.34,0,0,1-.79.59.22.22,0,0,1-.15-.35A1.42,1.42,0,0,1,15,8.25C15.15,8.22,15.26,8.31,15.25,8.47Z"/><path class="cls-4" d="M18.79,22.82a2.63,2.63,0,0,1-1.57,1.29A2.37,2.37,0,0,1,15.08,20a2.36,2.36,0,0,1,2.94-.1,2.05,2.05,0,0,1,.72.9A2.79,2.79,0,0,1,19,22.06C19,22.33,18.78,22.55,18.79,22.82Z"/><path class="cls-6" d="M18.79,22.82c0-.27.16-.49.18-.76a2.79,2.79,0,0,0-.23-1.25,4,4,0,0,1,1.34-1.18,2.37,2.37,0,0,1,2.14,4.22,2.36,2.36,0,0,1-3.25-.8A2,2,0,0,0,18.79,22.82Z"/><path class="cls-3" d="M29.66,23.93H28.57c-.16,0-.29,0-.29-.22s.14-.19.28-.19h2.21c.14,0,.27,0,.27.2s-.14.21-.3.21Z"/><path class="cls-2" d="M29.63,22.88H28.55c-.14,0-.27,0-.27-.2a.23.23,0,0,1,.25-.22c.76,0,1.51,0,2.26,0a.23.23,0,0,1,.25.23c0,.16-.14.19-.28.19Z"/><path class="cls-2" d="M29.65,21.87H28.57c-.14,0-.27,0-.29-.17s.13-.25.27-.25h2.22c.14,0,.29.08.26.25s-.15.17-.29.17Z"/></svg>