<svg id="Layer_1" data-name="Layer 1" xmlns="http://www.w3.org/2000/svg" viewBox="0 0 30 30"><defs><style>.cls-1{fill:#808181;}</style></defs><title>icon</title><path class="cls-1" d="M12.72,27.66H2.47A1.93,1.93,0,0,1,.54,25.72V3.33a1.93,1.93,0,0,1,2-1.94H9.55A6.38,6.38,0,0,1,10.17.6a1.9,1.9,0,0,1,3,.61.26.26,0,0,0,.29.18h6.93a1.93,1.93,0,0,1,1.94,1.94V9.72H16a3.21,3.21,0,0,0-2.54,1.14,3,3,0,0,0-.76,1.92c0,.73,0,1.46,0,2.19V27.66Zm-5.79-3.2A3.85,3.85,0,1,0,3.1,20.65,3.86,3.86,0,0,0,6.93,24.46ZM6.31,2.68V4.54A1.29,1.29,0,0,0,7.65,5.88h7.61a1.29,1.29,0,0,0,1.3-1.31V2.87a1.21,1.21,0,0,0,0-.19H13.26a2,2,0,0,1-3.65,0Zm0,10.23H5V11H3.74v1.92H2.47V14.2h9V12.91H10.15V10.37H8.86v2.54H7.59V9.09H6.3ZM12.08,2a.65.65,0,0,0-1.29,0,.65.65,0,0,0,1.29,0Z"/><path class="cls-1" d="M29.38,20.29v7.33a1.93,1.93,0,0,1-2,2H15.93A1.92,1.92,0,0,1,14,27.64V12.94A1.92,1.92,0,0,1,16,11H27.42a1.93,1.93,0,0,1,2,2Zm-7.7-2.88H26.1a.65.65,0,0,0,.71-.71c0-.8,0-1.61,0-2.42a.65.65,0,0,0-.71-.72H17.27a.66.66,0,0,0-.71.71v2.4a.67.67,0,0,0,.74.74Zm-3.86,3.2c.22,0,.44,0,.66,0a.58.58,0,0,0,.6-.46,4.36,4.36,0,0,0,0-.81.63.63,0,0,0-.64-.65c-.42,0-.85,0-1.28,0a.64.64,0,0,0-.64.65V20a.64.64,0,0,0,.64.65C17.41,20.62,17.62,20.61,17.82,20.61Zm3.86,0c.21,0,.43,0,.64,0a.57.57,0,0,0,.61-.47,4.36,4.36,0,0,0,0-.81.63.63,0,0,0-.63-.64c-.44,0-.87,0-1.3,0a.57.57,0,0,0-.59.47,4.36,4.36,0,0,0,0,.81.63.63,0,0,0,.63.64C21.25,20.62,21.47,20.61,21.68,20.61Zm3.85,4.49c-.21,0-.43,0-.64,0a.64.64,0,0,0-.64.63c0,.22,0,.43,0,.64a.63.63,0,0,0,.64.65c.42,0,.84,0,1.26,0a.64.64,0,0,0,.66-.65c0-.21,0-.42,0-.62a.63.63,0,0,0-.64-.65C26,25.09,25.74,25.1,25.53,25.1Zm-7.7-1.28h.66a.64.64,0,0,0,.63-.64c0-.21,0-.43,0-.64a.63.63,0,0,0-.64-.64H17.2a.64.64,0,0,0-.64.63v.64a.64.64,0,0,0,.65.65Zm3.85,0h.66a.58.58,0,0,0,.59-.47,4.4,4.4,0,0,0,0-.81.63.63,0,0,0-.63-.64H21a.62.62,0,0,0-.63.64c0,.2,0,.41,0,.62a.64.64,0,0,0,.67.66Zm3.84,0h.66a.64.64,0,0,0,.63-.64q0-.33,0-.66a.62.62,0,0,0-.62-.62h-1.3a.63.63,0,0,0-.64.63c0,.21,0,.43,0,.64a.65.65,0,0,0,.65.65Zm0-3.21c.21,0,.42,0,.64,0a.64.64,0,0,0,.64-.64c0-.21,0-.42,0-.62a.64.64,0,0,0-.65-.66H24.9a.65.65,0,0,0-.65.65V20a.64.64,0,0,0,.66.65C25.12,20.62,25.32,20.61,25.53,20.61ZM17.84,27c.21,0,.43,0,.64,0a.63.63,0,0,0,.64-.65c0-.2,0-.41,0-.62a.63.63,0,0,0-.64-.65c-.42,0-.85,0-1.28,0a.64.64,0,0,0-.64.65v.62a.65.65,0,0,0,.66.65Zm3.84,0h.64a.65.65,0,0,0,.65-.64v-.62a.65.65,0,0,0-.66-.66q-.63,0-1.26,0a.63.63,0,0,0-.64.64c0,.22,0,.43,0,.64A.64.64,0,0,0,21,27C21.25,27,21.47,27,21.68,27Z"/><path class="cls-1" d="M7,18.06v2.55H9.49a2.51,2.51,0,0,1-2.3,2.55A2.56,2.56,0,1,1,7,18.06Z"/></svg>