<svg id="Layer_1" data-name="Layer 1" xmlns="http://www.w3.org/2000/svg" viewBox="0 0 36 36"><defs><style>.cls-1{fill:#1a1a1a;}.cls-2{fill:#0dbcd4;stroke:#1a1a1a;stroke-miterlimit:10;stroke-width:0.75px;}</style></defs><title>icon</title><path class="cls-1" d="M33.23,7.63H9.85A2.12,2.12,0,0,0,7.73,9.75V33.13a2.12,2.12,0,0,0,2.12,2.12H33.23a2.12,2.12,0,0,0,2.12-2.12V9.75A2.12,2.12,0,0,0,33.23,7.63Zm0,25.5H9.85V9.75H33.23Z"/><path class="cls-1" d="M3.48,3.38H26.85V5.5H29V3.38a2.13,2.13,0,0,0-2.13-2.13H3.48A2.13,2.13,0,0,0,1.35,3.38V26.75a2.13,2.13,0,0,0,2.13,2.13H5.6V26.75H3.48Z"/><polygon class="cls-2" points="20.48 25.69 22.6 25.69 22.6 22.5 25.79 22.5 25.79 20.38 22.6 20.38 22.6 17.19 20.48 17.19 20.48 20.38 17.29 20.38 17.29 22.5 20.48 22.5 20.48 25.69"/></svg>