<svg id="Layer_1" data-name="Layer 1" xmlns="http://www.w3.org/2000/svg" viewBox="0 0 30 30"><defs><style>.cls-1{fill:#808181;}</style></defs><title>icon</title><path class="cls-1" d="M.39,17.6H29.78V3.9A3.52,3.52,0,0,0,26.26.38H5.17A4.78,4.78,0,0,0,.39,5.16ZM14.23,3H26.34V8.13H14.23Zm0,6.88H26.34V15H14.23ZM3.89,12.44A4.32,4.32,0,0,1,8.2,8.13a2.58,2.58,0,1,1,2.58-2.58A2.59,2.59,0,0,1,8.2,8.13a4.31,4.31,0,0,1,4.3,4.31V15H3.89Zm0,0"/><rect class="cls-1" x="0.39" y="19.33" width="29.39" height="5.28"/><path class="cls-1" d="M10.78,26.33v1.72H7.34v1.72h15.5V28.05H19.39V26.33Zm0,0"/></svg>