<svg id="Layer_1" data-name="Layer 1" xmlns="http://www.w3.org/2000/svg" viewBox="0 0 30 30"><defs><style>.cls-1{fill:#232c34;}</style></defs><title>icon</title><path class="cls-1" d="M27.54,17.7V5.51a2.37,2.37,0,0,0-2.37-2.38h-3a.59.59,0,0,0-.59.59v3A1.19,1.19,0,1,1,20,5.58.6.6,0,0,0,20.41,5V1.34a.6.6,0,0,0-1.19,0V3.13H10.31a.59.59,0,0,0-.6.59v3A1.19,1.19,0,1,1,8.13,5.58.6.6,0,0,0,8.52,5V1.34A.59.59,0,0,0,7.93.75a.6.6,0,0,0-.6.59V3.13H3.77A2.38,2.38,0,0,0,1.39,5.51v19A2.38,2.38,0,0,0,3.77,26.9H18.34a6.54,6.54,0,1,0,9.2-9.2Zm-10.7,5a6.62,6.62,0,0,0,.26,1.79H3.77V10.26h21.4v6.2a6.51,6.51,0,0,0-8.33,6.28Zm9.93-1.36-4.16,4.16a.55.55,0,0,1-.42.17.58.58,0,0,1-.42-.17L20,23.76a.6.6,0,0,1,0-.84.58.58,0,0,1,.84,0l1.36,1.36,3.74-3.74a.6.6,0,0,1,.84,0A.58.58,0,0,1,26.77,21.38Z"/></svg>