<svg id="Layer_1" data-name="Layer 1" xmlns="http://www.w3.org/2000/svg" viewBox="0 0 30 30"><defs><style>.cls-1{fill:#232c34;}</style></defs><title>icon</title><path class="cls-1" d="M27.22,3.12H5.73a.59.59,0,0,0-.19,0L4.73.5H1.14a.66.66,0,0,0-.66.66V2.47a.66.66,0,0,0,.66.65H2.79l4.1,13.46L5.36,18.37a2.71,2.71,0,0,0-.6,2.56,2.59,2.59,0,0,0,2.51,1.86H26.05a.65.65,0,0,0,.66-.65V20.82a.65.65,0,0,0-.66-.65H7.27l2.08-2.43a2.14,2.14,0,0,0,.13-.19H23.85L29.13,6.32a2.15,2.15,0,0,0,.2-.9V5.23A2.11,2.11,0,0,0,27.22,3.12Z"/><circle class="cls-1" cx="8.35" cy="26.73" r="2.62"/><circle class="cls-1" cx="24.09" cy="26.73" r="2.62"/></svg>