<svg id="Layer_1" data-name="Layer 1" xmlns="http://www.w3.org/2000/svg" xmlns:xlink="http://www.w3.org/1999/xlink" viewBox="0 0 36 36"><defs><style>.cls-1{fill:none;}.cls-2{fill:#0dbcd4;}.cls-3{fill:#07838f;}.cls-4{fill:#4655a5;}.cls-5{fill:#9e9e9e;}.cls-6{fill:#707070;}.cls-7{fill:#617d8c;}.cls-8{fill:#384850;}.cls-9{fill:#026a5d;}.cls-10{fill:#f5f5f5;}.cls-11{clip-path:url(#clip-path);}.cls-12{fill:#1a1a1a;}</style><clipPath id="clip-path"><rect id="SVGID" class="cls-1" x="0.79" y="1.45" width="34.05" height="34.05"/></clipPath></defs><title>icon</title><path class="cls-2" d="M26.33,4.29v26.1a2.27,2.27,0,0,1-2.27,2.27L3.63,31.53a2.27,2.27,0,0,1-2.27-2.27V9.39H6.47A2.27,2.27,0,0,0,8.74,7.12V2H24.06a2.27,2.27,0,0,1,2.27,2.27Zm0,0"/><path class="cls-3" d="M24.06,2h-1.7a2.27,2.27,0,0,1,2.27,2.27v26.1a2.27,2.27,0,0,1-2.27,2.27h1.7a2.27,2.27,0,0,0,2.27-2.27V4.29A2.27,2.27,0,0,0,24.06,2Zm0,0"/><path class="cls-4" d="M28.6,6.56v25a2.27,2.27,0,0,1-2.27,2.27H5.9a2.27,2.27,0,0,1-2.27-2.27H24.06a2.27,2.27,0,0,0,2.27-2.27v-25A2.27,2.27,0,0,1,28.6,6.56Zm0,0"/><path class="cls-5" d="M29.85,34.93H18.26a1.14,1.14,0,0,1-1.13-1L15,15.64H33.14L31,33.92a1.13,1.13,0,0,1-1.13,1Zm0,0"/><path class="cls-6" d="M31.44,15.64,29.28,33.92a1.13,1.13,0,0,1-1.13,1h1.7a1.13,1.13,0,0,0,1.13-1l2.16-18.28Zm0,0"/><path class="cls-7" d="M15,12.8H33.14a1.13,1.13,0,0,1,1.13,1.13v.57a1.13,1.13,0,0,1-1.13,1.14H15a1.14,1.14,0,0,1-1.14-1.14v-.57A1.14,1.14,0,0,1,15,12.8Zm0,0"/><path class="cls-8" d="M33.14,12.8h-1.7a1.14,1.14,0,0,1,1.13,1.13v.57a1.14,1.14,0,0,1-1.13,1.14h1.7a1.13,1.13,0,0,0,1.13-1.14v-.57a1.13,1.13,0,0,0-1.13-1.13Zm0,0"/><path class="cls-7" d="M19.52,10H28.6a1.13,1.13,0,0,1,1.13,1.14v1.7H18.38V11.1A1.14,1.14,0,0,1,19.52,10Zm0,0"/><path class="cls-8" d="M28.6,10H26.9A1.14,1.14,0,0,1,28,11.1v1.7h1.7V11.1A1.13,1.13,0,0,0,28.6,10Zm0,0"/><path class="cls-9" d="M8.74,2v5.1A2.27,2.27,0,0,1,6.47,9.39H1.36Zm0,0"/><path class="cls-10" d="M20.65,4.85h-3.4a.57.57,0,1,1,0-1.13h3.4a.57.57,0,1,1,0,1.13Zm0,0"/><g class="cls-11"><path class="cls-10" d="M24.06,4.85H22.92a.57.57,0,0,1,0-1.13h1.14a.57.57,0,1,1,0,1.13Zm0,0"/><path class="cls-12" d="M33.14,12.23H30.3V11.1a1.71,1.71,0,0,0-1.13-1.6V6.56a2.85,2.85,0,0,0-2.33-2.79,2.83,2.83,0,0,0-2.78-2.32H8.74a.58.58,0,0,0-.41.17L1,9a.56.56,0,0,0-.17.4V29.26A2.84,2.84,0,0,0,3.11,32,2.83,2.83,0,0,0,5.9,34.36H16.66a1.7,1.7,0,0,0,1.6,1.14H29.85A1.69,1.69,0,0,0,31.54,34l2.11-17.87a1.7,1.7,0,0,0,1.19-1.62v-.57a1.7,1.7,0,0,0-1.7-1.7Zm-4.54-1.7a.57.57,0,0,1,.57.57v1.13H19V11.1a.56.56,0,0,1,.57-.57Zm-.57-4V9.39H26.9V5A1.71,1.71,0,0,1,28,6.56ZM8.17,3.39V7.12a1.71,1.71,0,0,1-1.7,1.71H2.73ZM1.93,29.26V10H6.47A2.84,2.84,0,0,0,9.3,7.12V2.58H24.06a1.71,1.71,0,0,1,1.7,1.71v5.1H19.52a1.71,1.71,0,0,0-1.7,1.71v1.13H15a1.7,1.7,0,0,0-1.7,1.7v.57a1.71,1.71,0,0,0,1.18,1.62L16.21,31H3.63a1.7,1.7,0,0,1-1.7-1.7ZM4.3,32.1H16.35l.13,1.13H5.9A1.71,1.71,0,0,1,4.3,32.1Zm26.11,1.76a.56.56,0,0,1-.56.5H18.26a.56.56,0,0,1-.56-.51L15.62,16.2H32.5Zm3.3-19.36a.57.57,0,0,1-.57.57H15a.56.56,0,0,1-.57-.57v-.57a.56.56,0,0,1,.57-.56H33.14a.57.57,0,0,1,.57.56Zm0,0"/></g><path class="cls-12" d="M24.06,33.23a.57.57,0,0,0,.57-.57V17.91a.57.57,0,0,0-1.14,0V32.66a.57.57,0,0,0,.57.57Zm0,0"/><path class="cls-12" d="M20.65,33.23h.07a.58.58,0,0,0,.5-.63L19.51,17.84a.56.56,0,0,0-1.12.13l1.7,14.76a.57.57,0,0,0,.56.5Zm0,0"/><path class="cls-12" d="M27.4,33.23h.06a.58.58,0,0,0,.57-.5L29.73,18a.55.55,0,0,0-.22-.53.56.56,0,0,0-.57-.07.59.59,0,0,0-.34.47L26.9,32.6a.57.57,0,0,0,.5.63Zm0,0"/></svg>