<svg id="Layer_1" data-name="Layer 1" xmlns="http://www.w3.org/2000/svg" viewBox="0 0 30 30"><defs><style>.cls-1{fill:#232c34;}</style></defs><title>icon</title><path class="cls-1" d="M5.18,14.27a2.51,2.51,0,0,0,1.74-.7L9.4,14.81c0,.1,0,.2,0,.3a2.51,2.51,0,0,0,5,0A2.41,2.41,0,0,0,14.14,14l3.36-3.37a2.45,2.45,0,0,0,1.08.25,2.51,2.51,0,0,0,2.51-2.51A2.55,2.55,0,0,0,21,7.67l2.92-2.19a2.56,2.56,0,0,0,1.39.42,2.51,2.51,0,1,0-2.51-2.51,2.6,2.6,0,0,0,.12.74L20,6.32a2.56,2.56,0,0,0-1.39-.42,2.51,2.51,0,0,0-2.51,2.51,2.45,2.45,0,0,0,.25,1.08L13,12.85a2.48,2.48,0,0,0-2.82.46L7.66,12.07a3,3,0,0,0,0-.31,2.51,2.51,0,1,0-2.51,2.51Zm0,0"/><path class="cls-1" d="M28.69,27.79h-.9V10.09A.83.83,0,0,0,27,9.25H23.6a.83.83,0,0,0-.83.84v17.7H21.09V15.11a.84.84,0,0,0-.84-.84H16.91a.84.84,0,0,0-.84.84V27.79H14.39v-6a.84.84,0,0,0-.83-.84H10.21a.84.84,0,0,0-.84.84v6H7.69V18.46a.84.84,0,0,0-.83-.84H3.51a.84.84,0,0,0-.84.84v9.33h-.9a.84.84,0,0,0,0,1.67H28.69a.84.84,0,0,0,0-1.67Zm0,0"/></svg>