<svg id="Layer_1" data-name="Layer 1" xmlns="http://www.w3.org/2000/svg" viewBox="0 0 30 30"><defs><style>.cls-1{fill:#fff;}.cls-2{fill:#232c34;}</style></defs><title>icon</title>
<path class="cls-1" d="M13.86,16.67a3.2,3.2,0,0,1,.6.82l-1.41.26a8.45,8.45,0,0,1,.81-1.08Zm0,0"/><path class="cls-1" d="M17.12,14.18a1.25,1.25,0,1,1-1.25-1.25,1.25,1.25,0,0,1,1.25,1.25Zm0,0"/><path class="cls-2" d="M22.85,15.36h0a5.68,5.68,0,0,1,.34,1.93v8.16a2.36,2.36,0,0,1-.14.8h1.41A4.57,4.57,0,0,0,29,21.68v-.13A6.18,6.18,0,0,0,22.85,15.36Z"/><path class="cls-2" d="M7,25.45V17.29a5.68,5.68,0,0,1,.34-1.93h0a6.19,6.19,0,0,0-6.18,6.19v.13a4.58,4.58,0,0,0,4.57,4.57H7.12A2.36,2.36,0,0,1,7,25.45Z"/><path class="cls-2" d="M11.56,26.25h7.06a3,3,0,0,0,3-3V19.45a6.18,6.18,0,0,0-6.18-6.18h-.62A6.17,6.17,0,0,0,8.6,19.45v3.84A3,3,0,0,0,11.56,26.25Z"/><path class="cls-2" d="M17.45,11.65a4.84,4.84,0,1,0-4.73,0,4.82,4.82,0,0,0,4.73,0Z"/><path class="cls-2" d="M9.78,12.43A3.62,3.62,0,1,0,3,10.49a3.67,3.67,0,0,0,3.5,3.85A3.59,3.59,0,0,0,8,14.05,3.62,3.62,0,0,0,9.78,12.43Z"/><path class="cls-2" d="M22.16,14.05a3.59,3.59,0,0,0,1.54.29,3.69,3.69,0,0,0,3.51-3.85,3.62,3.62,0,1,0-5.05,3.56Z"/>
</svg>