<svg id="Layer_1" data-name="Layer 1" xmlns="http://www.w3.org/2000/svg" viewBox="0 0 30 30"><defs><style>.cls-1{fill:#232c34;}</style></defs><title>icon</title><path class="cls-1" d="M5.13,8.62a.85.85,0,0,0-.85.85v.86H1.71a.85.85,0,0,0-.86.86v5.14a.86.86,0,0,0,.86.86H4.28V18a.85.85,0,0,0,.85.86h.52L9.1,28.09a1.68,1.68,0,0,0,1.26,1.06,1.37,1.37,0,0,0,.34,0,1.65,1.65,0,0,0,1.21-.51l2.06-2a1.71,1.71,0,0,0,.31-2L11.41,18.9h2.27c.3,0,.59.06.88.09V8.53l-.88.09Z"/><path class="cls-1" d="M28.14,2.17l-.06-.08a.75.75,0,0,0-.36-.27,0,0,0,0,0,0,0s0,0-.05,0a.64.64,0,0,0-.24-.05,1,1,0,0,0-.17,0l-.09,0a.88.88,0,0,0-.38.24s0,0,0,0A18,18,0,0,1,16.28,8.28v11a18,18,0,0,1,10.48,6.21l0,0a.65.65,0,0,0,.21.16l.07.05a.85.85,0,0,0,.35.08,1,1,0,0,0,.29-.05,0,0,0,0,0,0,0,.77.77,0,0,0,.36-.28l.06-.08a.82.82,0,0,0,.14-.44V2.62A.85.85,0,0,0,28.14,2.17Z"/></svg>