<svg id="Layer_1" data-name="Layer 1" xmlns="http://www.w3.org/2000/svg" viewBox="0 0 30 30"><defs><style>.cls-1{fill:#808181;}</style></defs><title>icon</title><path class="cls-1" d="M27.11,5.12h-24C1.72,5.12.63,5.89.63,6.85V19.4c0,3.46,3.94,6.26,8.81,6.26h11.3c4.86,0,8.81-2.8,8.81-6.26V6.85C29.55,5.89,28.46,5.12,27.11,5.12ZM7.2,22.86C5.75,22.86,4.57,22,4.57,21s1.18-1.87,2.63-1.87S9.83,20,9.83,21,8.65,22.86,7.2,22.86ZM9.83,12.12c0,.26-.3.47-.66.47H8.51c-.36,0-.65.21-.65.46v3.74c0,.26-.3.47-.66.47s-.66-.21-.66-.47V13.05c0-.25-.29-.46-.65-.46H5.23c-.36,0-.66-.21-.66-.47V10.25c0-.26.3-.46.66-.46h.66c.36,0,.65-.21.65-.47V8.38c0-.25.3-.46.66-.46s.66.21.66.46v.94c0,.26.29.47.65.47h.66c.36,0,.66.2.66.46Zm5.26,10.74c-1.45,0-2.63-.84-2.63-1.87s1.18-1.87,2.63-1.87S17.72,20,17.72,21,16.54,22.86,15.09,22.86Zm2.63-7.94c0,.26-.3.47-.66.47H16.4c-.36,0-.66.21-.66.47v.93c0,.26-.29.47-.65.47s-.66-.21-.66-.47v-.93c0-.26-.29-.47-.66-.47h-.65c-.37,0-.66-.21-.66-.47V13.05c0-.25.29-.46.66-.46h.65c.37,0,.66-.21.66-.47V8.38c0-.25.3-.46.66-.46s.65.21.65.46v3.74c0,.26.3.47.66.47h.66c.36,0,.66.21.66.46ZM23,22.86c-1.45,0-2.63-.84-2.63-1.87s1.18-1.87,2.63-1.87S25.6,20,25.6,21,24.43,22.86,23,22.86ZM25.6,14c0,.26-.29.46-.65.46h-.66c-.36,0-.66.21-.66.47v1.87c0,.26-.29.47-.65.47s-.66-.21-.66-.47V14.92c0-.26-.3-.47-.66-.47H21c-.36,0-.65-.2-.65-.46V12.12c0-.26.29-.47.65-.47h.66c.36,0,.66-.21.66-.46V8.38c0-.25.29-.46.66-.46s.65.21.65.46v2.81c0,.25.3.46.66.46H25c.36,0,.65.21.65.47Z"/></svg>