<svg id="Layer_1" data-name="Layer 1" xmlns="http://www.w3.org/2000/svg" viewBox="0 0 30 30"><defs><style>.cls-1{fill:#808181;}</style></defs><title>icon</title><path class="cls-1" d="M27.78,24H23.25a5.18,5.18,0,0,1,0-10.35h4.53a.65.65,0,0,0,.65-.64V11A2.59,2.59,0,0,0,26,8.45L22.33,2A2.55,2.55,0,0,0,18.82,1L6.09,8.43H3.85A2.59,2.59,0,0,0,1.26,11V26.54a2.59,2.59,0,0,0,2.59,2.58h22a2.59,2.59,0,0,0,2.59-2.58V24.6A.65.65,0,0,0,27.78,24ZM18.9,8.43,23.13,6l1.41,2.46Zm.57-6.3a1.28,1.28,0,0,1,1-.13,1.31,1.31,0,0,1,.78.6h0l-10,5.82H8.66Z"/><path class="cls-1" d="M27.78,14.9H23.25a3.88,3.88,0,0,0,0,7.76h4.53a1.94,1.94,0,0,0,1.94-1.94V16.84A1.94,1.94,0,0,0,27.78,14.9Zm-4.53,5.17a1.3,1.3,0,1,1,1.29-1.29A1.29,1.29,0,0,1,23.25,20.07Z"/></svg>