<svg id="Layer_1" data-name="Layer 1" xmlns="http://www.w3.org/2000/svg" viewBox="0 0 30 30"><defs><style>.cls-1{fill:#808181;}</style></defs><title>icon</title><path class="cls-1" d="M16.88,14.62A7.47,7.47,0,0,0,16,11.47l.91-.51a8.32,8.32,0,0,0-1.77-2.2l-.69.78A7.43,7.43,0,0,0,11.53,8l.28-1h0a8.29,8.29,0,0,0-2.3-.32L9,6.65l.06,1a7.51,7.51,0,0,0-3.16.92l-.5-.91A8.33,8.33,0,0,0,3.2,9.46l.78.7A7.29,7.29,0,0,0,2.4,13l-1-.29v0a8.34,8.34,0,0,0-.32,2.3c0,.16,0,.33,0,.49l1-.06a7.47,7.47,0,0,0,.92,3.15l-.92.51a8.32,8.32,0,0,0,1.77,2.2l.69-.78a7.45,7.45,0,0,0,2.88,1.59l-.29,1h0a8.34,8.34,0,0,0,2.3.32l.51,0-.07-1a7.38,7.38,0,0,0,3.16-.93l.51.92a8.7,8.7,0,0,0,2.2-1.77L15,20a7.31,7.31,0,0,0,1.59-2.88l1,.29h0a8.29,8.29,0,0,0,.32-2.3c0-.17,0-.33,0-.5ZM7.67,21.54h0l.06-.18Zm6.14-5.26a4.49,4.49,0,0,1-4.3,3.26,4.72,4.72,0,0,1-1.22-.17A4.47,4.47,0,0,1,5,15.07a4.33,4.33,0,0,1,.17-1.22A4.48,4.48,0,0,1,9.5,10.59a4.74,4.74,0,0,1,1.22.18A4.48,4.48,0,0,1,14,15.06,4.72,4.72,0,0,1,13.81,16.28Z"/><path class="cls-1" d="M29.72,11.44l-.7.13A5.21,5.21,0,0,0,28.46,10l.62-.34a5.92,5.92,0,0,0-1.87-2l-.39.59a5.44,5.44,0,0,0-1.48-.7l.19-.67h0a5.66,5.66,0,0,0-1.62-.23,6,6,0,0,0-1.12.11l.14.69A5.27,5.27,0,0,0,21.36,8L21,7.37A5.89,5.89,0,0,0,19,9.23l.58.4a5.18,5.18,0,0,0-.7,1.48l-.67-.2V11a5.61,5.61,0,0,0-.23,1.62,6.72,6.72,0,0,0,.1,1.1l.7-.14a5.15,5.15,0,0,0,.55,1.54l-.62.34h0a5.91,5.91,0,0,0,1.86,2.06l.39-.58a5.44,5.44,0,0,0,1.48.7l-.2.67h0l.06,0a6.11,6.11,0,0,0,1.63.23A5.45,5.45,0,0,0,25,18.4l-.14-.69a5.19,5.19,0,0,0,1.54-.57l.34.62a5.89,5.89,0,0,0,2-1.87l-.58-.39A5.08,5.08,0,0,0,28.92,14l.67.2v0a6,6,0,0,0,.22-1.62A6.09,6.09,0,0,0,29.72,11.44Zm-5.84,4.67a3.58,3.58,0,0,1-1-.13,3.53,3.53,0,0,1-2.57-3.4,3.6,3.6,0,0,1,.13-1A3.53,3.53,0,0,1,23.88,9a3.65,3.65,0,0,1,1,.13,3.54,3.54,0,0,1,2.57,3.4,3.3,3.3,0,0,1-.14,1A3.53,3.53,0,0,1,23.88,16.11Z"/></svg>