<svg id="Layer_1" data-name="Layer 1" xmlns="http://www.w3.org/2000/svg" viewBox="0 0 30 30"><defs><style>.cls-1{fill:#808181;}</style></defs><title>icon</title><path class="cls-1" d="M29.65,26.75a6.94,6.94,0,0,1-.22.78,3.17,3.17,0,0,1-2.62,2.11,9.08,9.08,0,0,1-1.28.05H5.75a3.28,3.28,0,0,1-3.22-2.83,10,10,0,0,1,0-1.22c0-2.81,0-5.61,0-8.42V16.15c.33.25.64.49,1,.7a8.63,8.63,0,0,0,1.06.62.36.36,0,0,1,.22.37c0,1.36,0,2.72,0,4.08v4.42a1.14,1.14,0,0,0,.42,1,1.33,1.33,0,0,0,.84.24H25.56c.22,0,.45,0,.67,0a1.1,1.1,0,0,0,1.19-1.19c0-1.3,0-2.61,0-3.91q0-3.71,0-7.41c0-1.05,0-2.11,0-3.17,0-.17,0-.22-.22-.22H17.92a9.38,9.38,0,0,0-.46-6.75h3.12a1.48,1.48,0,0,0,0,.21c0,.76,0,1.51,0,2.27a2.26,2.26,0,0,0,1.94,2A2.29,2.29,0,0,0,25.1,7.58a8.3,8.3,0,0,0,0-1.22c0-.48,0-1,0-1.44l.1,0c.53,0,1.06,0,1.58,0a3.27,3.27,0,0,1,2.78,2.77s0,.08,0,.12Z"/><path class="cls-1" d="M9.33.37c.32,0,.64.09,1,.15A8.3,8.3,0,0,1,13.5,1.87a8.49,8.49,0,0,1,2.59,2.84,8.34,8.34,0,0,1,1.08,3.57,8.13,8.13,0,0,1-1,4.54A8.41,8.41,0,0,1,12,16.64a8,8,0,0,1-2.74.67,8.2,8.2,0,0,1-5.76-1.78,8.29,8.29,0,0,1-3.2-5.41A8,8,0,0,1,.83,5.7c.19-.43.39-.85.57-1.28a.21.21,0,0,0,0-.2c-.29-.28-.59-.55-.9-.8A.32.32,0,0,1,.35,3a.34.34,0,0,1,.24-.18c.62-.09,1.24-.18,1.86-.21s1.25,0,1.87,0a.36.36,0,0,1,.4.38,16,16,0,0,1-.15,3.32c0,.11,0,.21-.07.32-.06.28-.28.36-.51.17s-.56-.47-.83-.71L3,6a2.72,2.72,0,0,0-.65,1.14,5.36,5.36,0,0,0-.26,1.49A2,2,0,0,1,2,8.86.57.57,0,0,0,2,9,6.76,6.76,0,0,0,2.78,12a6.54,6.54,0,0,0,2,2.26,6.31,6.31,0,0,0,3,1.23,6.53,6.53,0,0,0,4.71-1,6.59,6.59,0,0,0,2.77-3.83A6.7,6.7,0,0,0,9.23,2.18a6.12,6.12,0,0,0-3.16.56l-.19.08A1.7,1.7,0,0,0,4.49,1.43l1-.45A8.61,8.61,0,0,1,7.9.4L8,.37Z"/><path class="cls-1" d="M7.36,8.89A1.15,1.15,0,0,1,8.67,7.64a.36.36,0,0,0,.26-.09L11.62,5a.46.46,0,0,1,.45-.15.46.46,0,0,1,.23.8L11,7.22c-.36.41-.72.81-1.07,1.23a.41.41,0,0,0-.09.26,1.45,1.45,0,0,1-.33,1,.31.31,0,0,0-.05.17l-.15,2.52a.65.65,0,0,1-.34.64.58.58,0,0,1-.62,0,.48.48,0,0,1-.17-.29L7.91,10a.24.24,0,0,0-.06-.17A1.22,1.22,0,0,1,7.36,8.89Z"/><path class="cls-1" d="M21.74,5.44V3.74a1,1,0,0,1,.63-1,1.16,1.16,0,0,1,1.27.17,1.06,1.06,0,0,1,.35.83C24,4.88,24,6,24,7.17a1.05,1.05,0,0,1-.71,1,1.12,1.12,0,0,1-1.54-1.08V5.44Z"/><path class="cls-1" d="M19.45,16.19H17.22V14h2.23Z"/><path class="cls-1" d="M24,16.19H21.75V14H24Z"/><path class="cls-1" d="M8.16,18.51h2.23v2.21H8.16Z"/><path class="cls-1" d="M14.92,18.51v2.21H12.69V18.51Z"/><path class="cls-1" d="M17.22,20.71v-2.2h2.23v2.2Z"/><path class="cls-1" d="M21.75,20.71v-2.2H24v2.2Z"/><path class="cls-1" d="M8.15,25.24V23.05h2.23a.59.59,0,0,1,0,.13v1.93c0,.09,0,.16-.13.16H8.2Z"/><path class="cls-1" d="M12.68,25.25v-2.2h2.24v2.2Z"/><path class="cls-1" d="M19.45,25.26H17.22V23.05h2.23Z"/><path class="cls-1" d="M21.76,23H24v2.21H21.76Z"/></svg>