<?xml version="1.0" encoding="utf-8"?>
<!-- Generator: Adobe Illustrator 21.1.0, SVG Export Plug-In . SVG Version: 6.00 Build 0)  -->
<svg version="1.1" xmlns="http://www.w3.org/2000/svg" xmlns:xlink="http://www.w3.org/1999/xlink" width="220.7px" height="156px" viewBox="0 0 220.7 156">
	<path d="M215.5,36c-5-4-10-10-13-15c-2.2-3.7-4.4-6.8-7.8-9.4c2.9-0.9,6.6-2.1,8.8-2.6c4-1-1-3-5-3s-8,3-8,3s4-8-2-9 c0,0-2,10-9,13s-19,13-27,15s-26,9-76,3s-56,0-65,13s-9,42-9,42s-9,9,7,25c0,0,8-18-2-26c0,0-1-14,2-24c0,0,2,22,10,37s4,20,3,27 s-1,32,2,31h10c0,0-0.5-4.2-0.4-10h5.4c-0.7-2,0.4-18.3,1.2-29.2c1.6-2.3,3.4-4.3,5.8-5.8c0,0,46,5,75-5c0,0,7.5-1.5,11.5,0.4 c-1,9.7-3.1,32.3-1.5,38.6c0,0,0,2.4,5,0.8c0.7,5.7,1.7,9.9,3,10.2h10c0,0,1-42,8-53s28-55,28-55s14,0,19,1s10,0,14-4 S220.5,40,215.5,36z"/>
</svg>
