<?xml version="1.0" encoding="utf-8"?>
<!-- Generator: Adobe Illustrator 21.1.0, SVG Export Plug-In . SVG Version: 6.00 Build 0)  -->
<svg version="1.1" xmlns="http://www.w3.org/2000/svg" xmlns:xlink="http://www.w3.org/1999/xlink" width="320.4px" height="585px" viewBox="0 0 320.4 585">
<path d="M209.9,128.3C209.9,128.3,209.9,128.3,209.9,128.3C209.9,128.3,209.8,128.3,209.9,128.3z M317.7,312.5
	l-78.4-167.8c-5.3-11.3-18.3-16.6-29.4-16.4c0,0,0.1,0,0,0H108.7c0,0-0.1,0-0.1,0c-11.3-0.6-22.4,5.5-27.5,16.4L2.7,312.5
	c-6.6,14.2-0.5,31.2,13.8,37.9l0,0c14.2,6.6,31.2,0.5,37.9-13.8l30.5-65.2l0,0L36.3,449.6h49.4v106.9c0,15.7,12.8,28.5,28.5,28.5
	l0,0c15.7,0,28.5-12.8,28.5-28.5V449.6h15.5h4h15.5v106.9c0,15.7,12.8,28.5,28.5,28.5l0,0c15.7,0,28.5-12.8,28.5-28.5V449.6h49.4
	l-50.4-182.1l0,0l32.3,69.2c6.6,14.2,23.7,20.4,37.9,13.8l0,0C318.2,343.7,324.4,326.7,317.7,312.5z M160.2,0
	c31.8,0,57.5,25.7,57.5,57.5S192,115,160.2,115s-57.5-25.7-57.5-57.5S128.4,0,160.2,0z"/>
</svg>
