<svg id="Layer_1" data-name="Layer 1" xmlns="http://www.w3.org/2000/svg" viewBox="0 0 30 30"><defs><style>.cls-1{fill:#808181;}</style></defs><title>icon</title><path class="cls-1" d="M27.41,19.6V7.51a2.29,2.29,0,0,0-2.28-2.28H23.64V6.37a1.14,1.14,0,0,1-2.28,0V5.23H16.17V6.37a1.14,1.14,0,0,1-2.28,0V5.23H8.76V6.37a1.14,1.14,0,0,1-2.28,0V5.23H5.05A2.28,2.28,0,0,0,2.77,7.51V25.3a2.29,2.29,0,0,0,2.28,2.29H25.13a2.29,2.29,0,0,0,2.28-2.29,1.14,1.14,0,0,1,2.28,0,4.57,4.57,0,0,1-4.56,4.57H5.05A4.57,4.57,0,0,1,.49,25.3V7.51A4.56,4.56,0,0,1,5.05,3H6.48V1.81a1.14,1.14,0,1,1,2.28,0V3h5.13V1.81a1.14,1.14,0,1,1,2.28,0V3h5.19V1.81a1.14,1.14,0,1,1,2.28,0V3h1.49a4.56,4.56,0,0,1,4.56,4.56V19.6a1.14,1.14,0,1,1-2.28,0Zm-18.65-7a1.14,1.14,0,1,0-2.28,0h0a1.14,1.14,0,1,0,2.28,0Zm9.92,0h0a1.14,1.14,0,0,0-2.28,0h0a1.14,1.14,0,1,0,2.28,0Zm5,0a1.14,1.14,0,0,0-2.28,0h0a1.14,1.14,0,1,0,2.28,0Zm-14.88,5a1.14,1.14,0,1,0-2.28,0h0a1.14,1.14,0,1,0,2.28,0ZM7.62,21.43a1.14,1.14,0,0,0-1.14,1.14h0a1.14,1.14,0,1,0,2.28,0h0A1.14,1.14,0,0,0,7.62,21.43Zm6.1-8.79a1.14,1.14,0,0,0-2.28,0h0a1.14,1.14,0,1,0,2.28,0Zm0,5a1.14,1.14,0,0,0-2.28,0h0a1.14,1.14,0,1,0,2.28,0Zm-1.14,3.83a1.14,1.14,0,0,0-1.14,1.14h0a1.14,1.14,0,0,0,2.28,0h0A1.14,1.14,0,0,0,12.58,21.43Zm3.82-2.68a2.29,2.29,0,0,1,2.28-2.29h2.68a2.29,2.29,0,0,1,2.28,2.29v2.68a2.29,2.29,0,0,1-2.28,2.28H18.68a2.29,2.29,0,0,1-2.28-2.28Zm2.28,2.68h2.68V18.75H18.68Z"/></svg>