<svg xmlns="http://www.w3.org/2000/svg" viewBox="0 0 58.53 56.09"><defs><style>.cls-1{fill:#fff;}</style></defs><title>cart</title><g id="Layer_2" data-name="Layer 2"><g id="Layer_1-2" data-name="Layer 1"><path class="cls-1" d="M.66,46.47A1.67,1.67,0,0,0,3,46.09c.56-.72,1.09-1.47,1.6-2.23a5.41,5.41,0,0,1,4.81-2.45c11.23,0,22.47,0,33.7,0a5,5,0,0,0,4.45-2.25,4.72,4.72,0,0,0,.28-5,5,5,0,0,0-4.52-2.76c-.36,0-.73,0-1.21,0,.62-2,1.19-4,1.78-5.86,2.15-7,4.32-14.06,6.44-21.1a1.26,1.26,0,0,1,1.49-1.1c1.63.07,3.26,0,4.89,0a1.63,1.63,0,0,0,1.8-1.55A1.61,1.61,0,0,0,56.9,0c-2.48-.07-5-.06-7.46,0-.95,0-1.44.67-1.7,1.55-.8,2.68-1.66,5.34-2.42,8a1.35,1.35,0,0,1-1.57,1.19q-20.5-.05-41,0c-1.94,0-2.61.88-2,2.73q3,9.81,6,19.62c.39,1.27.82,1.59,2.17,1.59H42.51a5.35,5.35,0,0,1,1.44.15,1.62,1.62,0,0,1,1.13,1.72,1.64,1.64,0,0,1-1.55,1.46c-.48,0-1,0-1.46,0q-16.21,0-32.42,0a8.85,8.85,0,0,0-7.93,4.08c-.46.69-1,1.34-1.42,2A1.64,1.64,0,0,0,.66,46.47Zm37-15.08-11.05,0V24.45H40.75q-.92,3-1.84,6.07A1,1,0,0,1,37.71,31.39ZM7.57,24.45h15.9v6.92l-12.78,0a1.13,1.13,0,0,1-1.31-1Q8.48,27.44,7.57,24.45Zm15.9-10.28v7.09H6.6l-1.85-6c-.1-.32-.16-.65-.25-1Zm20.35,0c-.08.34-.14.62-.22.88l-1.89,6.21H26.66V14.17Z"/><path class="cls-1" d="M29,49.53a6.57,6.57,0,1,0,6.57-6.68A6.59,6.59,0,0,0,29,49.53Zm3.34,0a3.23,3.23,0,1,1,3.26,3.25A3.24,3.24,0,0,1,32.34,49.48Z"/><path class="cls-1" d="M5.54,49.47a6.62,6.62,0,1,0,6.6-6.62A6.69,6.69,0,0,0,5.54,49.47Zm3.36,0a3.33,3.33,0,0,1,3.27-3.28,3.27,3.27,0,0,1,0,6.53A3.32,3.32,0,0,1,8.9,49.49Z"/></g></g></svg>