<svg xmlns="http://www.w3.org/2000/svg" viewBox="0 0 6.69 9.99"><defs><style>.cls-1{fill:#a7a9ac;}</style></defs><title>delete</title><g id="Layer_2" data-name="Layer 2"><g id="Layer_1-2" data-name="Layer 1"><path class="cls-1" d="M0,1.85,6.69,1.3l0-.59-2,.17,0-.26A.67.67,0,0,0,3.88,0L2.61.11A.67.67,0,0,0,2,.83l0,.26L0,1.26ZM2.44.79a.22.22,0,0,1,.2-.24L3.92.45a.22.22,0,0,1,.24.2l0,.26-1.72.14Z"/><path class="cls-1" d="M0,1.89v.6H.34V9.55A.45.45,0,0,0,.79,10H5.91a.45.45,0,0,0,.45-.45V2.49h.33v-.6Z"/></g></g></svg>