<svg xmlns="http://www.w3.org/2000/svg" viewBox="0 0 6.81 6.77"><defs><style>.cls-1{fill:#1a1a1a;}.cls-2{fill:#00bc00;}.cls-2,.cls-3{stroke:#1a1a1a;stroke-miterlimit:10;stroke-width:0.75px;}.cls-3{fill:#00bcd4;}</style></defs><title>edit</title><g id="Layer_2" data-name="Layer 2"><g id="Layer_1-2" data-name="Layer 1"><path class="cls-1" d="M6.25,4.26a.17.17,0,0,0-.17.17v1.5a.51.51,0,0,1-.51.51H.84a.51.51,0,0,1-.51-.51V1.54A.51.51,0,0,1,.84,1h1.5a.17.17,0,1,0,0-.34H.84A.84.84,0,0,0,0,1.54V5.93a.84.84,0,0,0,.84.84H5.57a.84.84,0,0,0,.84-.84V4.43a.17.17,0,0,0-.17-.17Zm0,0"/><path class="cls-2" d="M2.64,3.38,5.1.92l.79.79L3.43,4.17Zm0,0"/><path class="cls-3" d="M2.23,4.57l.88-.24-.63-.63Zm0,0"/><path class="cls-3" d="M6.11.5a.42.42,0,0,0-.6,0L5.34.68l.79.79.18-.18a.42.42,0,0,0,0-.6Zm0,0"/></g></g></svg>