<svg xmlns="http://www.w3.org/2000/svg" viewBox="0 0 14.82 15.23"><defs><style>.cls-1{fill:#a7a9ac;}</style></defs><title>like</title><g id="Layer_2" data-name="Layer 2"><g id="Layer_1-2" data-name="Layer 1"><rect class="cls-1" x="10.61" y="6.37" width="4.18" height="7.93" transform="translate(25.31 20.78) rotate(-179.54)"/><path class="cls-1" d="M.5,8.85h0V7.48a1.31,1.31,0,0,1,1.32-1.3l3.68,0S4.07,4.11,4.08,2.77,4.16,0,5.92,0c0,0,.64.4.62,2.2S9.94,6.35,9.94,6.35l-.07,8.19a3,3,0,0,1-1.93.68l-5.33,0a1.37,1.37,0,0,1-1.35-1.38V13a.8.8,0,0,1-.8-.81v-1A.48.48,0,0,1,0,10.72V9.32A.48.48,0,0,1,.5,8.85Z"/></g></g></svg>