<svg xmlns="http://www.w3.org/2000/svg" viewBox="0 0 44.65 43.67"><defs><style>.cls-1{font-size:12.34px;fill:#f7941d;font-family:BebasNeueBold, BebasNeueBold;}.cls-2{fill:#39b54a;}.cls-3{fill:#d7df23;opacity:0.5;}</style></defs><title>support</title><g id="Layer_2" data-name="Layer 2"><g id="Layer_1-2" data-name="Layer 1"><text class="cls-1" transform="translate(13.8 25.76)">24/7</text><path class="cls-2" d="M38.46,7.64A21,21,0,0,0,27.13,1.76,3.1,3.1,0,1,0,26.75,5,17.82,17.82,0,1,1,5.87,24.87H8.14L4.07,17.82,0,24.87H2.55A21.11,21.11,0,0,0,38.46,37.49a21.11,21.11,0,0,0,0-29.85Z"/><path class="cls-3" d="M23.54,42.5A19.93,19.93,0,1,1,43.47,22.57,20,20,0,0,1,23.54,42.5Zm0-38.93a19,19,0,1,0,19,19A19,19,0,0,0,23.54,3.57Z"/></g></g></svg>