<svg xmlns="http://www.w3.org/2000/svg" xmlns:xlink="http://www.w3.org/1999/xlink" viewBox="0 0 6.21 6.21"><defs><style>.cls-1{fill:none;}.cls-2{fill:#f43122;}.cls-3{fill:#3f51b5;}.cls-4{fill:#9e9e9e;}.cls-5{fill:#707070;}.cls-6{fill:#607d8b;}.cls-7{fill:#37474f;}.cls-8{fill:#f5f5f5;}.cls-9{clip-path:url(#clip-path);}.cls-10{fill:#1a1a1a;}</style><clipPath id="clip-path"><rect id="SVGID" class="cls-1" width="6.21" height="6.21"/></clipPath></defs><title>trash</title><g id="Layer_2" data-name="Layer 2"><g id="Layer_1-2" data-name="Layer 1"><path class="cls-2" d="M4.66.52V5.28a.41.41,0,0,1-.41.41L.52,5.49A.41.41,0,0,1,.1,5.07V1.45H1A.41.41,0,0,0,1.45,1V.1h2.8a.41.41,0,0,1,.41.41Zm0,0"/><path class="cls-2" d="M4.25.1H3.94a.41.41,0,0,1,.41.41V5.28a.41.41,0,0,1-.41.41h.31a.41.41,0,0,0,.41-.41V.52A.41.41,0,0,0,4.25.1Zm0,0"/><path class="cls-3" d="M5.07.93V5.49a.41.41,0,0,1-.41.41H.93a.41.41,0,0,1-.41-.41H4.25a.41.41,0,0,0,.41-.41V.52a.41.41,0,0,1,.41.41Zm0,0"/><path class="cls-4" d="M5.3,6.11H3.19A.21.21,0,0,1,3,5.93L2.59,2.59H5.9L5.51,5.93a.21.21,0,0,1-.21.18Zm0,0"/><path class="cls-5" d="M5.59,2.59,5.2,5.93A.21.21,0,0,1,5,6.11H5.3a.21.21,0,0,0,.21-.18L5.9,2.59Zm0,0"/><path class="cls-6" d="M2.59,2.07H5.9a.21.21,0,0,1,.21.21v.1a.21.21,0,0,1-.21.21H2.59a.21.21,0,0,1-.21-.21v-.1a.21.21,0,0,1,.21-.21Zm0,0"/><path class="cls-7" d="M5.9,2.07H5.59a.21.21,0,0,1,.21.21v.1a.21.21,0,0,1-.21.21H5.9a.21.21,0,0,0,.21-.21v-.1a.21.21,0,0,0-.21-.21Zm0,0"/><path class="cls-6" d="M3.42,1.55H5.07a.21.21,0,0,1,.21.21v.31H3.21V1.76a.21.21,0,0,1,.21-.21Zm0,0"/><path class="cls-7" d="M5.07,1.55H4.76A.21.21,0,0,1,5,1.76v.31h.31V1.76a.21.21,0,0,0-.21-.21Zm0,0"/><path class="cls-2" d="M1.45.1V1A.41.41,0,0,1,1,1.45H.1Zm0,0"/><path class="cls-8" d="M3.62.62H3A.1.1,0,1,1,3,.41h.62a.1.1,0,0,1,0,.21Zm0,0"/><g class="cls-9"><path class="cls-8" d="M4.25.62H4A.1.1,0,1,1,4,.41h.21a.1.1,0,1,1,0,.21Zm0,0"/><path class="cls-10" d="M5.9,2H5.39V1.76a.31.31,0,0,0-.21-.29V.93A.52.52,0,0,0,4.75.42.52.52,0,0,0,4.25,0H1.45a.1.1,0,0,0-.07,0L0,1.38a.1.1,0,0,0,0,.07V5.07a.52.52,0,0,0,.42.51A.52.52,0,0,0,.93,6h2a.31.31,0,0,0,.29.21H5.3a.31.31,0,0,0,.31-.28L6,2.68a.31.31,0,0,0,.22-.29v-.1A.31.31,0,0,0,5.9,2Zm-.83-.31a.1.1,0,0,1,.1.1V2H3.31V1.76a.1.1,0,0,1,.1-.1ZM5,.93v.52H4.76V.64A.31.31,0,0,1,5,.93ZM1.35.35V1A.31.31,0,0,1,1,1.35H.35ZM.21,5.07V1.55H1A.52.52,0,0,0,1.55,1V.21H4.25a.31.31,0,0,1,.31.31v.93H3.42a.31.31,0,0,0-.31.31V2H2.59a.31.31,0,0,0-.31.31v.1a.31.31,0,0,0,.22.29l.32,2.71H.52a.31.31,0,0,1-.31-.31Zm.43.52h2.2l0,.21H.93a.31.31,0,0,1-.29-.21Zm4.77.32A.1.1,0,0,1,5.3,6H3.19a.1.1,0,0,1-.1-.09L2.71,2.69H5.79ZM6,2.38a.1.1,0,0,1-.1.1H2.59a.1.1,0,0,1-.1-.1v-.1a.1.1,0,0,1,.1-.1H5.9a.1.1,0,0,1,.1.1Zm0,0"/></g><path class="cls-10" d="M4.25,5.8a.1.1,0,0,0,.1-.1V3a.1.1,0,1,0-.21,0V5.7a.1.1,0,0,0,.1.1Zm0,0"/><path class="cls-10" d="M3.62,5.8h0a.1.1,0,0,0,.09-.11L3.42,3a.1.1,0,0,0-.21,0l.31,2.69a.1.1,0,0,0,.1.09Zm0,0"/><path class="cls-10" d="M4.86,5.8h0A.1.1,0,0,0,5,5.71L5.28,3a.1.1,0,1,0-.21,0L4.76,5.68a.1.1,0,0,0,.09.11Zm0,0"/></g></g></svg>