<svg xmlns="http://www.w3.org/2000/svg" viewBox="0 0 14.82 15.23"><defs><style>.cls-1{fill:#a7a9ac;}</style></defs><title>unlike</title><g id="Layer_2" data-name="Layer 2"><g id="Layer_1-2" data-name="Layer 1"><rect class="cls-1" x="0.03" y="0.93" width="4.18" height="7.93" transform="translate(0.04 -0.02) rotate(0.46)"/><path class="cls-1" d="M14.32,6.38h0V7.74A1.31,1.31,0,0,1,12.94,9L9.26,9s1.48,2.1,1.47,3.44-.08,2.78-1.84,2.77c0,0-.64-.4-.62-2.2S4.87,8.87,4.87,8.87L4.94.68A3,3,0,0,1,6.87,0L12.2,0a1.37,1.37,0,0,1,1.35,1.38v.83a.8.8,0,0,1,.8.81V4a.48.48,0,0,1,.48.49V5.9A.48.48,0,0,1,14.32,6.38Z"/></g></g></svg>