<svg id="Layer_1" data-name="Layer 1" xmlns="http://www.w3.org/2000/svg" viewBox="0 0 163 171"><defs><style>.cls-1{fill:#ff4439;}</style></defs><title>Accounting</title><path class="cls-1" d="M128.44,150.92A3.46,3.46,0,0,1,125,154H38.17a3.47,3.47,0,0,1-3.44-3.12L30.05,43.12H133.13Z"/><path class="cls-1" d="M137,28.47H112.78V22.66a3.47,3.47,0,0,0-3.47-3.47H53.87a3.46,3.46,0,0,0-3.46,3.47v5.81H26.15a3.47,3.47,0,0,0-3.46,3.47V35.4a3.46,3.46,0,0,0,3.46,3.47H137a3.47,3.47,0,0,0,3.47-3.47V31.94A3.47,3.47,0,0,0,137,28.47Z"/></svg>