<svg id="Capa_1" data-name="Capa 1" xmlns="http://www.w3.org/2000/svg" viewBox="0 0 512 512"><defs><style>.cls-1{fill:#00bcd4;stroke:#1a1a1a;stroke-miterlimit:10;stroke-width:8px;}</style></defs><title>pdf</title><path class="cls-1" d="M229,420.34a14.09,14.09,0,0,1-14.09,14.09h-62A56.44,56.44,0,0,1,96.5,378.05V130a56.44,56.44,0,0,1,56.38-56.38H326.19A56.44,56.44,0,0,1,382.57,130V264.58a14.1,14.1,0,0,1-28.19,0V130a28.23,28.23,0,0,0-28.19-28.19H152.88A28.23,28.23,0,0,0,124.69,130V378.05a28.23,28.23,0,0,0,28.19,28.19h62A14.09,14.09,0,0,1,229,420.34Zm83.09-262.19H166.9a14.1,14.1,0,0,0,0,28.19H312.09a14.1,14.1,0,1,0,0-28.19Zm14.1,70.48a14.1,14.1,0,0,0-14.1-14.09H166.9a14.1,14.1,0,0,0,0,28.19H312.09a14.1,14.1,0,0,0,14.1-14.1ZM166.9,270.92a14.1,14.1,0,0,0,0,28.19H241a14.1,14.1,0,1,0,0-28.19ZM417.44,374.17c-.5.71-2.2,3.11-3.25,4.44-4.72,5.94-15.77,19.84-31.15,32.11-19.71,15.73-40,23.71-60.3,23.71s-40.59-8-60.3-23.71c-15.38-12.27-26.43-26.17-31.15-32.11-1-1.33-2.75-3.74-3.25-4.44A14.09,14.09,0,0,1,228,358c.5-.7,2.2-3.11,3.25-4.44,4.72-5.94,15.77-19.84,31.15-32.11,19.71-15.73,40-23.71,60.3-23.71s40.59,8,60.3,23.71c15.38,12.27,26.43,26.18,31.15,32.11,1.05,1.33,2.75,3.74,3.25,4.44a14.09,14.09,0,0,1,0,16.21Zm-29.4-8.1c-22.42-26.67-44.36-40.18-65.3-40.18s-42.88,13.51-65.3,40.18c22.42,26.66,44.36,40.17,65.3,40.17s42.88-13.51,65.3-40.17Zm-64.59-26.79a26.79,26.79,0,1,0,26.78,26.79,26.78,26.78,0,0,0-26.78-26.79Zm0,0"/></svg>